<svg width="34" height="32" viewBox="0 0 34 32" fill="none" xmlns="http://www.w3.org/2000/svg">
<path d="M29.8487 21.5404L29.8957 21.4823C29.9826 21.375 30.0663 21.2668 30.1477 21.1595C30.1618 21.1418 30.1751 21.1232 30.1884 21.1046C30.2714 20.9908 30.3527 20.8762 30.431 20.76L30.4498 20.731C30.5281 20.6148 30.6034 20.4969 30.676 20.3775C30.6822 20.3678 30.6885 20.3581 30.694 20.3485C30.7665 20.229 30.8364 20.1082 30.9037 19.9861C30.9147 19.9675 30.9256 19.9482 30.9358 19.9288C31.0008 19.8102 31.0634 19.6867 31.1236 19.5697L31.1549 19.5067C31.2144 19.3841 31.2731 19.2646 31.3279 19.1371L31.3482 19.0895C31.4633 18.828 31.5682 18.5617 31.6613 18.293L31.6777 18.2462C31.7223 18.1171 31.763 17.9879 31.8029 17.858C31.8092 17.837 31.8155 17.816 31.8209 17.7951C31.8593 17.6659 31.8992 17.5352 31.9289 17.4045C31.9336 17.3859 31.9383 17.3673 31.9423 17.3488C31.9767 17.2143 32.0083 17.0798 32.037 16.9453C32.0379 16.9379 32.0392 16.9307 32.0409 16.9235C32.0701 16.7847 32.0962 16.6453 32.1191 16.5054C32.1196 16.4979 32.1196 16.4904 32.1191 16.4829C32.1418 16.3448 32.1622 16.2069 32.1794 16.068L32.1864 16.0156C32.2029 15.88 32.217 15.7444 32.2279 15.6121L32.2326 15.5556C32.2436 15.4179 32.2522 15.2799 32.2584 15.1416C32.2584 15.1303 32.2584 15.1182 32.2584 15.1061C32.2704 14.8172 32.2704 14.5283 32.2584 14.2393C32.2584 14.228 32.2584 14.2159 32.2584 14.2046C32.2522 14.0658 32.2436 13.9262 32.2326 13.7874C32.2326 13.7705 32.2326 13.7543 32.2287 13.7374C32.2169 13.5994 32.2029 13.4606 32.1856 13.3226L32.181 13.2822C32.1627 13.1397 32.1421 12.9971 32.1191 12.8545C32.0949 12.7052 32.0667 12.5567 32.0362 12.409V12.4042C32.0064 12.2632 31.9738 12.1223 31.9383 11.9813L31.9289 11.9442C31.8945 11.807 31.8569 11.6714 31.817 11.5358C31.8123 11.5221 31.8084 11.5084 31.8045 11.4955C31.7638 11.3583 31.72 11.2211 31.673 11.0855C31.6706 11.0792 31.6685 11.0727 31.6668 11.0662C31.5692 10.7853 31.4602 10.508 31.3396 10.2341L31.331 10.2131C31.2723 10.0816 31.2105 9.95006 31.1463 9.82013C31.1408 9.80803 31.1346 9.79592 31.1283 9.78382C31.0649 9.65469 30.9976 9.52719 30.9288 9.40048L30.9123 9.37143C30.8372 9.23478 30.7589 9.10027 30.6775 8.96792C31.1752 8.89678 31.644 8.68457 32.0317 8.35493C32.4193 8.02528 32.7106 7.59115 32.8731 7.10087C33.0356 6.61059 33.063 6.08342 32.9521 5.57808C32.8412 5.07273 32.5964 4.60904 32.2451 4.23865C31.8937 3.86826 31.4496 3.60572 30.9621 3.48026C30.4746 3.3548 29.9628 3.37135 29.4839 3.52807C29.005 3.68478 28.5777 3.97551 28.2495 4.36788C27.9214 4.76024 27.7053 5.23883 27.6253 5.75035C23.5972 2.99762 18.1016 3.44875 14.5555 7.10614L9.73068 12.0814C9.51642 12.3022 9.22592 12.4262 8.92302 12.4262C8.62012 12.4262 8.32961 12.3022 8.11535 12.0814L24.4127 28.8705C24.3699 28.8256 24.3306 28.7773 24.2953 28.7261C24.2727 28.6942 24.2518 28.661 24.2327 28.6268C24.2148 28.5952 24.1986 28.5626 24.1841 28.5292C24.0668 28.2702 24.046 27.9758 24.1254 27.702C24.1415 27.6485 24.1611 27.5962 24.1841 27.5454C24.1984 27.5122 24.2146 27.4798 24.2327 27.4486C24.2516 27.414 24.2725 27.3806 24.2953 27.3485C24.3307 27.2975 24.3699 27.2495 24.4127 27.2049L29.2375 22.2288C29.3416 22.1223 29.4418 22.0133 29.5396 21.906C29.5529 21.8923 29.5654 21.8777 29.578 21.8632C29.6703 21.7562 29.7606 21.6486 29.8487 21.5404ZM29.6687 5.52681C29.7952 5.39652 29.9562 5.30781 30.1316 5.2719C30.3069 5.23599 30.4886 5.25449 30.6537 5.32505C30.8189 5.39562 30.96 5.51509 31.0593 5.66836C31.1586 5.82163 31.2116 6.00182 31.2116 6.18614C31.2116 6.37046 31.1586 6.55065 31.0593 6.70392C30.96 6.85719 30.8189 6.97666 30.6537 7.04723C30.4886 7.1178 30.3069 7.13629 30.1316 7.10038C29.9562 7.06447 29.7952 6.97576 29.6687 6.84547C29.4993 6.67054 29.4041 6.4334 29.4041 6.18614C29.4041 5.93888 29.4993 5.70174 29.6687 5.52681Z" fill="url(#paint0_linear_14225_1894)"/>
<path d="M8.16465 12.1161C7.99792 11.9371 7.79824 11.7942 7.57729 11.6958C7.35635 11.5974 7.11858 11.5454 6.87791 11.5429C6.63725 11.5404 6.39851 11.5874 6.17569 11.6812C5.95288 11.7751 5.75045 11.9138 5.58026 12.0893C5.41007 12.2648 5.27555 12.4735 5.18457 12.7033C5.09358 12.933 5.04796 13.1792 5.05038 13.4274C5.05281 13.6755 5.10322 13.9207 5.19867 14.1486C5.29411 14.3764 5.43268 14.5823 5.60626 14.7542L10.7262 20.0337L10.7168 20.0434L10.6769 20.0902C10.6463 20.1249 10.6174 20.1604 10.5884 20.1967C10.5743 20.2137 10.5602 20.2306 10.5469 20.2484C10.5125 20.292 10.4789 20.3363 10.4468 20.3815L10.4029 20.4437C10.3787 20.4792 10.3544 20.5147 10.3309 20.551L10.2824 20.6269C10.266 20.6543 10.2488 20.6817 10.2323 20.7076C10.2159 20.7334 10.2002 20.7624 10.1846 20.7883L10.1369 20.877C9.68127 21.7309 9.51677 22.7176 9.6697 23.6793C9.82263 24.641 10.2841 25.522 10.9803 26.181C11.6765 26.8401 12.567 27.2392 13.5092 27.3143C14.4515 27.3895 15.3909 27.1364 16.1771 26.5955C16.364 26.4821 16.5356 26.3437 16.6874 26.184L21.812 31.4619C22.1535 31.8001 22.6101 31.9869 23.0836 31.982C23.5572 31.9771 24.01 31.7809 24.3449 31.4356C24.6798 31.0903 24.87 30.6233 24.8748 30.135C24.8795 29.6467 24.6985 29.1759 24.3704 28.8237L8.16465 12.1161Z" fill="url(#paint1_linear_14225_1894)"/>
<path d="M13.0369 21.7514L7.8129 16.5123C7.69257 16.3931 7.5303 16.3264 7.36122 16.3264C7.19214 16.3264 7.02987 16.3931 6.90954 16.5123C6.50705 16.916 6.18779 17.3952 5.96999 17.9227C5.75218 18.4501 5.6401 19.0154 5.64014 19.5863C5.64021 20.7392 6.09698 21.8449 6.90995 22.6601C7.72292 23.4753 8.8255 23.9333 9.97513 23.9332C11.1248 23.9331 12.2273 23.475 13.0402 22.6597C13.0997 22.6 13.1469 22.5291 13.179 22.451C13.211 22.373 13.2274 22.2893 13.2271 22.2049C13.2268 22.1204 13.2099 22.0369 13.1772 21.9591C13.1446 21.8812 13.0969 21.8106 13.0369 21.7514Z" fill="#F8CD50"/>
<path opacity="0.35" d="M13.0372 22.6565C13.0965 22.5971 13.1435 22.5265 13.1756 22.4489C13.2076 22.3712 13.2241 22.288 13.2241 22.2039C13.2241 22.1199 13.2076 22.0367 13.1756 21.959C13.1435 21.8813 13.0965 21.8108 13.0372 21.7514L7.81315 16.5123C7.69282 16.3931 7.53055 16.3264 7.36147 16.3264C7.1924 16.3264 7.03012 16.3931 6.90979 16.5123C6.60353 16.8191 6.34506 17.1704 6.14307 17.5544L10.7828 22.2076C10.9757 22.4002 11.2273 22.7025 11.5632 23.0232C11.7114 23.1685 11.9062 23.2562 12.1129 23.2707C12.248 23.2747 12.4617 23.236 13.0372 22.6565Z" fill="#BC9847"/>
<path d="M24.9179 4.78931C24.5279 4.39864 24.2622 3.90072 24.1544 3.35855C24.0466 2.81639 24.1016 2.25433 24.3124 1.74351C24.5232 1.23269 24.8803 0.796047 25.3386 0.488833C25.7969 0.18162 26.3358 0.0176392 26.887 0.0176392C27.4383 0.0176392 27.9771 0.18162 28.4354 0.488833C28.8937 0.796047 29.2509 1.23269 29.4617 1.74351C29.6725 2.25433 29.7274 2.81639 29.6196 3.35855C29.5118 3.90072 29.2461 4.39864 28.8561 4.78931C28.3331 5.31163 27.6251 5.60488 26.887 5.60488C26.1489 5.60488 25.4409 5.31163 24.9179 4.78931ZM27.5452 2.15445C27.4153 2.02404 27.2498 1.93521 27.0696 1.89918C26.8893 1.86315 26.7024 1.88155 26.5326 1.95204C26.3628 2.02254 26.2176 2.14196 26.1155 2.29521C26.0134 2.44845 25.9589 2.62864 25.9589 2.81296C25.9589 2.99728 26.0134 3.17747 26.1155 3.33071C26.2176 3.48396 26.3628 3.60338 26.5326 3.67388C26.7024 3.74437 26.8893 3.76277 27.0696 3.72674C27.2498 3.69071 27.4153 3.60188 27.5452 3.47147C27.7189 3.29644 27.8162 3.05951 27.8159 2.81263C27.8156 2.56574 27.7177 2.32905 27.5436 2.15445H27.5452Z" fill="#2DCCCD"/>
<path d="M20.8333 25.4687C20.6136 25.248 20.4902 24.9488 20.4902 24.6369C20.4902 24.325 20.6136 24.0259 20.8333 23.8051L25.7881 18.836C29.9432 14.6681 29.9432 7.88714 25.7881 3.72005C21.6329 -0.447047 14.8714 -0.447047 10.7155 3.72005L5.76071 8.68912C5.54044 8.90948 5.24202 9.03323 4.93089 9.03323C4.61977 9.03323 4.32135 8.90948 4.10107 8.68912L20.8333 25.4687Z" fill="#1464A5"/>
<path d="M20.8336 25.469C20.6139 25.2482 20.4906 24.9491 20.4906 24.6372C20.4906 24.3253 20.6139 24.0261 20.8336 23.8054L25.7884 18.8363C29.4814 15.1327 29.8921 9.36481 27.0213 5.20175L27.0132 5.19611L17.8511 22.4779L20.8336 25.469Z" fill="url(#paint2_linear_14225_1894)"/>
<path d="M18.1595 28.059L1.52294 11.3745C1.17581 11.0244 0.980957 10.5508 0.980957 10.0571C0.980957 9.56337 1.17581 9.08973 1.52294 8.73965C1.87202 8.39152 2.3443 8.19611 2.83659 8.19611C3.32888 8.19611 3.80116 8.39152 4.15023 8.73965L20.7868 25.4242C21.1339 25.7742 21.3288 26.2479 21.3288 26.7416C21.3288 27.2353 21.1339 27.7089 20.7868 28.059C20.4377 28.4071 19.9654 28.6026 19.4731 28.6026C18.9809 28.6026 18.5086 28.4071 18.1595 28.059Z" fill="#004481"/>
<defs>
<linearGradient id="paint0_linear_14225_1894" x1="12.5152" y1="-3.20374" x2="30.7007" y2="29.9904" gradientUnits="userSpaceOnUse">
<stop stop-color="#192647" stop-opacity="0.5"/>
<stop offset="1" stop-color="#192647" stop-opacity="0"/>
</linearGradient>
<linearGradient id="paint1_linear_14225_1894" x1="5.89661" y1="4.84084" x2="21.1767" y2="32.7104" gradientUnits="userSpaceOnUse">
<stop stop-color="#192647" stop-opacity="0.5"/>
<stop offset="1" stop-color="#192647" stop-opacity="0"/>
</linearGradient>
<linearGradient id="paint2_linear_14225_1894" x1="28.9051" y1="15.3325" x2="17.8511" y2="15.3325" gradientUnits="userSpaceOnUse">
<stop stop-color="#004481" stop-opacity="0.6"/>
<stop offset="0.0625" stop-color="#004481" stop-opacity="0.5625"/>
<stop offset="1" stop-color="#004481" stop-opacity="0"/>
<stop offset="1" stop-color="#004481" stop-opacity="0"/>
</linearGradient>
</defs>
</svg>
