<svg width="40" height="42" viewBox="0 0 40 42" fill="none" xmlns="http://www.w3.org/2000/svg">
<path d="M35.7335 14.4888L26.7099 5.46277H8.96114C8.88074 5.46342 8.80383 5.49571 8.74705 5.55264C8.69027 5.60957 8.65819 5.68658 8.65776 5.76698V40.7381C8.6571 40.7738 8.66349 40.8092 8.67656 40.8424C8.68963 40.8756 8.70912 40.9059 8.73391 40.9315C8.75871 40.9572 8.78832 40.9777 8.82106 40.9919C8.85379 41.006 8.889 41.0136 8.92467 41.0141H35.4591C35.4948 41.0149 35.5302 41.0086 35.5635 40.9957C35.5967 40.9827 35.627 40.9633 35.6528 40.9386C35.6785 40.9139 35.6991 40.8843 35.7134 40.8516C35.7276 40.8189 35.7353 40.7837 35.736 40.7481V40.7381L35.7335 14.4888Z" fill="url(#paint0_linear_4096_29985)"/>
<path d="M31.3399 10.0121L22.3163 0.985992H4.56759C4.48726 0.986428 4.41035 1.01853 4.35355 1.07533C4.29674 1.13213 4.26464 1.20905 4.26421 1.28938V36.2613C4.26355 36.297 4.26993 36.3324 4.283 36.3656C4.29607 36.3988 4.31556 36.4291 4.34036 36.4548C4.36516 36.4804 4.39477 36.5009 4.4275 36.5151C4.46024 36.5293 4.49545 36.5368 4.53112 36.5374H31.0655C31.1012 36.5381 31.1367 36.5319 31.1699 36.5189C31.2031 36.5059 31.2335 36.4865 31.2592 36.4618C31.2849 36.4371 31.3055 36.4075 31.3198 36.3748C31.3341 36.3421 31.3418 36.307 31.3424 36.2713V36.2613L31.3399 10.0121Z" fill="#D4EDFC"/>
<path d="M23.8816 2.64363L5.49707 36.5372L30.6041 36.6292H31.065C31.1006 36.63 31.1361 36.6237 31.1693 36.6107C31.2026 36.5977 31.2329 36.5783 31.2586 36.5536C31.2844 36.5289 31.305 36.4993 31.3192 36.4667C31.3335 36.434 31.3412 36.3988 31.3418 36.3631V10.1039L23.8816 2.64363Z" fill="url(#paint1_linear_4096_29985)"/>
<path d="M22.6564 10.0121H31.3401L22.3166 0.985992V9.67054C22.3152 9.71443 22.3226 9.75814 22.3383 9.79915C22.3541 9.84015 22.3777 9.87762 22.4081 9.9094C22.4384 9.94117 22.4747 9.9666 22.5149 9.98422C22.5551 10.0018 22.5984 10.0113 22.6423 10.0121H22.6564Z" fill="#49A5E6"/>
<path opacity="0.35" d="M25.569 19.2497H8.35156C8.24122 19.2348 8.14004 19.1804 8.06677 19.0965C7.9935 19.0127 7.95312 18.9051 7.95312 18.7938C7.95312 18.6824 7.9935 18.5749 8.06677 18.491C8.14004 18.4072 8.24122 18.3528 8.35156 18.3379H25.569C25.6793 18.3528 25.7805 18.4072 25.8538 18.491C25.927 18.5749 25.9674 18.6824 25.9674 18.7938C25.9674 18.9051 25.927 19.0127 25.8538 19.0965C25.7805 19.1804 25.6793 19.2348 25.569 19.2497Z" fill="#5BBEFF"/>
<path opacity="0.35" d="M25.569 22.0586H8.35156C8.24122 22.0437 8.14004 21.9892 8.06677 21.9054C7.9935 21.8216 7.95312 21.714 7.95312 21.6027C7.95312 21.4913 7.9935 21.3838 8.06677 21.2999C8.14004 21.2161 8.24122 21.1617 8.35156 21.1468H25.569C25.6793 21.1617 25.7805 21.2161 25.8538 21.2999C25.927 21.3838 25.9674 21.4913 25.9674 21.6027C25.9674 21.714 25.927 21.8216 25.8538 21.9054C25.7805 21.9892 25.6793 22.0437 25.569 22.0586Z" fill="#5BBEFF"/>
<path opacity="0.35" d="M25.5688 27.6779H8.35141C8.2305 27.6779 8.11454 27.6299 8.02904 27.5444C7.94354 27.4589 7.89551 27.343 7.89551 27.222C7.89551 27.1011 7.94354 26.9852 8.02904 26.8997C8.11454 26.8142 8.2305 26.7661 8.35141 26.7661H25.5688C25.6897 26.7489 25.8126 26.7804 25.9103 26.8537C26.008 26.927 26.0725 27.0361 26.0898 27.157C26.1071 27.2779 26.0756 27.4007 26.0023 27.4984C25.929 27.5961 25.8199 27.6607 25.699 27.6779C25.6558 27.6837 25.612 27.6837 25.5688 27.6779Z" fill="#5BBEFF"/>
<path opacity="0.35" d="M25.5689 30.487H15.0864C14.9761 30.4721 14.8749 30.4177 14.8016 30.3339C14.7284 30.25 14.688 30.1425 14.688 30.0311C14.688 29.9198 14.7284 29.8122 14.8016 29.7284C14.8749 29.6446 14.9761 29.5901 15.0864 29.5752H25.5689C25.6792 29.5901 25.7804 29.6446 25.8537 29.7284C25.9269 29.8122 25.9673 29.9198 25.9673 30.0311C25.9673 30.1425 25.9269 30.25 25.8537 30.3339C25.7804 30.4177 25.6792 30.4721 25.5689 30.487Z" fill="#5BBEFF"/>
<path d="M12.6176 14.6845C15.2613 14.6845 17.4045 12.5413 17.4045 9.89749C17.4045 7.25371 15.2613 5.1105 12.6176 5.1105C9.97377 5.1105 7.83057 7.25371 7.83057 9.89749C7.83057 12.5413 9.97377 14.6845 12.6176 14.6845Z" fill="#2DCCCD"/>
<path d="M15.4447 9.08138H13.4354V7.07126C13.4354 7.01689 13.4139 6.96472 13.3755 6.9262C13.3371 6.88767 13.2851 6.86591 13.2307 6.86569H12.0055C11.951 6.86569 11.8987 6.88735 11.8602 6.9259C11.8216 6.96445 11.8 7.01674 11.8 7.07126V9.08138H9.79151C9.73699 9.08138 9.6847 9.10304 9.64615 9.14159C9.60759 9.18015 9.58594 9.23243 9.58594 9.28695V10.5113C9.58594 10.5658 9.60759 10.6181 9.64615 10.6566C9.6847 10.6952 9.73699 10.7168 9.79151 10.7168H11.8V12.7253C11.8 12.7798 11.8216 12.8321 11.8602 12.8707C11.8987 12.9092 11.951 12.9309 12.0055 12.9309H13.2307C13.2851 12.9307 13.3371 12.9089 13.3755 12.8704C13.4139 12.8318 13.4354 12.7797 13.4354 12.7253V10.7152H15.4447C15.4991 10.715 15.5512 10.6932 15.5895 10.6547C15.6279 10.6161 15.6495 10.564 15.6495 10.5096V9.2853C15.649 9.23121 15.6273 9.17947 15.589 9.1413C15.5506 9.10313 15.4988 9.0816 15.4447 9.08138Z" fill="#EAF9FA"/>
<defs>
<linearGradient id="paint0_linear_4096_29985" x1="10.6737" y1="5.97918" x2="30.0148" y2="42.3553" gradientUnits="userSpaceOnUse">
<stop stop-color="#082146" stop-opacity="0.5"/>
<stop offset="1" stop-color="#082146" stop-opacity="0"/>
</linearGradient>
<linearGradient id="paint1_linear_4096_29985" x1="5.49707" y1="19.6364" x2="31.3418" y2="19.6364" gradientUnits="userSpaceOnUse">
<stop stop-color="#072146" stop-opacity="0"/>
<stop offset="1" stop-color="#072146" stop-opacity="0.1"/>
</linearGradient>
</defs>
</svg>
