<svg width="36" height="31" viewBox="0 0 36 31" fill="none" xmlns="http://www.w3.org/2000/svg">
<path d="M9.7207 16.3426H1.40192L4.33193 5.20938H6.69221L9.7207 16.3426ZM2.42172 15.5596H8.69601L6.094 5.99316H4.93665L2.42172 15.5596Z" fill="#004481"/>
<path d="M34.2806 16.3426H25.9675L28.8975 5.20938H31.2578L34.2806 16.3426ZM26.9832 15.5596H33.2567L30.6596 5.99316H29.4981L26.9832 15.5596Z" fill="#004481"/>
<path d="M10.275 28.1355H25.4004C25.8798 28.1355 26.3396 28.3259 26.6786 28.6649C27.0176 29.0039 27.208 29.4637 27.208 29.9431V30.7782H8.47223V29.9382C8.47244 29.4602 8.66245 29.0018 9.00049 28.6637C9.33852 28.3257 9.79694 28.1357 10.275 28.1355Z" fill="#2DCCCD"/>
<path d="M19.4263 7.05313V28.1354H16.2529V7.07999" fill="#004481"/>
<path d="M32.1189 3.11725H21.0955C20.846 2.45557 20.4007 1.88563 19.8191 1.48337C19.2375 1.08111 18.5471 0.865631 17.8399 0.865631C17.1328 0.865631 16.4424 1.08111 15.8608 1.48337C15.2792 1.88563 14.8339 2.45557 14.5844 3.11725H3.56022C3.23096 3.11746 2.91526 3.24841 2.68252 3.48131C2.44977 3.71421 2.31903 4.02999 2.31903 4.35925C2.31903 4.68843 2.4498 5.00413 2.68257 5.2369C2.91533 5.46967 3.23103 5.60043 3.56022 5.60043H14.5844C14.8339 6.26211 15.2792 6.83205 15.8608 7.23431C16.4424 7.63657 17.1328 7.85205 17.8399 7.85205C18.5471 7.85205 19.2375 7.63657 19.8191 7.23431C20.4007 6.83205 20.846 6.26211 21.0955 5.60043H32.1189C32.448 5.60043 32.7637 5.46967 32.9965 5.2369C33.2293 5.00413 33.36 4.68843 33.36 4.35925C33.36 4.02999 33.2293 3.71421 32.9966 3.48131C32.7638 3.24841 32.4481 3.11746 32.1189 3.11725Z" fill="#004481"/>
<path d="M17.8401 6.09346C18.7979 6.09346 19.5745 5.31694 19.5745 4.35905C19.5745 3.40117 18.7979 2.62465 17.8401 2.62465C16.8822 2.62465 16.1057 3.40117 16.1057 4.35905C16.1057 5.31694 16.8822 6.09346 17.8401 6.09346Z" fill="#1464A5"/>
<path d="M-0.0103149 15.5591C0.0904475 16.9669 0.720773 18.2842 1.75377 19.2459C2.78677 20.2076 4.14574 20.7423 5.55711 20.7423C6.96848 20.7423 8.32745 20.2076 9.36045 19.2459C10.3934 18.2842 11.0238 16.9669 11.1245 15.5591H-0.0103149Z" fill="#F8CD50"/>
<path d="M24.5552 15.5591C24.6573 16.9658 25.2882 18.2817 26.3209 19.2422C27.3537 20.2027 28.7118 20.7367 30.1222 20.7367C31.5326 20.7367 32.8907 20.2027 33.9235 19.2422C34.9562 18.2817 35.5871 16.9658 35.6892 15.5591H24.5552Z" fill="#F8CD50"/>
</svg>
