<svg width="80" height="80" viewBox="0 0 80 80" fill="none" xmlns="http://www.w3.org/2000/svg">
<g clip-path="url(#clip0_14537_7140)">
<path d="M44.8267 10.7469L55.5602 32.5038L79.5586 35.9821C79.6558 35.9962 79.7471 36.0372 79.8222 36.1004C79.8973 36.1636 79.9533 36.2466 79.9838 36.3399C80.0143 36.4332 80.0181 36.5332 79.9949 36.6286C79.9716 36.724 79.9221 36.811 79.852 36.8797L62.4852 53.8074L66.5853 77.711C66.6018 77.8078 66.5909 77.9073 66.5538 77.9983C66.5167 78.0892 66.455 78.168 66.3755 78.2257C66.296 78.2834 66.202 78.3178 66.1041 78.3249C66.0061 78.3321 65.9081 78.3117 65.8212 78.2661L44.3541 66.981L22.8889 78.2661C22.8019 78.3117 22.7039 78.3321 22.6059 78.3249C22.508 78.3178 22.414 78.2834 22.3345 78.2257C22.2551 78.168 22.1933 78.0892 22.1562 77.9983C22.1192 77.9073 22.1082 77.8078 22.1247 77.711L26.2249 53.8074L8.858 36.8797C8.78795 36.8111 8.73845 36.7242 8.71508 36.629C8.6917 36.5337 8.69537 36.4338 8.72567 36.3405C8.75598 36.2473 8.81171 36.1643 8.88661 36.101C8.9615 36.0376 9.05259 35.9964 9.14961 35.9821L33.1498 32.5038L43.8816 10.7557C43.9243 10.6671 43.9909 10.5922 44.0739 10.5395C44.157 10.4869 44.2531 10.4585 44.3514 10.4575C44.4497 10.4566 44.5463 10.4832 44.6303 10.5344C44.7143 10.5855 44.7823 10.6591 44.8267 10.7469Z" fill="url(#paint0_linear_14537_7140)"/>
<path d="M36.1175 1.96209L46.851 23.719L70.8494 27.1973C70.9466 27.2114 71.0379 27.2524 71.113 27.3156C71.1881 27.3788 71.2441 27.4618 71.2746 27.5551C71.3051 27.6484 71.3089 27.7484 71.2856 27.8438C71.2623 27.9392 71.2129 28.0262 71.1428 28.0949L53.7759 45.0226L57.8761 68.9262C57.8926 69.023 57.8816 69.1225 57.8446 69.2135C57.8075 69.3044 57.7457 69.3832 57.6663 69.4409C57.5868 69.4986 57.4928 69.533 57.3949 69.5402C57.2969 69.5473 57.1989 69.5269 57.1119 69.4813L35.6449 58.1962L14.1796 69.4813C14.0926 69.5269 13.9946 69.5473 13.8967 69.5402C13.7987 69.533 13.7047 69.4986 13.6253 69.4409C13.5458 69.3832 13.4841 69.3044 13.447 69.2135C13.4099 69.1225 13.399 69.023 13.4155 68.9262L17.5156 45.0226L0.148767 28.0949C0.0787209 28.0263 0.029226 27.9394 0.00584913 27.8442C-0.0175278 27.7489 -0.0138586 27.649 0.0164453 27.5558C0.0467492 27.4625 0.102485 27.3795 0.17738 27.3162C0.252276 27.2528 0.343359 27.2117 0.440382 27.1973L24.4406 23.719L35.1723 1.97087C35.215 1.8823 35.2817 1.80744 35.3647 1.75476C35.4477 1.70207 35.5438 1.67367 35.6422 1.67275C35.7405 1.67184 35.8371 1.69845 35.9211 1.74958C36.0051 1.80072 36.0731 1.87433 36.1175 1.96209Z" fill="#004481"/>
<path d="M70.8493 27.1974L46.8508 23.7191L45.3137 20.6045L20.9059 65.9452L35.643 58.1964L57.1118 69.4815C57.1988 69.5271 57.2968 69.5475 57.3947 69.5403C57.4927 69.5332 57.5867 69.4988 57.6661 69.4411C57.7456 69.3834 57.8073 69.3046 57.8444 69.2136C57.8815 69.1227 57.8924 69.0232 57.876 68.9264L53.7758 45.0228L71.1479 28.0951C71.2181 28.026 71.2675 27.9386 71.2905 27.8428C71.3136 27.747 71.3093 27.6467 71.2782 27.5533C71.2471 27.4598 71.1904 27.3769 71.1146 27.314C71.0388 27.2511 70.9469 27.2107 70.8493 27.1974Z" fill="url(#paint1_linear_14537_7140)"/>
</g>
<defs>
<linearGradient id="paint0_linear_14537_7140" x1="30.1985" y1="17.909" x2="63.1773" y2="79.9333" gradientUnits="userSpaceOnUse">
<stop stop-color="#192647" stop-opacity="0.5"/>
<stop offset="1" stop-color="#192647" stop-opacity="0"/>
</linearGradient>
<linearGradient id="paint1_linear_14537_7140" x1="71.3025" y1="45.0685" x2="20.9077" y2="45.0685" gradientUnits="userSpaceOnUse">
<stop stop-color="#1973B8"/>
<stop offset="1" stop-color="#004481"/>
</linearGradient>
<clipPath id="clip0_14537_7140">
<rect width="80" height="80" fill="white"/>
</clipPath>
</defs>
</svg>
