<svg width="80" height="80" viewBox="0 0 80 80" fill="none" xmlns="http://www.w3.org/2000/svg">
<g clip-path="url(#clip0_14537_24361)">
<path d="M44.8267 10.7469L55.5603 32.5038L79.5587 35.9821C79.6559 35.9962 79.7472 36.0372 79.8223 36.1004C79.8974 36.1636 79.9534 36.2466 79.9839 36.3399C80.0144 36.4332 80.0182 36.5332 79.9949 36.6286C79.9716 36.724 79.9221 36.811 79.8521 36.8797L62.4852 53.8074L66.5854 77.711C66.6018 77.8078 66.5909 77.9073 66.5538 77.9983C66.5168 78.0892 66.455 78.168 66.3756 78.2257C66.2961 78.2834 66.2021 78.3178 66.1041 78.3249C66.0062 78.3321 65.9082 78.3117 65.8212 78.2661L44.3542 66.981L22.8889 78.2661C22.8019 78.3117 22.7039 78.3321 22.606 78.3249C22.508 78.3178 22.414 78.2834 22.3346 78.2257C22.2551 78.168 22.1934 78.0892 22.1563 77.9983C22.1192 77.9073 22.1083 77.8078 22.1248 77.711L26.2249 53.8074L8.85806 36.8797C8.78801 36.8111 8.73852 36.7242 8.71514 36.629C8.69176 36.5337 8.69543 36.4338 8.72573 36.3405C8.75604 36.2473 8.81177 36.1643 8.88667 36.101C8.96156 36.0376 9.05265 35.9964 9.14967 35.9821L33.1499 32.5038L43.8816 10.7557C43.9243 10.6671 43.991 10.5922 44.074 10.5395C44.157 10.4869 44.2531 10.4585 44.3515 10.4575C44.4498 10.4566 44.5464 10.4832 44.6304 10.5344C44.7144 10.5855 44.7824 10.6591 44.8267 10.7469Z" fill="url(#paint0_linear_14537_24361)"/>
<path d="M36.1175 1.96209L46.851 23.719L70.8495 27.1973C70.9466 27.2114 71.0379 27.2524 71.1131 27.3156C71.1882 27.3788 71.2442 27.4618 71.2747 27.5551C71.3052 27.6484 71.309 27.7484 71.2857 27.8438C71.2624 27.9392 71.2129 28.0262 71.1429 28.0949L53.776 45.0226L57.8762 68.9262C57.8926 69.023 57.8817 69.1225 57.8446 69.2135C57.8075 69.3044 57.7458 69.3832 57.6663 69.4409C57.5869 69.4986 57.4929 69.533 57.3949 69.5402C57.297 69.5473 57.199 69.5269 57.112 69.4813L35.645 58.1962L14.1797 69.4813C14.0927 69.5269 13.9947 69.5473 13.8968 69.5402C13.7988 69.533 13.7048 69.4986 13.6253 69.4409C13.5459 69.3832 13.4841 69.3044 13.4471 69.2135C13.41 69.1225 13.3991 69.023 13.4155 68.9262L17.5157 45.0226L0.148828 28.0949C0.0787819 28.0263 0.0292871 27.9394 0.00591016 27.8442C-0.0174667 27.7489 -0.0137976 27.649 0.0165063 27.5558C0.0468102 27.4625 0.102546 27.3795 0.177441 27.3162C0.252337 27.2528 0.34342 27.2117 0.440443 27.1973L24.4407 23.719L35.1724 1.97087C35.2151 1.8823 35.2817 1.80744 35.3648 1.75476C35.4478 1.70207 35.5439 1.67367 35.6422 1.67275C35.7406 1.67184 35.8372 1.69845 35.9212 1.74958C36.0052 1.80072 36.0732 1.87433 36.1175 1.96209Z" fill="#C49735"/>
<path d="M70.8493 27.1974L46.8509 23.7191L45.3138 20.6045L20.906 65.9452L35.6431 58.1964L57.1119 69.4815C57.1988 69.5271 57.2968 69.5475 57.3948 69.5403C57.4927 69.5332 57.5867 69.4988 57.6662 69.4411C57.7457 69.3834 57.8074 69.3046 57.8445 69.2136C57.8816 69.1227 57.8925 69.0232 57.876 68.9264L53.7759 45.0228L71.148 28.0951C71.2182 28.026 71.2676 27.9386 71.2906 27.8428C71.3136 27.747 71.3093 27.6467 71.2783 27.5533C71.2472 27.4598 71.1905 27.3769 71.1147 27.314C71.0389 27.2511 70.9469 27.2107 70.8493 27.1974Z" fill="url(#paint1_linear_14537_24361)"/>
</g>
<defs>
<linearGradient id="paint0_linear_14537_24361" x1="30.1986" y1="17.909" x2="63.1774" y2="79.9333" gradientUnits="userSpaceOnUse">
<stop stop-color="#192647" stop-opacity="0.5"/>
<stop offset="1" stop-color="#192647" stop-opacity="0"/>
</linearGradient>
<linearGradient id="paint1_linear_14537_24361" x1="71.3026" y1="45.0685" x2="20.9078" y2="45.0685" gradientUnits="userSpaceOnUse">
<stop stop-color="#C49735"/>
<stop offset="1" stop-color="#C49735"/>
</linearGradient>
<clipPath id="clip0_14537_24361">
<rect width="80" height="80" fill="white"/>
</clipPath>
</defs>
</svg>
