<svg width="136" height="136" viewBox="0 0 136 136" fill="none" xmlns="http://www.w3.org/2000/svg">
<g clip-path="url(#clip0_2258_107223)">
<path d="M136.044 65.431L127.13 60.2865L118.552 55.3298L101.733 65.058C101.665 64.9391 101.567 64.8401 101.449 64.771L93.054 59.9109V40.4442L92.9862 40.4076L75.3639 30.2334L57.7442 40.4076L57.8094 40.4442V59.8978L49.3883 64.758C49.27 64.8271 49.172 64.926 49.1039 65.0449L32.2851 55.3351L25.8832 59.0291L14.7959 65.431V85.6673L32.2747 95.7659V95.732L49.0857 86.0273L57.7129 91.1197C57.7556 91.1417 57.8001 91.16 57.846 91.1744V110.537L75.3508 120.625V120.583L75.4213 120.625L92.9001 110.526V91.1118C93.0399 91.1126 93.1771 91.0747 93.2966 91.0023L101.733 86.0221L118.542 95.7268L136.034 85.6282V65.431H136.044ZM49.7796 84.6238V66.2084C49.9161 66.2081 50.0501 66.1722 50.1683 66.1041L58.5921 61.2439L74.8421 70.6355C74.8409 70.6442 74.8409 70.653 74.8421 70.6616L74.743 80.6428L69.0272 83.9325L58.6834 89.904C58.6363 89.8544 58.5828 89.8114 58.5242 89.7761L49.7796 84.6238ZM92.5062 89.6666C92.3975 89.7366 92.3079 89.8325 92.2453 89.9457L76.2952 80.7367L76.397 70.6668C76.3965 70.5883 76.3851 70.5101 76.3631 70.4347L75.4395 70.9564L92.2714 61.2413L100.672 66.1015C100.79 66.1696 100.924 66.2055 101.06 66.2058V84.6238L92.5062 89.6666Z" fill="url(#paint0_linear_2258_107223)"/>
<path d="M43.0898 75.4733V95.6705L60.5791 105.769L78.0709 95.6705V75.4733L60.5791 65.3748L43.0898 75.4733Z" fill="#004481"/>
<path d="M43.0898 75.4733L60.5791 85.5719L78.0709 75.4733L60.5791 65.3748L43.0898 75.4733Z" fill="#49A5E6"/>
<path d="M42.9727 25.5832V45.9317L60.5923 56.1033L78.2146 45.9317V25.5832L60.5923 15.4116L42.9727 25.5832Z" fill="#004481"/>
<path d="M42.9023 25.5449L60.5246 35.7192L78.1443 25.5449L60.5246 15.3733L42.9023 25.5449Z" fill="#49A5E6"/>
<path d="M-0.0449219 50.5695V70.7667L17.4469 80.8653L34.9388 70.7667V50.5695L17.4469 40.4709L-0.0449219 50.5695Z" fill="#004481"/>
<path d="M-0.0449219 70.8012L17.4469 80.8997V60.7026L-0.0449219 50.604V70.8012Z" fill="#1464A5"/>
<path d="M43.0195 95.6688L60.5114 105.767V85.5703L43.0195 75.4717V95.6688Z" fill="#1464A5"/>
<path d="M42.9727 45.9341L60.5271 56.0692V35.7181L42.9727 25.583V45.9341Z" fill="#1464A5"/>
<path d="M-0.0449219 50.5695L17.4469 60.6681L34.9388 50.5695L17.4469 40.4709L-0.0449219 50.5695Z" fill="#49A5E6"/>
<path d="M86.2197 50.5695V70.7667L103.712 80.8653L121.203 70.7667V50.5695L103.712 40.4709L86.2197 50.5695Z" fill="#004481"/>
<path d="M103.712 60.6681L86.2197 50.5695L103.712 40.4709L121.19 50.5695L103.712 60.6681Z" fill="#49A5E6"/>
<path d="M86.2197 70.765L103.712 80.8636V60.6664L86.2197 50.5679V70.765Z" fill="#1464A5"/>
<path d="M86.2204 50.5692L86.8935 50.1831C86.8254 50.0642 86.7274 49.9652 86.6091 49.8961L69.6182 40.0845C69.5301 40.0327 69.4326 39.9991 69.3313 39.9857C69.23 39.9722 69.1271 39.9792 69.0286 40.0062C68.8817 40.048 68.7502 40.1318 68.6503 40.2474C68.5505 40.363 68.4866 40.5053 68.4667 40.6567C68.4467 40.8081 68.4715 40.9621 68.538 41.0996C68.6044 41.2371 68.7097 41.3522 68.8408 41.4306L85.8317 51.2396C85.95 51.3077 86.084 51.3437 86.2204 51.344V50.5692Z" fill="#2DCCCD"/>
<path d="M60.5925 56.1022L59.9951 55.7578V55.7891L59.8047 74.9428C59.8046 75.1477 59.885 75.3444 60.0284 75.4907C60.1718 75.6371 60.3668 75.7213 60.5717 75.7254C60.777 75.7254 60.9741 75.6448 61.1205 75.5008C61.2669 75.3568 61.3509 75.1611 61.3543 74.9558L61.5447 55.8022C61.5466 55.7226 61.5352 55.6432 61.5108 55.5674L60.5925 56.1022Z" fill="#2DCCCD"/>
<path d="M52.6057 40.3719C52.5016 40.1945 52.3318 40.0652 52.1331 40.012C51.9344 39.9588 51.7227 39.9859 51.5439 40.0876L34.5529 49.8966C34.4346 49.9657 34.3366 50.0647 34.2686 50.1836L34.939 50.5697V51.3523C35.0746 51.3515 35.2076 51.3156 35.3251 51.2479L52.3187 41.4389C52.4961 41.3348 52.6254 41.1651 52.6786 40.9664C52.7319 40.7677 52.7047 40.556 52.603 40.3772L52.6057 40.3719Z" fill="#2DCCCD"/>
<path d="M43.8338 75.0443C43.7871 74.9933 43.7325 74.9502 43.6721 74.9165L26.6889 64.8909C26.5111 64.7876 26.2998 64.7584 26.1006 64.8096C25.9014 64.8609 25.7304 64.9885 25.6246 65.1648C25.5212 65.3427 25.492 65.554 25.5433 65.7532C25.5945 65.9524 25.7221 66.1234 25.8985 66.2292L42.8842 76.2548C42.9478 76.292 43.0163 76.3201 43.0877 76.3382V75.4747L43.8338 75.0443Z" fill="#2DCCCD"/>
<path d="M95.5347 65.1656C95.483 65.0772 95.4141 65 95.3321 64.9386C95.2501 64.8772 95.1567 64.8329 95.0573 64.8082C94.9588 64.782 94.8561 64.7759 94.7553 64.7903C94.6544 64.8046 94.5575 64.8391 94.4703 64.8917L77.6776 74.805C77.5619 74.8734 77.4657 74.9705 77.3984 75.0868L78.0715 75.4755V76.2581C78.2102 76.2572 78.3461 76.2194 78.4654 76.1486L95.2581 66.2352C95.3467 66.1843 95.424 66.116 95.4854 66.0344C95.5468 65.9528 95.5911 65.8596 95.6155 65.7604C95.6419 65.6608 95.6483 65.557 95.6344 65.4549C95.6205 65.3529 95.5866 65.2546 95.5347 65.1656Z" fill="#2DCCCD"/>
</g>
<defs>
<linearGradient id="paint0_linear_2258_107223" x1="43.0203" y1="14.612" x2="99.2446" y2="120.354" gradientUnits="userSpaceOnUse">
<stop stop-color="#192647" stop-opacity="0.5"/>
<stop offset="1" stop-color="#192647" stop-opacity="0"/>
</linearGradient>
<clipPath id="clip0_2258_107223">
<rect width="136" height="136" fill="white"/>
</clipPath>
</defs>
</svg>
