<svg width="120" height="120" viewBox="0 0 120 120" fill="none" xmlns="http://www.w3.org/2000/svg">
<path d="M66.063 115.763C93.5099 115.763 115.76 93.5134 115.76 66.0665C115.76 38.6196 93.5099 16.3695 66.063 16.3695C38.6161 16.3695 16.366 38.6196 16.366 66.0665C16.366 93.5134 38.6161 115.763 66.063 115.763Z" fill="url(#paint0_linear_14537_6784)"/>
<path d="M103.635 53.9116C103.635 81.3691 81.3931 103.631 53.9604 103.631C26.5276 103.631 4.24103 81.4114 4.24103 53.9762C4.24103 26.541 26.4605 4.25932 53.8958 4.23696C81.331 4.21459 103.613 26.4565 103.635 53.9116Z" fill="#2DCCCD"/>
<path d="M57.9981 75.147V58.0016H75.1435C76.2039 57.9753 77.2121 57.5357 77.9529 56.7764C78.6936 56.0171 79.1082 54.9984 79.1082 53.9376C79.1082 52.8768 78.6936 51.8581 77.9529 51.0988C77.2121 50.3395 76.2039 49.8999 75.1435 49.8736H57.9981V32.7282C57.9718 31.6677 57.5322 30.6596 56.7729 29.9188C56.0136 29.1781 54.9948 28.7635 53.9341 28.7635C52.8733 28.7635 51.8546 29.1781 51.0953 29.9188C50.336 30.6596 49.8963 31.6677 49.8701 32.7282V49.8736H32.7247C31.6642 49.8999 30.656 50.3395 29.9153 51.0988C29.1746 51.8581 28.7599 52.8768 28.7599 53.9376C28.7599 54.9984 29.1746 56.0171 29.9153 56.7764C30.656 57.5357 31.6642 57.9753 32.7247 58.0016H49.8701V75.147C49.8963 76.2075 50.336 77.2156 51.0953 77.9564C51.8546 78.6971 52.8733 79.1117 53.9341 79.1117C54.9948 79.1117 56.0136 78.6971 56.7729 77.9564C57.5322 77.2156 57.9718 76.2075 57.9981 75.147Z" fill="white"/>
<defs>
<linearGradient id="paint0_linear_14537_6784" x1="42.7278" y1="22.1766" x2="89.3982" y2="109.956" gradientUnits="userSpaceOnUse">
<stop stop-color="#1C2645" stop-opacity="0.5"/>
<stop offset="1" stop-color="#1C2645" stop-opacity="0"/>
</linearGradient>
</defs>
</svg>
