<svg width="40" height="40" viewBox="0 0 40 40" fill="none" xmlns="http://www.w3.org/2000/svg">
<g clip-path="url(#clip0_1732_88304)">
<path fill-rule="evenodd" clip-rule="evenodd" d="M39.1108 31.2754V30.5515C39.1108 30.4365 39.0229 30.3485 38.9078 30.3485H37.3449C37.3788 30.2267 37.3991 30.0982 37.3991 29.9696V12.3988C37.3991 11.5395 36.7022 10.8427 35.8429 10.8427H8.50904C7.64978 10.8427 6.9529 11.5395 6.9529 12.3988V29.9696C6.9529 30.0982 6.9732 30.2267 7.00703 30.3485H5.42383C5.30881 30.3485 5.22086 30.4365 5.22086 30.5515V31.2754H4.40219C4.28717 31.2754 4.19922 31.3634 4.19922 31.4784V33.1022C4.19922 33.2172 4.28717 33.3052 4.40219 33.3052H39.8077C39.9227 33.3052 40.0107 33.2172 40.0107 33.1022V31.4784C40.0107 31.3634 39.9227 31.2754 39.8077 31.2754H39.1108Z" fill="url(#paint0_linear_1732_88304)"/>
<path d="M4.31004 6.69479H31.6439C32.5032 6.69479 33.2001 7.39167 33.2001 8.25093V27.2696H2.75391V8.25093C2.75391 7.39167 3.45079 6.69479 4.31004 6.69479Z" fill="#1464A5"/>
<path d="M4.76301 8.04789H31.1497C31.5218 8.04789 31.8263 8.35235 31.8263 8.72447V24.1505C31.8263 24.5226 31.5218 24.8271 31.1497 24.8271H4.76301C4.39089 24.8271 4.08643 24.5226 4.08643 24.1505V8.72447C4.08643 8.35235 4.39089 8.04789 4.76301 8.04789Z" fill="#49A5E6"/>
<path d="M0.202974 27.1276H35.6085C35.7235 27.1276 35.8115 27.2155 35.8115 27.3305V28.9543C35.8115 29.0694 35.7235 29.1573 35.6085 29.1573H0.202974C0.0879556 29.1573 0 29.0694 0 28.9543V27.3305C0 27.2223 0.0879556 27.1276 0.202974 27.1276Z" fill="#1464A5"/>
<path d="M34.9119 27.1272H1.01514V26.4032C1.01514 26.2882 1.10309 26.2003 1.21811 26.2003H34.7089C34.8239 26.2003 34.9119 26.2882 34.9119 26.4032V27.1272Z" fill="#043263"/>
<path d="M20.2702 27.8042H15.8792C15.5071 27.8042 15.2026 27.4997 15.2026 27.1276H20.9468C20.94 27.4997 20.6424 27.8042 20.2702 27.8042Z" fill="#5AC4C4"/>
<path opacity="0.5" fill-rule="evenodd" clip-rule="evenodd" d="M4.76301 24.8271H18.1593L27.1646 8.04789H4.76301C4.39089 8.04789 4.08643 8.35235 4.08643 8.72447V24.1505C4.08643 24.5226 4.39089 24.8271 4.76301 24.8271Z" fill="url(#paint1_linear_1732_88304)"/>
</g>
<defs>
<linearGradient id="paint0_linear_1732_88304" x1="12.6012" y1="7.16708" x2="28.6104" y2="37.2763" gradientUnits="userSpaceOnUse">
<stop stop-color="#192647" stop-opacity="0.5"/>
<stop offset="1" stop-color="#192647" stop-opacity="0"/>
</linearGradient>
<linearGradient id="paint1_linear_1732_88304" x1="7.55723" y1="12.0121" x2="20.5956" y2="18.9443" gradientUnits="userSpaceOnUse">
<stop stop-color="#EAF9FA"/>
<stop offset="1" stop-color="#EAF9FA" stop-opacity="0.5"/>
</linearGradient>
<clipPath id="clip0_1732_88304">
<rect width="40" height="40" fill="white"/>
</clipPath>
</defs>
</svg>
