<svg width="80" height="80" viewBox="0 0 80 80" fill="none" xmlns="http://www.w3.org/2000/svg">
<g clip-path="url(#clip0_14573_20500)">
<path d="M59.0852 34.5074C58.5141 34.4771 57.9479 34.6271 57.4668 34.9361C56.9856 35.2451 56.6137 35.6976 56.4037 36.2296C56.3736 36.3057 56.3453 36.3021 56.3524 36.2189C56.3594 36.1357 56.3612 36.0756 56.3612 36.003C56.3644 35.2933 56.1166 34.6053 55.6616 34.0606C55.2067 33.516 54.5738 33.1496 53.8749 33.0264C53.176 32.9031 52.456 33.0308 51.8422 33.387C51.2283 33.7432 50.7601 34.3049 50.5203 34.9729C50.4991 35.0313 50.4726 35.026 50.4761 34.9729C50.4796 34.9198 50.4761 34.8808 50.4761 34.8348C50.4753 34.1089 50.209 33.4082 49.7275 32.8649C49.246 32.3216 48.5825 31.9731 47.8619 31.8849C47.1413 31.7968 46.4134 31.9752 45.8152 32.3865C45.2169 32.7978 44.7897 33.4136 44.614 34.118C44.6117 34.1302 44.6053 34.1412 44.5957 34.1491C44.5862 34.1571 44.5742 34.1614 44.5618 34.1614C44.5494 34.1614 44.5373 34.1571 44.5278 34.1491C44.5183 34.1412 44.5118 34.1302 44.5096 34.118C44.4281 32.2861 44.3166 29.2099 44.2458 26.9815C44.2458 26.6629 44.2264 26.3231 44.214 25.9691C45.9923 25.3921 47.5422 24.2668 48.6414 22.7545C49.7407 21.2423 50.3327 19.4207 50.3327 17.5511C50.3327 17.4149 50.3327 17.2803 50.3221 17.1458V17.0379C50.3221 16.921 50.3079 16.8078 50.2956 16.6927C50.2956 16.6732 50.2956 16.652 50.2956 16.6325C50.2832 16.5016 50.2655 16.3706 50.246 16.2414C50.246 16.2077 50.2354 16.1741 50.2301 16.1423C50.2141 16.0361 50.1947 15.9316 50.1752 15.8272C50.1752 15.7989 50.1628 15.7688 50.1575 15.7405C50.131 15.6148 50.1026 15.4909 50.0708 15.367C50.0708 15.3369 50.0548 15.3086 50.0478 15.2785C50.0212 15.1794 49.9929 15.0785 49.9628 14.9812C49.954 14.9475 49.9433 14.9139 49.9327 14.882C49.8955 14.7617 49.8548 14.6413 49.8124 14.5281C49.8035 14.5068 49.7947 14.4856 49.7876 14.4626C49.7504 14.3634 49.7115 14.2661 49.6708 14.1688C49.6566 14.1334 49.6424 14.098 49.6265 14.0643C49.5787 13.9546 49.5309 13.8448 49.4778 13.7369C49.4778 13.7227 49.4654 13.7103 49.4601 13.6979C49.4088 13.5917 49.3557 13.4891 49.3008 13.3864L49.2442 13.282C49.1946 13.1953 49.1451 13.105 49.0938 13.0218L49.053 12.951C48.9893 12.8484 48.9238 12.7475 48.8584 12.6484L48.7893 12.5475C48.7374 12.4731 48.6843 12.3988 48.63 12.3245L48.5645 12.2342C48.4937 12.1404 48.4194 12.0466 48.3451 11.9563C48.3203 11.9244 48.2955 11.8961 48.2689 11.866C48.2123 11.7988 48.1557 11.7315 48.092 11.666L48.0052 11.5704C47.9256 11.4837 47.8459 11.3935 47.7645 11.3173L47.6866 11.2412C47.6229 11.1793 47.5592 11.1173 47.4937 11.0642L47.3911 10.9704L47.1645 10.7757L47.0636 10.6908C46.9893 10.6306 46.9132 10.5722 46.8371 10.5138L46.7202 10.4271C46.6512 10.3757 46.5822 10.3262 46.5096 10.2766C46.4777 10.2554 46.4477 10.2324 46.414 10.2111C46.3202 10.1474 46.2229 10.0855 46.1255 10.0253L46.0016 9.95093C45.9308 9.90845 45.86 9.86775 45.7892 9.82881L45.6706 9.76332L45.6512 9.7527C44.622 9.13502 43.4779 8.73317 42.2885 8.57158C41.0991 8.41 39.8892 8.49206 38.7325 8.81278C37.5759 9.13349 36.4965 9.68616 35.5601 10.4372C34.6238 11.1882 33.85 12.1218 33.2858 13.1813C32.7216 14.2408 32.3789 15.4039 32.2784 16.6C32.1779 17.7962 32.3218 19.0002 32.7013 20.139C33.0809 21.2777 33.6881 22.3274 34.486 23.224C35.284 24.1207 36.256 24.8457 37.343 25.3549L37.4032 25.385C37.5217 25.4469 37.6403 25.5071 37.7572 25.562L37.8793 25.6169C37.9926 25.6664 38.1058 25.7142 38.2209 25.7602L38.3465 25.8098C38.474 25.8576 38.6032 25.9036 38.7342 25.9461L38.8156 25.9744L38.9182 26.0045C38.8687 26.8116 38.8191 27.5567 38.7713 28.1798C38.4758 32.0277 37.8014 41.1005 37.497 42.5819C37.1925 44.0634 36.8014 44.3307 36.5978 43.5005C36.131 41.7973 35.4997 40.1434 34.7128 38.5624C33.7181 36.5588 32.5322 35.4773 31.2402 34.4437C30.3145 33.7074 28.0542 33.8029 27.4241 34.5074C27.304 34.6474 27.2408 34.8274 27.2471 35.0118C27.1639 35.0437 27.0825 35.0755 27.0117 35.1056C27.0648 35.872 27.7763 37.1322 28.5622 39.2898L28.7675 39.1995C28.8684 39.4774 28.9728 39.7695 29.0755 40.0845C30.2207 43.497 30.5056 45.667 31.5269 49.8529C32.4119 53.4424 35.0403 55.977 37.6049 59.993C40.1696 64.0091 40.4068 68.6393 40.4068 68.6393V69.0995L40.0988 69.1614C39.4684 69.2951 38.9024 69.6398 38.4944 70.1386C38.0863 70.6374 37.8606 71.2605 37.8545 71.9049L37.8439 77.1971C37.8431 77.6107 37.9335 78.0193 38.1087 78.394C38.2839 78.7686 38.5396 79.1 38.8575 79.3645C39.1755 79.629 39.5478 79.8202 39.9481 79.9243C40.3483 80.0285 40.7666 80.0431 41.1732 79.9671C46.2285 79.0613 51.4055 79.0727 56.4568 80.0007C56.8631 80.0785 57.2815 80.0658 57.6823 79.9634C58.083 79.861 58.4563 79.6714 58.7754 79.4083C59.0945 79.1451 59.3517 78.8147 59.5285 78.4408C59.7054 78.0669 59.7975 77.6585 59.7985 77.2449L59.8109 71.9527C59.8092 71.3077 59.5874 70.6827 59.1822 70.1809C58.7769 69.6792 58.2126 69.3308 57.5825 69.1933L57.5223 69.1809C57.5931 68.4004 58.0055 65.549 58.6197 63.5808C59.3277 61.3223 60.2516 58.3665 60.6463 55.0708C61.041 51.7751 61.464 46.9414 61.5826 41.0775C61.6198 39.2686 61.6658 38.3093 61.6693 37.3198C61.6729 35.8525 60.5525 34.5835 59.0852 34.5074Z" fill="url(#paint0_linear_14573_20500)"/>
<path d="M32.8146 17.6486C37.7023 17.6486 41.6645 13.6864 41.6645 8.79878C41.6645 3.91117 37.7023 -0.0510254 32.8146 -0.0510254C27.927 -0.0510254 23.9648 3.91117 23.9648 8.79878C23.9648 13.6864 27.927 17.6486 32.8146 17.6486Z" fill="#1464A5"/>
<path d="M36.978 0.98877L28.6592 16.6193C30.7319 17.7224 33.158 17.957 35.4037 17.2714C37.6494 16.5858 39.5307 15.0362 40.6339 12.9634C41.737 10.8907 41.9716 8.46464 41.286 6.21895C40.6004 3.97327 39.0507 2.09191 36.978 0.98877Z" fill="url(#paint1_linear_14573_20500)"/>
<path d="M50.4117 25.7758C49.8409 25.7454 49.2749 25.8951 48.7937 26.2038C48.3125 26.5125 47.9405 26.9646 47.7302 27.4962C47.7002 27.5741 47.6718 27.5706 47.6789 27.4856C47.686 27.4006 47.6878 27.3422 47.6878 27.2697C47.6905 26.5601 47.4424 25.8724 46.9873 25.3281C46.5322 24.7837 45.8994 24.4177 45.2006 24.2947C44.5018 24.1716 43.782 24.2995 43.1683 24.6557C42.5547 25.0119 42.0866 25.5735 41.8469 26.2413C41.8274 26.298 41.8009 26.2944 41.8044 26.2307C41.808 26.167 41.8044 26.1404 41.8044 26.0944C41.804 25.3683 41.5381 24.6674 41.0567 24.1237C40.5754 23.5801 39.9119 23.2312 39.1911 23.1429C38.4704 23.0545 37.7423 23.2328 37.1438 23.6441C36.5454 24.0554 36.1181 24.6713 35.9423 25.3758C35.9401 25.388 35.9336 25.399 35.9241 25.407C35.9145 25.4149 35.9025 25.4193 35.8901 25.4193C35.8777 25.4193 35.8657 25.4149 35.8561 25.407C35.8466 25.399 35.8401 25.388 35.8379 25.3758C35.7565 23.5439 35.645 20.4659 35.5742 18.2376C35.4927 15.6428 35.3795 11.6975 35.3033 9.68333C35.2813 9.08971 35.0327 8.52708 34.6088 8.111C34.1848 7.69493 33.6176 7.457 33.0236 7.4461C32.4198 7.43378 31.8349 7.65685 31.3925 8.06811C30.9502 8.47937 30.6853 9.04656 30.6537 9.6497C30.5245 12.0976 30.2997 16.8481 30.0979 19.4517C29.8023 23.3014 29.128 32.3725 28.8235 33.8557C28.5191 35.3389 28.1279 35.6044 27.9244 34.7743C27.4576 33.071 26.8263 31.4172 26.0394 29.8361C25.0447 27.8307 23.8588 26.744 22.5667 25.7068C21.641 24.9705 19.3719 25.0678 18.7507 25.7705C18.1294 26.4732 19.2604 27.9281 20.4038 31.3423C21.5472 34.7566 21.8339 36.9248 22.8552 41.109C23.7313 44.7002 26.3686 47.2331 28.9333 51.2491C31.4979 55.2651 31.7351 59.8954 31.7351 59.8954V61.0529C31.7351 61.0529 48.8825 60.7715 48.8436 60.6458C48.8046 60.5202 49.2436 57.1059 49.948 54.8439C50.6525 52.5819 51.5799 49.6314 51.9746 46.3339C52.3693 43.0365 52.7923 38.2045 52.9109 32.3424C52.9481 30.5335 52.9941 29.5724 52.9977 28.5847C52.9994 27.1228 51.879 25.8519 50.4117 25.7758Z" fill="#F7B27F"/>
<path fill-rule="evenodd" clip-rule="evenodd" d="M29.1689 68.4625C29.1682 68.8762 29.2587 69.2849 29.4338 69.6596C29.609 70.0343 29.8647 70.3657 30.1826 70.6304C30.5005 70.895 30.8728 71.0864 31.273 71.1907C31.6733 71.2951 32.0916 71.31 32.4982 71.2343C37.5533 70.3262 42.7308 70.3376 47.7819 71.2679C48.1881 71.3454 48.6064 71.3325 49.007 71.2299C49.4077 71.1274 49.7808 70.9378 50.0998 70.6747C50.4189 70.4116 50.676 70.0814 50.853 69.7076C51.0299 69.3338 51.1223 68.9256 51.1236 68.5121L51.1359 63.2199C51.1342 62.575 50.9124 61.9499 50.5072 61.4482C50.102 60.9464 49.5377 60.598 48.9076 60.4605C43.1448 59.2297 37.1885 59.2164 31.4203 60.4216C30.79 60.5565 30.2246 60.9025 29.8175 61.4023C29.4104 61.902 29.186 62.5258 29.1813 63.1703L29.1689 68.4625Z" fill="#2DCCCD"/>
<path d="M46.9975 67.674C47.975 67.674 48.7675 66.8815 48.7675 65.904C48.7675 64.9265 47.975 64.134 46.9975 64.134C46.02 64.134 45.2275 64.9265 45.2275 65.904C45.2275 66.8815 46.02 67.674 46.9975 67.674Z" fill="#02A5A5"/>
<path d="M19.8815 30.5581C20.5311 30.2767 21.963 29.6253 21.8781 29.3705C21.7683 29.0395 21.7311 28.4536 21.1807 27.3527C20.6302 26.2518 19.6408 26.0695 19.0904 26.1438C18.8279 26.1854 18.5724 26.2628 18.3311 26.3739C18.3842 27.1385 19.0957 28.3988 19.8815 30.5581Z" fill="#FACBA9"/>
<path d="M34.5534 10.3583C34.5764 10.1813 34.6224 8.80777 34.6578 7.96881C34.4872 7.68425 34.2487 7.4465 33.9635 7.27689C33.6784 7.10729 33.3556 7.01115 33.0241 6.9971C32.7141 6.99533 32.4081 7.06708 32.1312 7.20645C31.8543 7.34583 31.6144 7.54886 31.4311 7.79889C31.3869 8.61485 31.332 10.0698 31.332 10.1883C31.332 10.383 32.0896 10.9884 33.0188 10.9954C34.0118 11.0025 34.5091 10.6769 34.5534 10.3583Z" fill="#FACBA9"/>
</g>
<defs>
<linearGradient id="paint0_linear_14573_20500" x1="27.3144" y1="15.0449" x2="60.9543" y2="78.3139" gradientUnits="userSpaceOnUse">
<stop stop-color="#192647" stop-opacity="0.5"/>
<stop offset="1" stop-color="#192647" stop-opacity="0"/>
</linearGradient>
<linearGradient id="paint1_linear_14573_20500" x1="41.6649" y1="9.31998" x2="28.668" y2="9.31998" gradientUnits="userSpaceOnUse">
<stop stop-color="#043263" stop-opacity="0.6"/>
<stop offset="1" stop-color="#043263" stop-opacity="0"/>
</linearGradient>
<clipPath id="clip0_14573_20500">
<rect width="80" height="80" fill="white"/>
</clipPath>
</defs>
</svg>
