<svg width="28" height="32" viewBox="0 0 28 32" fill="none" xmlns="http://www.w3.org/2000/svg">
<path d="M24.9112 23.7152V9.95469L21.4195 6.46298L18.2294 3.28076H4.8577C4.80297 3.28076 4.75049 3.3025 4.7118 3.34119C4.67311 3.37989 4.65137 3.43237 4.65137 3.48709V29.667C4.65137 29.6941 4.6567 29.7209 4.66707 29.746C4.67744 29.771 4.69264 29.7937 4.7118 29.8129C4.73096 29.8321 4.7537 29.8472 4.77874 29.8576C4.80377 29.868 4.8306 29.8733 4.8577 29.8733H18.8801C19.4936 30.8804 20.4821 31.6025 21.628 31.8808C22.1954 32.0186 22.7844 32.0433 23.3614 31.9535C23.9383 31.8637 24.4919 31.6611 24.9906 31.3573C25.4893 31.0535 25.9232 30.6545 26.2676 30.183C26.6121 29.7115 26.8603 29.1768 26.9981 28.6094C27.1359 28.042 27.1606 27.453 27.0708 26.876C26.9809 26.2991 26.7783 25.7455 26.4746 25.2468C26.0849 24.6174 25.5485 24.0919 24.9112 23.7152Z" fill="url(#paint0_linear_5978_59309)"/>
<path d="M20.9543 6.68346L14.2645 -0.00634766H1.09915C1.04085 -0.00436963 0.985476 0.0196758 0.944227 0.0609253C0.902977 0.102175 0.878931 0.15755 0.876953 0.215852V26.1498C0.876914 26.2031 0.89756 26.2544 0.934554 26.2929C0.971548 26.3314 1.02201 26.354 1.07535 26.3561H20.748C20.8013 26.3561 20.8527 26.3355 20.8911 26.2985C20.9296 26.2615 20.9522 26.211 20.9543 26.1577V6.68346Z" fill="#CDEEFE"/>
<path d="M15.4236 1.22363L1.79004 26.356L20.4072 26.4274H20.7484C20.8018 26.4275 20.8531 26.4068 20.8916 26.3698C20.9301 26.3329 20.9527 26.2824 20.9548 26.2291V6.75482L15.4236 1.22363Z" fill="url(#paint1_linear_5978_59309)"/>
<path d="M10.3052 3.4775H3.54399C3.49882 3.47654 3.45431 3.46641 3.41317 3.44771C3.37204 3.42902 3.33513 3.40215 3.3047 3.36875C3.27427 3.33535 3.25095 3.29611 3.23615 3.25342C3.22135 3.21072 3.21539 3.16546 3.21863 3.12039C3.2225 3.03535 3.25802 2.95482 3.31822 2.89462C3.37842 2.83442 3.45895 2.7989 3.54399 2.79503H10.3052C10.3952 2.79278 10.4826 2.82536 10.5491 2.88599C10.6157 2.94661 10.6562 3.03059 10.6623 3.12039C10.6645 3.16522 10.6577 3.21002 10.6425 3.25224C10.6273 3.29446 10.6039 3.33327 10.5737 3.36644C10.5435 3.39961 10.507 3.42649 10.4664 3.44555C10.4258 3.46461 10.3818 3.47547 10.337 3.4775H10.3052Z" fill="#49A5E6"/>
<path d="M10.3052 5.38961H3.54399C3.49882 5.38865 3.45431 5.37852 3.41317 5.35982C3.37204 5.34113 3.33513 5.31426 3.3047 5.28086C3.27427 5.24746 3.25095 5.20822 3.23615 5.16553C3.22135 5.12283 3.21539 5.07757 3.21863 5.03251C3.2225 4.94746 3.25802 4.86693 3.31822 4.80673C3.37842 4.74654 3.45895 4.71101 3.54399 4.70714H10.3052C10.3952 4.70489 10.4826 4.73747 10.5491 4.7981C10.6157 4.85872 10.6562 4.9427 10.6623 5.03251C10.6645 5.07733 10.6577 5.12213 10.6425 5.16435C10.6273 5.20657 10.6039 5.24538 10.5737 5.27855C10.5435 5.31172 10.507 5.3386 10.4664 5.35766C10.4258 5.37672 10.3818 5.38758 10.337 5.38961H10.3052Z" fill="#49A5E6"/>
<path d="M8.16136 23.1419H3.51897C3.42847 23.1419 3.34167 23.106 3.27768 23.042C3.21369 22.978 3.17773 22.8912 3.17773 22.8007C3.17773 22.7102 3.21369 22.6234 3.27768 22.5594C3.34167 22.4954 3.42847 22.4595 3.51897 22.4595H8.16136C8.20617 22.4595 8.25054 22.4683 8.29195 22.4854C8.33335 22.5026 8.37096 22.5277 8.40265 22.5594C8.43434 22.5911 8.45947 22.6287 8.47662 22.6701C8.49377 22.7115 8.5026 22.7559 8.5026 22.8007C8.5026 22.8455 8.49377 22.8899 8.47662 22.9313C8.45947 22.9727 8.43434 23.0103 8.40265 23.042C8.37096 23.0737 8.33335 23.0988 8.29195 23.116C8.25054 23.1331 8.20617 23.1419 8.16136 23.1419Z" fill="#49A5E6"/>
<path d="M14.5187 6.68345H20.9546L14.2648 -0.00634766V6.43745C14.2637 6.46937 14.2691 6.50119 14.2806 6.53099C14.2921 6.5608 14.3094 6.58799 14.3316 6.61094C14.3539 6.6339 14.3805 6.65215 14.4099 6.6646C14.4393 6.67706 14.4709 6.68347 14.5029 6.68345H14.5187Z" fill="#1973B8"/>
<path d="M10.9164 12.492H5.52009C5.47526 12.49 5.43127 12.4791 5.39065 12.4601C5.35002 12.441 5.31355 12.4141 5.28333 12.381C5.25311 12.3478 5.22973 12.309 5.21452 12.2668C5.19932 12.2246 5.19259 12.1798 5.19472 12.1349C5.19859 12.0499 5.23412 11.9694 5.29431 11.9092C5.35451 11.849 5.43504 11.8134 5.52009 11.8096H10.9164C10.9612 11.8116 11.0052 11.8225 11.0458 11.8415C11.0864 11.8606 11.1229 11.8875 11.1531 11.9206C11.1833 11.9538 11.2067 11.9926 11.2219 12.0348C11.2371 12.0771 11.2439 12.1219 11.2417 12.1667C11.2379 12.2517 11.2023 12.3322 11.1421 12.3924C11.0819 12.4526 11.0014 12.4882 10.9164 12.492Z" fill="#49A5E6"/>
<path d="M10.9164 14.4051H5.52009C5.47526 14.4031 5.43127 14.3922 5.39065 14.3732C5.35002 14.3541 5.31355 14.3272 5.28333 14.2941C5.25311 14.2609 5.22973 14.2221 5.21452 14.1799C5.19932 14.1376 5.19259 14.0928 5.19472 14.048C5.19859 13.963 5.23412 13.8824 5.29431 13.8222C5.35451 13.7621 5.43504 13.7265 5.52009 13.7227H10.9164C10.9612 13.7247 11.0052 13.7356 11.0458 13.7546C11.0864 13.7737 11.1229 13.8006 11.1531 13.8337C11.1833 13.8669 11.2067 13.9057 11.2219 13.9479C11.2371 13.9901 11.2439 14.0349 11.2417 14.0798C11.2379 14.1648 11.2023 14.2453 11.1421 14.3055C11.0819 14.3657 11.0014 14.4013 10.9164 14.4051Z" fill="#49A5E6"/>
<path d="M10.9152 16.3177H5.51897C5.42847 16.3177 5.34167 16.2818 5.27768 16.2178C5.21368 16.1538 5.17773 16.067 5.17773 15.9765C5.17773 15.886 5.21368 15.7992 5.27768 15.7352C5.34167 15.6712 5.42847 15.6353 5.51897 15.6353H10.9152C11.0058 15.6353 11.0925 15.6712 11.1565 15.7352C11.2205 15.7992 11.2565 15.886 11.2565 15.9765C11.2565 16.067 11.2205 16.1538 11.1565 16.2178C11.0925 16.2818 11.0058 16.3177 10.9152 16.3177Z" fill="#49A5E6"/>
<path d="M10.9153 18.2303H5.51897C5.42847 18.2303 5.34167 18.1944 5.27768 18.1304C5.21368 18.0664 5.17773 17.9796 5.17773 17.8891C5.17773 17.7986 5.21368 17.7118 5.27768 17.6478C5.34167 17.5838 5.42847 17.5479 5.51897 17.5479H10.9153C10.9601 17.5499 11.0041 17.5607 11.0447 17.5798C11.0853 17.5989 11.1218 17.6257 11.152 17.6589C11.1822 17.6921 11.2056 17.7309 11.2208 17.7731C11.236 17.8153 11.2427 17.8601 11.2406 17.905C11.2367 17.99 11.2012 18.0705 11.141 18.1307C11.0808 18.1909 11.0003 18.2264 10.9153 18.2303Z" fill="#49A5E6"/>
<path d="M17.6059 9.82617H3.54378C3.49897 9.82617 3.45459 9.835 3.41319 9.85215C3.37179 9.8693 3.33417 9.89443 3.30249 9.92612C3.2708 9.9578 3.24566 9.99542 3.22852 10.0368C3.21137 10.0782 3.20254 10.1226 3.20254 10.1674V19.7299C3.20034 19.7747 3.2074 19.8193 3.22326 19.8612C3.23913 19.9031 3.26347 19.9412 3.29476 19.9733C3.32604 20.0053 3.3636 20.0305 3.40508 20.0474C3.44657 20.0642 3.49108 20.0723 3.53584 20.0712H17.6059C17.6503 20.0722 17.6945 20.0644 17.7358 20.0481C17.7772 20.0318 17.8149 20.0075 17.8467 19.9764C17.8785 19.9453 17.9037 19.9082 17.921 19.8673C17.9382 19.8263 17.9471 19.7823 17.9471 19.7379V10.1674C17.9481 10.123 17.9403 10.0788 17.924 10.0374C17.9078 9.99606 17.8834 9.95838 17.8523 9.92658C17.8213 9.89479 17.7842 9.86952 17.7432 9.85228C17.7022 9.83504 17.6582 9.82616 17.6138 9.82617H17.6059ZM3.87708 10.5086H12.5587V19.3887H3.88501L3.87708 10.5086ZM17.2646 19.3887H13.2412V10.5086H17.2646V19.3887Z" fill="#49A5E6"/>
<path d="M23.9068 24.2848C23.9084 25.1782 23.6449 26.052 23.1497 26.7956C22.6545 27.5392 21.9498 28.1192 21.1249 28.4622C20.2999 28.8052 19.3918 28.8957 18.5153 28.7224C17.6389 28.5491 16.8336 28.1196 16.2013 27.4885C15.569 26.8573 15.1382 26.0527 14.9633 25.1766C14.7885 24.3005 14.8774 23.3922 15.2189 22.5666C15.5605 21.7411 16.1392 21.0354 16.8819 20.5389C17.6247 20.0424 18.498 19.7773 19.3914 19.7773C20.5876 19.7773 21.7349 20.252 22.5815 21.0971C23.428 21.9422 23.9047 23.0886 23.9068 24.2848Z" fill="#28AD68"/>
<path d="M18.4626 26.2605C18.3727 26.2588 18.2872 26.2218 18.2245 26.1574L16.8358 24.7686C16.7708 24.7032 16.7344 24.6148 16.7344 24.5226C16.7344 24.4304 16.7708 24.342 16.8358 24.2766H16.8437C16.8747 24.2449 16.9118 24.2198 16.9526 24.2026C16.9935 24.1854 17.0374 24.1766 17.0818 24.1766C17.1261 24.1766 17.17 24.1854 17.2109 24.2026C17.2518 24.2198 17.2888 24.2449 17.3198 24.2766L18.4626 25.4193L21.4702 22.4117C21.5324 22.3435 21.6191 22.3027 21.7113 22.2983C21.8035 22.2938 21.8937 22.326 21.9622 22.3879C22.0309 22.4515 22.0719 22.5395 22.0764 22.633C22.0808 22.7265 22.0484 22.818 21.986 22.8879L21.9622 22.9037L18.7086 26.1574C18.6435 26.223 18.555 26.2601 18.4626 26.2605Z" fill="white"/>
<defs>
<linearGradient id="paint0_linear_5978_59309" x1="4.41806" y1="0.351692" x2="22.0814" y2="33.5722" gradientUnits="userSpaceOnUse">
<stop stop-color="#192647" stop-opacity="0.5"/>
<stop offset="1" stop-color="#192647" stop-opacity="0"/>
</linearGradient>
<linearGradient id="paint1_linear_5978_59309" x1="20.9556" y1="13.8224" x2="1.79163" y2="13.8224" gradientUnits="userSpaceOnUse">
<stop stop-color="#043263" stop-opacity="0.1"/>
<stop offset="1" stop-color="#043263" stop-opacity="0"/>
</linearGradient>
</defs>
</svg>
