<svg width="40" height="40" viewBox="0 0 40 40" fill="none" xmlns="http://www.w3.org/2000/svg">
<g clip-path="url(#clip0_13997_47877)">
<path d="M39.8766 22.2306L36.553 20.4611L38.4941 16.8114C38.7512 16.3276 38.8056 15.7616 38.6454 15.2377C38.4852 14.7138 38.1235 14.275 37.6399 14.0178L21.1396 5.24529C20.6558 4.9882 20.0898 4.93378 19.5659 5.09397C19.042 5.25417 18.6032 5.61587 18.346 6.09954L10.3882 21.0566C10.1544 21.3721 10.0154 21.7477 9.98735 22.1394C9.95935 22.5311 10.0436 22.9226 10.2301 23.2682L4.33206 34.3654C4.29871 34.4284 4.29171 34.5021 4.31259 34.5703C4.33347 34.6385 4.38052 34.6956 4.44345 34.7292L6.34419 35.7415C6.37544 35.7582 6.40967 35.7685 6.44492 35.7719C6.48017 35.7753 6.51575 35.7718 6.54962 35.7614C6.58349 35.7511 6.61499 35.7341 6.64232 35.7116C6.66965 35.6891 6.69227 35.6614 6.70888 35.6301L14.3864 21.1905L25.409 27.0535L22.5004 32.5248C22.2434 33.0086 22.1889 33.5746 22.3491 34.0985C22.5093 34.6224 22.871 35.0612 23.3547 35.3184L30.8103 39.2825C30.8734 39.3158 30.9471 39.3228 31.0152 39.302C31.0834 39.2811 31.1406 39.234 31.1741 39.1711L39.9879 22.5944C40.0213 22.5314 40.0283 22.4577 40.0074 22.3895C39.9865 22.3213 39.9395 22.2642 39.8766 22.2306Z" fill="url(#paint0_linear_13997_47877)"/>
<path d="M8.72106 16.1565C8.24018 15.8937 7.67461 15.8327 7.14877 15.987C6.62293 16.1412 6.17989 16.498 5.91712 16.9789C5.65434 17.4597 5.59336 18.0253 5.74758 18.5511C5.9018 19.077 6.2586 19.52 6.73948 19.7828L6.7808 19.8044L8.72106 16.1565Z" fill="#043263"/>
<path d="M8.31931 14.4231L10.6988 15.687L2.39164 31.3168C2.37502 31.3481 2.3524 31.3758 2.32507 31.3983C2.29775 31.4209 2.26625 31.4378 2.23238 31.4481C2.1985 31.4585 2.16293 31.462 2.12768 31.4586C2.09243 31.4552 2.05819 31.4449 2.02694 31.4282L0.123508 30.4159C0.0922329 30.3993 0.0645404 30.3766 0.0420132 30.3493C0.019486 30.322 0.00256572 30.2905 -0.00777907 30.2566C-0.0181239 30.2227 -0.0216904 30.1872 -0.0182755 30.1519C-0.0148607 30.1167 -0.0045311 30.0824 0.0121228 30.0512L8.31931 14.4267V14.4231Z" fill="#2DCCCD"/>
<path d="M26.28 12.9794L35.5591 17.9136C35.6209 17.9471 35.6671 18.0034 35.6879 18.0706C35.7087 18.1377 35.7025 18.2103 35.6705 18.2729L26.8567 34.854C26.8232 34.9169 26.766 34.964 26.6978 34.9849C26.6296 35.0058 26.5559 34.9987 26.4929 34.9654L19.0373 31.0013C18.5536 30.7441 18.1919 30.3053 18.0317 29.7814C17.8715 29.2575 17.9259 28.6915 18.183 28.2077L26.28 12.9794Z" fill="#004481"/>
<path d="M26.0713 27.7233C26.3283 27.2395 26.3828 26.6734 26.2226 26.1496C26.0624 25.6257 25.7007 25.1869 25.217 24.9296L8.7203 16.1563C8.48078 16.0288 8.21849 15.9497 7.94842 15.9236C7.67836 15.8975 7.40579 15.9249 7.14629 16.0041C6.8868 16.0834 6.64545 16.213 6.43603 16.3855C6.22662 16.558 6.05323 16.7701 5.92578 17.0096L14.0273 1.78216C14.2845 1.29849 14.7233 0.936785 15.2472 0.776589C15.7711 0.616394 16.3371 0.670821 16.8209 0.927903L33.3176 9.6995C33.8013 9.95674 34.163 10.3955 34.3232 10.9194C34.4834 11.4433 34.4289 12.0094 34.1718 12.4931L26.0713 27.7233Z" fill="#1464A5"/>
<path d="M24.2496 28.8184C25.3906 28.8184 26.3156 27.8934 26.3156 26.7524C26.3156 25.6114 25.3906 24.6864 24.2496 24.6864C23.1086 24.6864 22.1836 25.6114 22.1836 26.7524C22.1836 27.8934 23.1086 28.8184 24.2496 28.8184Z" fill="#043263"/>
<path d="M23.2777 28.5761L20.9781 27.3535C20.7386 27.226 20.4763 27.147 20.2062 27.1209C19.9362 27.0948 19.6636 27.1222 19.4041 27.2014C19.1446 27.2806 18.9033 27.4102 18.6938 27.5827C18.4844 27.7553 18.311 27.9673 18.1836 28.2069L21.094 22.7346L25.2179 24.9273L23.2777 28.5761Z" fill="#043263"/>
<path d="M33.3146 9.69932L24.2421 4.87292L16.1406 20.1013L25.2176 24.9277C25.7013 25.1849 26.063 25.6237 26.2232 26.1476C26.3834 26.6715 26.329 27.2375 26.0719 27.7213L34.1689 12.4938C34.2963 12.2543 34.3754 11.992 34.4015 11.722C34.4276 11.4519 34.4002 11.1793 34.321 10.9198C34.2418 10.6603 34.1122 10.419 33.9397 10.2096C33.7671 10.0002 33.5551 9.82677 33.3155 9.69932H33.3146Z" fill="url(#paint1_linear_13997_47877)"/>
</g>
<defs>
<linearGradient id="paint0_linear_13997_47877" x1="11.4931" y1="6.09325" x2="30.2309" y2="41.3341" gradientUnits="userSpaceOnUse">
<stop stop-color="#192647" stop-opacity="0.5"/>
<stop offset="1" stop-color="#192647" stop-opacity="0"/>
</linearGradient>
<linearGradient id="paint1_linear_13997_47877" x1="34.3581" y1="16.3144" x2="16.1305" y2="16.2806" gradientUnits="userSpaceOnUse">
<stop stop-color="#043263" stop-opacity="0.4"/>
<stop offset="1" stop-color="#043263" stop-opacity="0"/>
</linearGradient>
<clipPath id="clip0_13997_47877">
<rect width="40" height="40" fill="white"/>
</clipPath>
</defs>
</svg>
