<svg width="32" height="32" viewBox="0 0 32 32" fill="none" xmlns="http://www.w3.org/2000/svg">
<g clip-path="url(#clip0_2258_107958)">
<path d="M31.2725 6.39975L18.5132 3.54971C18 3.4346 17.4676 3.4346 16.9544 3.54971L4.19505 6.39975C4.13059 6.41415 4.07032 6.44323 4.01893 6.48473C3.96754 6.52623 3.92643 6.57903 3.89878 6.63902C3.87113 6.69901 3.85771 6.76456 3.85954 6.83059C3.86137 6.89662 3.87842 6.96133 3.90935 7.01969L7.08739 12.9881C7.17457 13.152 7.31253 13.2831 7.48058 13.3619C7.64862 13.4407 7.83768 13.4628 8.01938 13.425L17.0064 11.5603C17.4853 11.4612 17.9795 11.4612 18.4584 11.5603L27.4475 13.4257C27.6292 13.4635 27.8183 13.4414 27.9863 13.3626C28.1543 13.2838 28.2923 13.1527 28.3795 12.9888L31.5568 7.02038C31.5881 6.96211 31.6054 6.89741 31.6074 6.83134C31.6095 6.76526 31.5962 6.69961 31.5687 6.63951C31.5412 6.57941 31.5001 6.52649 31.4487 6.4849C31.3973 6.44331 31.337 6.41417 31.2725 6.39975Z" fill="url(#paint0_linear_2258_107958)"/>
<path d="M26.7665 14.8632L18.5146 13.0152C18 12.9001 17.4662 12.9001 16.9516 13.0152L8.69964 14.8632C8.63514 14.8776 8.57485 14.9068 8.52347 14.9484C8.47209 14.99 8.431 15.0428 8.40342 15.1029C8.37583 15.163 8.3625 15.2286 8.36444 15.2947C8.36639 15.3608 8.38357 15.4255 8.41464 15.4838L11.7688 21.783C11.8592 21.953 12.004 22.0877 12.18 22.1655C12.356 22.2433 12.5531 22.2598 12.7396 22.2123L16.8587 21.1721C17.4349 21.0265 18.0382 21.0265 18.6145 21.1721L22.7335 22.2123C22.92 22.2598 23.1171 22.2433 23.2931 22.1655C23.4692 22.0877 23.614 21.953 23.7043 21.783L27.0585 15.4838C27.0895 15.425 27.1065 15.3598 27.108 15.2933C27.1096 15.2268 27.0956 15.1609 27.0673 15.1007C27.039 15.0405 26.9971 14.9877 26.9449 14.9465C26.8927 14.9053 26.8316 14.8768 26.7665 14.8632Z" fill="url(#paint1_linear_2258_107958)"/>
<path d="M22.1136 23.6595L18.7372 22.6713C18.0807 22.479 17.3827 22.479 16.7262 22.6713L13.3499 23.6595C13.2886 23.6774 13.2321 23.7087 13.1845 23.7511C13.1369 23.7935 13.0994 23.846 13.0746 23.9048C13.0498 23.9636 13.0384 24.0272 13.0413 24.0909C13.0442 24.1546 13.0612 24.2169 13.0912 24.2732L16.9745 31.564C17.0477 31.7014 17.1568 31.8162 17.2903 31.8963C17.4237 31.9764 17.5764 32.0187 17.7321 32.0187C17.8877 32.0187 18.0404 31.9764 18.1738 31.8963C18.3073 31.8162 18.4164 31.7014 18.4896 31.564L22.3729 24.2732C22.4029 24.2168 22.4199 24.1545 22.4227 24.0908C22.4255 24.027 22.4141 23.9634 22.3893 23.9046C22.3644 23.8458 22.3268 23.7933 22.2791 23.7509C22.2314 23.7085 22.1748 23.6773 22.1136 23.6595Z" fill="url(#paint2_linear_2258_107958)"/>
<path d="M24.9171 9.51058L28.0944 3.54214C28.1263 3.48369 28.1442 3.41861 28.1465 3.35207C28.1489 3.28552 28.1358 3.21934 28.1081 3.15876C28.0804 3.09819 28.039 3.0449 27.9872 3.00311C27.9353 2.96133 27.8745 2.9322 27.8094 2.91804L15.0501 0.0679982C14.5368 -0.0464291 14.0046 -0.0464291 13.4912 0.0679982L0.73194 2.91804C0.666875 2.9322 0.606005 2.96133 0.554158 3.00311C0.502312 3.0449 0.460917 3.09819 0.433255 3.15876C0.405594 3.21934 0.392429 3.28552 0.394804 3.35207C0.397179 3.41861 0.415028 3.48369 0.446936 3.54214L3.62428 9.51058C3.71163 9.67426 3.84962 9.80528 4.01761 9.88402C4.18561 9.96277 4.37458 9.98502 4.55627 9.94745L13.5433 8.08279C14.0222 7.98362 14.5164 7.98362 14.9953 8.08279L23.9851 9.94745C24.1668 9.98502 24.3557 9.96277 24.5237 9.88402C24.6917 9.80528 24.8297 9.67426 24.9171 9.51058Z" fill="#1464A5"/>
<path d="M20.2328 18.3059L23.587 12.006C23.6181 11.9477 23.6352 11.883 23.6372 11.8169C23.6391 11.7508 23.6258 11.6852 23.5982 11.6251C23.5706 11.5651 23.5295 11.5122 23.4782 11.4706C23.4268 11.429 23.3665 11.3999 23.302 11.3854L15.0507 9.53946C14.5361 9.42435 14.0024 9.42435 13.4877 9.53946L5.23578 11.3868C5.17128 11.4012 5.11099 11.4304 5.0596 11.472C5.00822 11.5136 4.96714 11.5664 4.93955 11.6265C4.91197 11.6866 4.89863 11.7522 4.90058 11.8183C4.90252 11.8843 4.9197 11.9491 4.95077 12.0074L8.30564 18.3059C8.39591 18.4759 8.54074 18.6106 8.71682 18.6884C8.89291 18.7661 9.09002 18.7823 9.27645 18.7345L13.3955 17.6943C13.9717 17.5487 14.5751 17.5487 15.1513 17.6943L19.2703 18.7345C19.4556 18.7803 19.6508 18.763 19.8251 18.6854C19.9994 18.6078 20.1429 18.4743 20.2328 18.3059Z" fill="#2DCCCD"/>
<path d="M9.63044 20.7949L13.5137 28.0858C13.5869 28.2233 13.696 28.3383 13.8295 28.4185C13.9631 28.4987 14.1159 28.5411 14.2716 28.5411C14.4274 28.5411 14.5802 28.4987 14.7137 28.4185C14.8472 28.3383 14.9564 28.2233 15.0296 28.0858L18.9128 20.7949C18.9429 20.7388 18.9601 20.6766 18.9631 20.6129C18.9661 20.5492 18.9548 20.4857 18.9301 20.4269C18.9053 20.3682 18.8678 20.3157 18.8202 20.2733C18.7726 20.2309 18.7161 20.1997 18.6549 20.1819L15.2785 19.1931C14.622 19.0007 13.9241 19.0007 13.2675 19.1931L9.89117 20.1819C9.82971 20.1994 9.77293 20.2304 9.725 20.2726C9.67708 20.3149 9.63922 20.3673 9.61421 20.4261C9.58921 20.4849 9.57768 20.5485 9.58049 20.6124C9.5833 20.6762 9.60037 20.7386 9.63044 20.7949Z" fill="#5BBEFF"/>
<path d="M18.6499 20.1817L15.9864 19.4016L12.4395 26.0732L13.5108 28.0842C13.584 28.2217 13.6931 28.3367 13.8267 28.4169C13.9602 28.4971 14.113 28.5395 14.2687 28.5395C14.4245 28.5395 14.5773 28.4971 14.7108 28.4169C14.8444 28.3367 14.9535 28.2217 15.0267 28.0842L18.9099 20.7933C18.9398 20.7371 18.9567 20.6749 18.9594 20.6112C18.9621 20.5476 18.9506 20.4842 18.9256 20.4256C18.9007 20.367 18.863 20.3147 18.8153 20.2725C18.7676 20.2303 18.7111 20.1993 18.6499 20.1817Z" fill="url(#paint3_linear_2258_107958)"/>
<path d="M23.3032 11.3851L16.9485 9.96289L12.7539 17.8529L13.3912 17.6913C13.9674 17.5457 14.5708 17.5457 15.147 17.6913L19.266 18.7314C19.4524 18.7793 19.6496 18.763 19.8256 18.6853C20.0017 18.6076 20.1465 18.4729 20.2368 18.3029L23.591 12.003C23.6215 11.9446 23.6382 11.8799 23.6397 11.814C23.6412 11.7481 23.6275 11.6828 23.5996 11.623C23.5718 11.5633 23.5306 11.5107 23.4792 11.4695C23.4278 11.4282 23.3676 11.3994 23.3032 11.3851Z" fill="url(#paint4_linear_2258_107958)"/>
<path d="M27.8091 2.9216L17.5198 0.623535L13.5547 8.08288C14.0298 7.9851 14.5198 7.9851 14.995 8.08288L23.9847 9.94754C24.1664 9.98511 24.3554 9.96286 24.5234 9.88411C24.6914 9.80536 24.8294 9.67435 24.9167 9.51067L28.0941 3.54223C28.1253 3.48391 28.1426 3.41916 28.1446 3.35304C28.1466 3.28693 28.1333 3.22124 28.1057 3.16113C28.0781 3.10102 28.0369 3.04812 27.9855 3.00656C27.934 2.965 27.8736 2.93592 27.8091 2.9216Z" fill="url(#paint5_linear_2258_107958)"/>
</g>
<defs>
<linearGradient id="paint0_linear_2258_107958" x1="13.4955" y1="-9.73551" x2="81.6674" y2="35.0758" gradientUnits="userSpaceOnUse">
<stop stop-color="#082146" stop-opacity="0.5"/>
<stop offset="1" stop-color="#082146" stop-opacity="0"/>
</linearGradient>
<linearGradient id="paint1_linear_2258_107958" x1="5.07242" y1="-38.633" x2="77.3861" y2="27.0107" gradientUnits="userSpaceOnUse">
<stop stop-color="#082146" stop-opacity="0.5"/>
<stop offset="1" stop-color="#082146" stop-opacity="0"/>
</linearGradient>
<linearGradient id="paint2_linear_2258_107958" x1="6.6714" y1="3.26952" x2="22.9992" y2="33.9772" gradientUnits="userSpaceOnUse">
<stop stop-color="#082146" stop-opacity="0.5"/>
<stop offset="1" stop-color="#082146" stop-opacity="0"/>
</linearGradient>
<linearGradient id="paint3_linear_2258_107958" x1="12.4395" y1="23.9714" x2="18.9585" y2="23.9714" gradientUnits="userSpaceOnUse">
<stop offset="0.01" stop-color="#043263" stop-opacity="0"/>
<stop offset="1" stop-color="#043263" stop-opacity="0.4"/>
</linearGradient>
<linearGradient id="paint4_linear_2258_107958" x1="12.7539" y1="14.3621" x2="23.6388" y2="14.3621" gradientUnits="userSpaceOnUse">
<stop stop-color="#028484" stop-opacity="0.1"/>
<stop offset="0.99" stop-color="#028484" stop-opacity="0.6"/>
</linearGradient>
<linearGradient id="paint5_linear_2258_107958" x1="13.5547" y1="5.29455" x2="28.1454" y2="5.29455" gradientUnits="userSpaceOnUse">
<stop stop-color="#072146" stop-opacity="0.1"/>
<stop offset="1" stop-color="#072146" stop-opacity="0.6"/>
</linearGradient>
<clipPath id="clip0_2258_107958">
<rect width="32" height="32" fill="white"/>
</clipPath>
</defs>
</svg>
