<svg width="30" height="36" viewBox="0 0 30 36" fill="none" xmlns="http://www.w3.org/2000/svg">
<path d="M9.12266 1.14314H9.0629L7.94441 0.0246582L6.82593 1.14314H6.79178V29.0625H18.7365C18.9474 29.0628 19.1562 29.0214 19.351 28.9408C19.5459 28.8602 19.7229 28.742 19.872 28.5929C20.0211 28.4438 20.1393 28.2668 20.2199 28.0719C20.3005 27.8771 20.3419 27.6683 20.3417 27.4574V1.15168L20.3502 1.14314L19.2232 0.0246582L18.1047 1.14314L16.9777 0.0246582L15.8592 1.14314L14.7322 0.0246582L13.6137 1.14314L12.4952 0.0246582L11.3767 1.14314L10.2582 0.0246582L9.12266 1.14314Z" fill="#BAE6E8"/>
<path d="M20.3336 13.0448H6.80077V29.0622H18.737C18.9478 29.0624 19.1566 29.021 19.3515 28.9404C19.5463 28.8599 19.7234 28.7416 19.8725 28.5925C20.0216 28.4434 20.1398 28.2664 20.2204 28.0716C20.301 27.8767 20.3423 27.6679 20.3421 27.457V27.4314" fill="url(#paint0_linear_9712_70395)"/>
<path d="M13.9181 29.063H18.7362C18.5253 29.0632 18.3165 29.0218 18.1216 28.9412C17.9268 28.8607 17.7497 28.7424 17.6006 28.5933C17.4515 28.4442 17.3333 28.2672 17.2527 28.0724C17.1721 27.8775 17.1308 27.6687 17.131 27.4578V17.4598C17.131 17.0352 16.9623 16.628 16.6621 16.3278C16.3619 16.0275 15.9547 15.8589 15.5301 15.8589C15.1055 15.8589 14.6983 16.0275 14.3981 16.3278C14.0979 16.628 13.9292 17.0352 13.9292 17.4598L13.9181 29.063Z" fill="#02A5A5"/>
<path d="M15.5257 15.8455H2.29173C1.78244 15.8461 1.2942 16.0488 0.93408 16.4089C0.573958 16.769 0.371344 17.2572 0.370667 17.7665L0.387742 31.5469H0.404818V34.5182L0.396281 34.5267L1.51476 35.6452L2.63325 34.5267L3.75173 35.6452L4.87022 34.5267L5.9887 35.6452L7.11572 34.5267L8.23421 35.6452L9.35269 34.5267L10.4712 35.6452L11.5897 34.5267H11.6494L12.7679 35.6452L13.8864 34.5267H13.912L13.9299 17.4182C13.9632 16.5387 14.6463 15.8455 15.5257 15.8455Z" fill="#BAE6E8"/>
<path d="M17.7972 4.70345H9.0372C8.91039 4.70345 8.78877 4.65308 8.69911 4.56341C8.60944 4.47375 8.55907 4.35213 8.55907 4.22532C8.55907 4.09851 8.60944 3.9769 8.69911 3.88723C8.78877 3.79757 8.91039 3.74719 9.0372 3.74719H17.7972C17.924 3.74719 18.0457 3.79757 18.1353 3.88723C18.225 3.9769 18.2754 4.09851 18.2754 4.22532C18.2754 4.35213 18.225 4.47375 18.1353 4.56341C18.0457 4.65308 17.924 4.70345 17.7972 4.70345Z" fill="#5AC4C4"/>
<path d="M17.7972 6.84713H9.0372C8.91039 6.84713 8.78877 6.79676 8.69911 6.70709C8.60944 6.61742 8.55907 6.49581 8.55907 6.369C8.55907 6.24219 8.60944 6.12058 8.69911 6.03091C8.78877 5.94124 8.91039 5.89087 9.0372 5.89087H17.7972C17.924 5.89087 18.0457 5.94124 18.1353 6.03091C18.225 6.12058 18.2754 6.24219 18.2754 6.369C18.2754 6.49581 18.225 6.61742 18.1353 6.70709C18.0457 6.79676 17.924 6.84713 17.7972 6.84713Z" fill="#5AC4C4"/>
<path d="M17.8319 8.99825H9.08039C8.95358 8.99825 8.83197 8.94788 8.74231 8.85821C8.65264 8.76855 8.60226 8.64693 8.60226 8.52012C8.60226 8.39332 8.65264 8.2717 8.74231 8.18203C8.83197 8.09237 8.95358 8.04199 9.08039 8.04199H17.8319C17.9587 8.04199 18.0803 8.09237 18.17 8.18203C18.2596 8.2717 18.31 8.39332 18.31 8.52012C18.31 8.64693 18.2596 8.76855 18.17 8.85821C18.0803 8.94788 17.9587 8.99825 17.8319 8.99825Z" fill="#5AC4C4"/>
<path d="M17.7972 11.1497H9.0372C8.91039 11.1497 8.78877 11.0994 8.69911 11.0097C8.60944 10.92 8.55907 10.7984 8.55907 10.6716C8.55907 10.5448 8.60944 10.4232 8.69911 10.3335C8.78877 10.2439 8.91039 10.1935 9.0372 10.1935H17.7972C17.924 10.1935 18.0457 10.2439 18.1353 10.3335C18.225 10.4232 18.2754 10.5448 18.2754 10.6716C18.2754 10.7984 18.225 10.92 18.1353 11.0097C18.0457 11.0994 17.924 11.1497 17.7972 11.1497Z" fill="#5AC4C4"/>
<path d="M13.9636 13.3014H9.0372C8.91039 13.3014 8.78877 13.251 8.69911 13.1613C8.60944 13.0716 8.55907 12.95 8.55907 12.8232C8.55907 12.6964 8.60944 12.5748 8.69911 12.4851C8.78877 12.3955 8.91039 12.3451 9.0372 12.3451H13.9636C14.0264 12.3451 14.0886 12.3575 14.1466 12.3815C14.2046 12.4055 14.2573 12.4407 14.3017 12.4851C14.3461 12.5295 14.3814 12.5822 14.4054 12.6403C14.4294 12.6983 14.4418 12.7604 14.4418 12.8232C14.4418 12.886 14.4294 12.9482 14.4054 13.0062C14.3814 13.0642 14.3461 13.1169 14.3017 13.1613C14.2573 13.2057 14.2046 13.2409 14.1466 13.265C14.0886 13.289 14.0264 13.3014 13.9636 13.3014Z" fill="#5AC4C4"/>
<path d="M11.4962 20.4474H2.73614C2.67335 20.4474 2.61118 20.435 2.55317 20.411C2.49516 20.3869 2.44245 20.3517 2.39805 20.3073C2.35365 20.2629 2.31844 20.2102 2.29441 20.1522C2.27038 20.0942 2.25801 20.032 2.25801 19.9692C2.25801 19.9064 2.27038 19.8443 2.29441 19.7862C2.31844 19.7282 2.35365 19.6755 2.39805 19.6311C2.44245 19.5867 2.49516 19.5515 2.55317 19.5275C2.61118 19.5035 2.67335 19.4911 2.73614 19.4911H11.4962C11.623 19.4911 11.7446 19.5415 11.8343 19.6311C11.9239 19.7208 11.9743 19.8424 11.9743 19.9692C11.9743 20.096 11.9239 20.2176 11.8343 20.3073C11.7446 20.397 11.623 20.4474 11.4962 20.4474Z" fill="#5AC4C4"/>
<path d="M7.95289 22.5911H2.73614C2.67335 22.5911 2.61118 22.5788 2.55317 22.5548C2.49516 22.5307 2.44245 22.4955 2.39805 22.4511C2.35365 22.4067 2.31844 22.354 2.29441 22.296C2.27038 22.238 2.25801 22.1758 2.25801 22.113C2.25801 22.0502 2.27038 21.9881 2.29441 21.93C2.31844 21.872 2.35365 21.8193 2.39805 21.7749C2.44245 21.7305 2.49516 21.6953 2.55317 21.6713C2.61118 21.6473 2.67335 21.6349 2.73614 21.6349H7.95289C8.01568 21.6349 8.07785 21.6473 8.13586 21.6713C8.19387 21.6953 8.24658 21.7305 8.29098 21.7749C8.33537 21.8193 8.37059 21.872 8.39462 21.93C8.41865 21.9881 8.43102 22.0502 8.43102 22.113C8.43102 22.1758 8.41865 22.238 8.39462 22.296C8.37059 22.354 8.33537 22.4067 8.29098 22.4511C8.24658 22.4955 8.19387 22.5307 8.13586 22.5548C8.07785 22.5788 8.01568 22.5911 7.95289 22.5911Z" fill="#5AC4C4"/>
<path d="M7.95289 26.8943H2.73614C2.60933 26.8943 2.48772 26.8439 2.39805 26.7542C2.30839 26.6645 2.25801 26.5429 2.25801 26.4161C2.25801 26.2893 2.30839 26.1677 2.39805 26.078C2.48772 25.9884 2.60933 25.938 2.73614 25.938H7.95289C8.0797 25.938 8.20131 25.9884 8.29098 26.078C8.38064 26.1677 8.43102 26.2893 8.43102 26.4161C8.43102 26.5429 8.38064 26.6645 8.29098 26.7542C8.20131 26.8439 8.0797 26.8943 7.95289 26.8943Z" fill="#5AC4C4"/>
<path d="M7.67113 29.0543H2.73614C2.60933 29.0543 2.48772 29.0039 2.39805 28.9142C2.30839 28.8246 2.25801 28.703 2.25801 28.5762C2.25801 28.4493 2.30839 28.3277 2.39805 28.2381C2.48772 28.1484 2.60933 28.098 2.73614 28.098H7.67113C7.79794 28.098 7.91955 28.1484 8.00922 28.2381C8.09889 28.3277 8.14926 28.4493 8.14926 28.5762C8.14926 28.703 8.09889 28.8246 8.00922 28.9142C7.91955 29.0039 7.79794 29.0543 7.67113 29.0543Z" fill="#5AC4C4"/>
<path d="M28.8845 22.7282L21.7629 17.0308C21.7367 17.0097 21.7065 16.994 21.6742 16.9845C21.6419 16.9751 21.6081 16.9721 21.5746 16.9758C21.5411 16.9794 21.5087 16.9896 21.4792 17.0058C21.4497 17.022 21.4236 17.0438 21.4026 17.0701C21.3655 17.1156 21.3456 17.1727 21.3462 17.2314V20.5399H14.1743C14.1063 20.5399 14.0412 20.5669 13.9932 20.615C13.9451 20.663 13.9181 20.7281 13.9181 20.7961V26.2604C13.9181 26.3284 13.9451 26.3935 13.9932 26.4415C14.0412 26.4896 14.1063 26.5166 14.1743 26.5166H21.3462V29.8251C21.3462 29.893 21.3732 29.9581 21.4213 30.0062C21.4693 30.0542 21.5344 30.0812 21.6024 30.0812C21.6613 30.0816 21.7186 30.0617 21.7646 30.0248L28.8862 24.3274C28.9913 24.2433 29.0787 24.1394 29.1436 24.0215C29.2085 23.9036 29.2496 23.7741 29.2644 23.6403C29.2792 23.5065 29.2675 23.3712 29.23 23.2419C29.1925 23.1127 29.13 22.9921 29.0458 22.887C28.998 22.8284 28.9438 22.7752 28.8845 22.7282Z" fill="#1464A5"/>
<path d="M16.7997 20.5397H14.1743C14.1063 20.5397 14.0412 20.5667 13.9932 20.6147C13.9451 20.6627 13.9181 20.7279 13.9181 20.7958V26.2602C13.9181 26.3281 13.9451 26.3932 13.9932 26.4413C14.0412 26.4893 14.1063 26.5163 14.1743 26.5163H17.2429L20.4233 20.5397H16.7997Z" fill="url(#paint1_linear_9712_70395)"/>
<defs>
<linearGradient id="paint0_linear_9712_70395" x1="13.5714" y1="28.6336" x2="13.5714" y2="13.4051" gradientUnits="userSpaceOnUse">
<stop stop-color="#028484"/>
<stop offset="1" stop-color="#028484" stop-opacity="0"/>
</linearGradient>
<linearGradient id="paint1_linear_9712_70395" x1="20.4233" y1="23.528" x2="13.9181" y2="23.528" gradientUnits="userSpaceOnUse">
<stop stop-color="#043263" stop-opacity="0"/>
<stop offset="1" stop-color="#043263" stop-opacity="0.5"/>
</linearGradient>
</defs>
</svg>
