<svg width="37" height="38" viewBox="0 0 37 38" fill="none" xmlns="http://www.w3.org/2000/svg">
<path d="M20.4062 37.4126C29.452 37.4126 36.785 30.0796 36.785 21.0338C36.785 11.988 29.452 4.65497 20.4062 4.65497C11.3604 4.65497 4.02734 11.988 4.02734 21.0338C4.02734 30.0796 11.3604 37.4126 20.4062 37.4126Z" fill="url(#paint0_linear_9176_9801)"/>
<path d="M16.4023 33.4095C25.4481 33.4095 32.7811 26.0765 32.7811 17.0307C32.7811 7.98491 25.4481 0.651855 16.4023 0.651855C7.35649 0.651855 0.0234375 7.98491 0.0234375 17.0307C0.0234375 26.0765 7.35649 33.4095 16.4023 33.4095Z" fill="#043263"/>
<path d="M24.2303 2.63373L8.84766 31.5685C16.8792 35.7381 26.7737 32.5965 30.9335 24.569C35.0478 16.6474 32.06 6.89691 24.2303 2.63373Z" fill="url(#paint1_linear_9176_9801)"/>
<path d="M14.7793 23.1886V13.2656H17.6996V26.0226H17.6035L14.7793 23.1886Z" fill="#2DCCCD"/>
<path d="M14.6348 9.82633C14.6376 9.4765 14.7438 9.13531 14.94 8.84571C15.1363 8.55611 15.4138 8.33106 15.7377 8.19889C16.0616 8.06672 16.4174 8.03334 16.7602 8.10297C17.1031 8.17259 17.4177 8.3421 17.6643 8.59015C17.911 8.8382 18.0788 9.15369 18.1466 9.4969C18.2143 9.84012 18.179 10.1957 18.045 10.5189C17.9111 10.8421 17.6845 11.1184 17.3939 11.313C17.1032 11.5077 16.7614 11.612 16.4116 11.6128C16.1772 11.6137 15.945 11.568 15.7284 11.4784C15.5118 11.3888 15.3151 11.2571 15.1498 11.0909C14.9845 10.9247 14.8539 10.7274 14.7655 10.5103C14.6771 10.2932 14.6327 10.0607 14.6348 9.82633Z" fill="#2DCCCD"/>
<defs>
<linearGradient id="paint0_linear_9176_9801" x1="11.2319" y1="3.78003" x2="28.804" y2="36.8283" gradientUnits="userSpaceOnUse">
<stop stop-color="#192647" stop-opacity="0.5"/>
<stop offset="1" stop-color="#192647" stop-opacity="0"/>
</linearGradient>
<linearGradient id="paint1_linear_9176_9801" x1="32.9097" y1="18.0204" x2="8.84929" y2="18.0204" gradientUnits="userSpaceOnUse">
<stop stop-color="#072146" stop-opacity="0.8"/>
<stop offset="1" stop-color="#072146" stop-opacity="0"/>
</linearGradient>
</defs>
</svg>
