<svg width="40" height="42" viewBox="0 0 40 42" fill="none" xmlns="http://www.w3.org/2000/svg">
<path d="M33.4073 6.05311H27.8943V5.73977C27.898 5.66874 27.8856 5.59777 27.858 5.53223C27.8303 5.46669 27.7882 5.40828 27.7347 5.3614C27.6672 5.30895 27.5836 5.28145 27.4982 5.28356H23.3144H16.825C16.703 5.28382 16.5862 5.33238 16.4999 5.41862C16.4137 5.50486 16.3651 5.62175 16.3649 5.74371V6.05705H10.847C10.0825 6.05731 9.34941 6.36118 8.80894 6.90184C8.26846 7.4425 7.96484 8.17567 7.96484 8.94015V38.1475C7.96484 38.912 8.26846 39.6452 8.80894 40.1858C9.34941 40.7265 10.0825 41.0304 10.847 41.0306H33.4073C34.1717 41.0304 34.9048 40.7265 35.4453 40.1858C35.9857 39.6452 36.2894 38.912 36.2894 38.1475V8.93621C36.2894 8.17173 35.9857 7.43855 35.4453 6.8979C34.9048 6.35724 34.1717 6.05337 33.4073 6.05311Z" fill="url(#paint0_linear_3898_141112)"/>
<path d="M29.1504 1.74512H6.595C5.00326 1.74512 3.71289 3.03548 3.71289 4.62723V33.8395C3.71289 35.4313 5.00326 36.7217 6.595 36.7217H29.1504C30.7421 36.7217 32.0325 35.4313 32.0325 33.8395V4.62723C32.0325 3.03548 30.7421 1.74512 29.1504 1.74512Z" fill="#1464A5"/>
<path d="M29.8052 3.72803H5.89202C5.68415 3.72803 5.51562 3.89655 5.51562 4.10443V34.4233C5.51562 34.6312 5.68415 34.7997 5.89202 34.7997H29.8052C30.0131 34.7997 30.1816 34.6312 30.1816 34.4233V4.10443C30.1816 3.89655 30.0131 3.72803 29.8052 3.72803Z" fill="white"/>
<path d="M29.907 3.72803H26.0642L8.2207 34.7997H29.907C29.9797 34.7997 30.0493 34.7708 30.1007 34.7194C30.1521 34.6681 30.1809 34.5984 30.1809 34.5257V4.00195C30.1811 3.96594 30.1741 3.93027 30.1603 3.89697C30.1466 3.86368 30.1264 3.83343 30.101 3.80797C30.0755 3.78251 30.0453 3.76233 30.012 3.74862C29.9787 3.7349 29.943 3.7279 29.907 3.72803Z" fill="url(#paint1_linear_3898_141112)"/>
<path d="M23.1777 4.26136H12.5676C12.4457 4.26085 12.329 4.2122 12.2428 4.12602C12.1566 4.03983 12.1079 3.92309 12.1074 3.80121V1.43049C12.1079 1.30861 12.1566 1.19187 12.2428 1.10569C12.329 1.0195 12.4457 0.970856 12.5676 0.970337L23.2378 0.976249C23.491 0.976249 23.6319 1.18021 23.6319 1.43246V3.80318C23.6312 3.92379 23.5832 4.03929 23.4983 4.12494C23.4134 4.21059 23.2983 4.25956 23.1777 4.26136Z" fill="#F8CD50"/>
<path d="M23.6383 3.80142V1.4307C23.6383 1.17845 23.4955 0.974487 23.2442 0.974487H19.0575L17.3164 4.26157H23.1782C23.3001 4.26131 23.417 4.21275 23.5033 4.12651C23.5895 4.04027 23.6381 3.92338 23.6383 3.80142Z" fill="url(#paint2_linear_3898_141112)"/>
<path d="M11.4867 16.8642C10.9564 16.865 10.4383 17.0229 9.99773 17.3181C9.55718 17.6133 9.21402 18.0325 9.01163 18.5226C8.80923 19.0128 8.75668 19.5519 8.86061 20.072C8.96455 20.592 9.2203 21.0695 9.59555 21.4442C9.97081 21.8189 10.4487 22.074 10.9689 22.1771C11.489 22.2803 12.0281 22.227 12.518 22.0238C13.0078 21.8207 13.4265 21.477 13.721 21.036C14.0156 20.595 14.1728 20.0766 14.1728 19.5463C14.1728 19.1937 14.1033 18.8447 13.9682 18.519C13.8332 18.1933 13.6353 17.8975 13.3858 17.6484C13.1363 17.3993 12.8402 17.2018 12.5143 17.0672C12.1885 16.9327 11.8393 16.8637 11.4867 16.8642ZM12.95 18.6191L11.1527 20.8972C11.1226 20.9355 11.0841 20.9666 11.0403 20.9879C10.9964 21.0092 10.9483 21.0203 10.8995 21.0204H10.8719C10.8187 21.0156 10.7675 20.9978 10.7229 20.9686C10.6782 20.9394 10.6414 20.8997 10.6157 20.8528L9.99396 19.7138C9.95293 19.6385 9.94348 19.5501 9.96769 19.4678C9.99189 19.3856 10.0478 19.3163 10.123 19.2753C10.1983 19.2343 10.2868 19.2248 10.369 19.2491C10.4512 19.2733 10.5205 19.3291 10.5615 19.4044L10.9487 20.1138L12.4425 18.22C12.4684 18.1855 12.5008 18.1565 12.5381 18.1347C12.5753 18.1129 12.6165 18.0988 12.6593 18.0932C12.702 18.0876 12.7455 18.0906 12.7871 18.102C12.8286 18.1135 12.8675 18.1331 12.9014 18.1598C12.9353 18.1865 12.9634 18.2197 12.9843 18.2575C13.0051 18.2953 13.0182 18.3368 13.0227 18.3797C13.0272 18.4226 13.0231 18.466 13.0106 18.5072C12.9981 18.5485 12.9775 18.5869 12.95 18.6201V18.6191Z" fill="#2DCCCD"/>
<path d="M11.4868 24.5116C10.9562 24.5122 10.4377 24.6701 9.99683 24.9653C9.55597 25.2605 9.21253 25.6798 9.00994 26.1702C8.80734 26.6606 8.75469 27.2 8.85863 27.7203C8.96257 28.2406 9.21844 28.7184 9.59389 29.0933C9.96934 29.4682 10.4475 29.7234 10.968 29.8265C11.4884 29.9297 12.0278 29.8763 12.5178 29.6729C13.0079 29.4696 13.4267 29.1256 13.7213 28.6843C14.0159 28.243 14.173 27.7243 14.1728 27.1937C14.1728 26.8411 14.1033 26.492 13.9683 26.1664C13.8332 25.8407 13.6353 25.5449 13.3858 25.2958C13.1364 25.0467 12.8402 24.8492 12.5144 24.7146C12.1885 24.5801 11.8393 24.5111 11.4868 24.5116ZM12.95 26.2665L11.1527 28.5446C11.1227 28.5831 11.0843 28.6142 11.0404 28.6356C10.9965 28.657 10.9483 28.668 10.8995 28.6678H10.8719C10.8187 28.6632 10.7674 28.6455 10.7227 28.6163C10.678 28.587 10.6413 28.5472 10.6157 28.5002L9.99397 27.3622C9.95295 27.2869 9.9435 27.1984 9.9677 27.1162C9.99191 27.034 10.0478 26.9647 10.1231 26.9237C10.1983 26.8827 10.2868 26.8732 10.369 26.8974C10.4513 26.9216 10.5205 26.9775 10.5615 27.0528L10.9488 27.7622L12.4425 25.8674C12.4964 25.8026 12.5734 25.7613 12.6573 25.7525C12.7411 25.7436 12.8251 25.7679 12.8913 25.8201C12.9575 25.8722 13.0007 25.9482 13.0117 26.0318C13.0226 26.1154 13.0005 26.2 12.95 26.2675V26.2665Z" fill="#2DCCCD"/>
<path d="M11.4868 9.21503C10.9562 9.21561 10.4378 9.37347 9.99693 9.66865C9.55609 9.96382 9.21265 10.3831 9.01003 10.8734C8.80741 11.3637 8.7547 11.9031 8.85856 12.4234C8.96242 12.9436 9.21819 13.4214 9.59354 13.7964C9.96889 14.1713 10.447 14.4266 10.9674 14.5298C11.4877 14.6331 12.0271 14.5798 12.5172 14.3767C13.0073 14.1735 13.4261 13.8296 13.7208 13.3884C14.0155 12.9473 14.1728 12.4286 14.1728 11.8981C14.1728 11.5455 14.1033 11.1964 13.9683 10.8707C13.8333 10.5449 13.6354 10.249 13.3859 9.99984C13.1364 9.75065 12.8403 9.55308 12.5144 9.41842C12.1886 9.28375 11.8394 9.21464 11.4868 9.21503ZM12.95 10.9699L11.1527 13.248C11.1227 13.2865 11.0843 13.3177 11.0404 13.339C10.9965 13.3604 10.9483 13.3714 10.8995 13.3712H10.8719C10.8188 13.3666 10.7677 13.349 10.723 13.32C10.6783 13.291 10.6414 13.2513 10.6157 13.2047L9.99397 12.0656C9.97366 12.0283 9.96088 11.9874 9.95638 11.9452C9.95187 11.903 9.95572 11.8604 9.9677 11.8196C9.97969 11.7789 9.99958 11.741 10.0262 11.7079C10.0529 11.6749 10.0858 11.6475 10.1231 11.6271C10.1603 11.6068 10.2012 11.594 10.2434 11.5895C10.2856 11.585 10.3283 11.5889 10.369 11.6009C10.4097 11.6129 10.4477 11.6327 10.4807 11.6594C10.5138 11.686 10.5412 11.7189 10.5615 11.7562L10.9488 12.4657L12.4425 10.5709C12.4964 10.506 12.5734 10.4647 12.6573 10.4559C12.7411 10.447 12.8251 10.4713 12.8913 10.5235C12.9575 10.5757 13.0007 10.6517 13.0117 10.7353C13.0226 10.8188 13.0005 10.9034 12.95 10.9709V10.9699Z" fill="#2DCCCD"/>
<path d="M26.1715 11.2396H16.5368C16.3706 11.2396 16.2112 11.1736 16.0937 11.0561C15.9762 10.9385 15.9102 10.7791 15.9102 10.6129C15.9102 10.4467 15.9762 10.2873 16.0937 10.1698C16.2112 10.0523 16.3706 9.98627 16.5368 9.98627H26.1695C26.3357 9.98627 26.4951 10.0523 26.6126 10.1698C26.7301 10.2873 26.7962 10.4467 26.7962 10.6129C26.7962 10.7791 26.7301 10.9385 26.6126 11.0561C26.4951 11.1736 26.3357 11.2396 26.1695 11.2396H26.1715Z" fill="#D2ECFC"/>
<path d="M26.1715 14.2361H16.5368C16.3706 14.2361 16.2112 14.1701 16.0937 14.0525C15.9762 13.935 15.9102 13.7756 15.9102 13.6094C15.9102 13.4432 15.9762 13.2838 16.0937 13.1663C16.2112 13.0488 16.3706 12.9827 16.5368 12.9827H26.1695C26.3357 12.9827 26.4951 13.0488 26.6126 13.1663C26.7301 13.2838 26.7962 13.4432 26.7962 13.6094C26.7962 13.7756 26.7301 13.935 26.6126 14.0525C26.4951 14.1701 26.3357 14.2361 26.1695 14.2361H26.1715Z" fill="#D2ECFC"/>
<path d="M26.1715 18.8882H16.5368C16.3706 18.8882 16.2112 18.8222 16.0937 18.7046C15.9762 18.5871 15.9102 18.4277 15.9102 18.2615C15.9102 18.0953 15.9762 17.9359 16.0937 17.8184C16.2112 17.7009 16.3706 17.6348 16.5368 17.6348H26.1695C26.3357 17.6348 26.4951 17.7009 26.6126 17.8184C26.7301 17.9359 26.7962 18.0953 26.7962 18.2615C26.7962 18.4277 26.7301 18.5871 26.6126 18.7046C26.4951 18.8222 26.3357 18.8882 26.1695 18.8882H26.1715Z" fill="#D2ECFC"/>
<path d="M26.1709 21.8824H16.5363C16.452 21.8857 16.3678 21.872 16.2889 21.842C16.2101 21.8121 16.138 21.7665 16.0772 21.708C16.0163 21.6495 15.9679 21.5794 15.9349 21.5017C15.9018 21.4241 15.8848 21.3406 15.8848 21.2562C15.8848 21.1718 15.9018 21.0883 15.9349 21.0106C15.9679 20.933 16.0163 20.8628 16.0772 20.8044C16.138 20.7459 16.2101 20.7003 16.2889 20.6703C16.3678 20.6404 16.452 20.6267 16.5363 20.63H26.169C26.2533 20.6267 26.3374 20.6404 26.4163 20.6703C26.4952 20.7003 26.5672 20.7459 26.628 20.8044C26.6889 20.8628 26.7373 20.933 26.7704 21.0106C26.8034 21.0883 26.8205 21.1718 26.8205 21.2562C26.8205 21.3406 26.8034 21.4241 26.7704 21.5017C26.7373 21.5794 26.6889 21.6495 26.628 21.708C26.5672 21.7665 26.4952 21.8121 26.4163 21.842C26.3374 21.872 26.2533 21.8857 26.169 21.8824H26.1709Z" fill="#D2ECFC"/>
<path d="M26.1715 26.5356H16.5368C16.3706 26.5356 16.2112 26.4695 16.0937 26.352C15.9762 26.2345 15.9102 26.0751 15.9102 25.9089C15.9102 25.7427 15.9762 25.5833 16.0937 25.4658C16.2112 25.3483 16.3706 25.2822 16.5368 25.2822H26.1695C26.3357 25.2822 26.4951 25.3483 26.6126 25.4658C26.7301 25.5833 26.7962 25.7427 26.7962 25.9089C26.7962 26.0751 26.7301 26.2345 26.6126 26.352C26.4951 26.4695 26.3357 26.5356 26.1695 26.5356H26.1715Z" fill="#D2ECFC"/>
<path d="M26.1715 29.5309H16.5368C16.4545 29.5309 16.373 29.5147 16.297 29.4832C16.221 29.4517 16.1519 29.4055 16.0937 29.3473C16.0355 29.2891 15.9893 29.2201 15.9579 29.144C15.9264 29.068 15.9102 28.9865 15.9102 28.9042C15.9102 28.8219 15.9264 28.7404 15.9579 28.6644C15.9893 28.5884 16.0355 28.5193 16.0937 28.4611C16.1519 28.4029 16.221 28.3567 16.297 28.3252C16.373 28.2937 16.4545 28.2775 16.5368 28.2775H26.1695C26.3357 28.2775 26.4951 28.3436 26.6126 28.4611C26.7301 28.5786 26.7962 28.738 26.7962 28.9042C26.7962 29.0704 26.7301 29.2298 26.6126 29.3473C26.4951 29.4649 26.3357 29.5309 26.1695 29.5309H26.1715Z" fill="#D2ECFC"/>
<defs>
<linearGradient id="paint0_linear_3898_141112" x1="11.3515" y1="3.2715" x2="31.3597" y2="40.9016" gradientUnits="userSpaceOnUse">
<stop stop-color="#192647" stop-opacity="0.5"/>
<stop offset="1" stop-color="#192647" stop-opacity="0"/>
</linearGradient>
<linearGradient id="paint1_linear_3898_141112" x1="30.1809" y1="19.2639" x2="8.2207" y2="19.2639" gradientUnits="userSpaceOnUse">
<stop stop-color="#E8E8E8" stop-opacity="0.1"/>
<stop offset="1" stop-color="#E8E8E8" stop-opacity="0"/>
</linearGradient>
<linearGradient id="paint2_linear_3898_141112" x1="23.6383" y1="2.61704" x2="17.3164" y2="2.61704" gradientUnits="userSpaceOnUse">
<stop stop-color="#C39734" stop-opacity="0.9"/>
<stop offset="0.17" stop-color="#C39734" stop-opacity="0.68"/>
<stop offset="0.35" stop-color="#C39734" stop-opacity="0.47"/>
<stop offset="0.52" stop-color="#C39734" stop-opacity="0.31"/>
<stop offset="0.69" stop-color="#C39734" stop-opacity="0.19"/>
<stop offset="0.85" stop-color="#C39734" stop-opacity="0.12"/>
<stop offset="1" stop-color="#C39734" stop-opacity="0.1"/>
</linearGradient>
</defs>
</svg>
