<svg width="40" height="42" viewBox="0 0 40 42" fill="none" xmlns="http://www.w3.org/2000/svg">
<path d="M13.9543 5.21998H30.2375C30.7542 5.22068 31.2495 5.42673 31.6144 5.79282C31.9794 6.15891 32.1842 6.65507 32.1837 7.17222V39.0778C32.1832 39.5943 31.978 40.0894 31.6131 40.4546C31.2482 40.8198 30.7535 41.0252 30.2375 41.0256H13.9543C13.4383 41.0252 12.9435 40.8198 12.5786 40.4546C12.2137 40.0894 12.0085 39.5943 12.0081 39.0778V7.17222C12.0067 6.65499 12.2105 6.15836 12.5748 5.79147C12.9391 5.42458 13.434 5.21744 13.9508 5.21558L13.9543 5.21998Z" fill="url(#paint0_linear_4082_158071)"/>
<path d="M9.76265 0.978344H26.0458C26.5625 0.979045 27.0578 1.18509 27.4228 1.55118C27.7877 1.91727 27.9925 2.41343 27.992 2.93058V34.8362C27.9916 35.3526 27.7864 35.8478 27.4215 36.213C27.0566 36.5782 26.5618 36.7835 26.0458 36.784H9.76265C9.24662 36.7835 8.75186 36.5782 8.38697 36.213C8.02208 35.8478 7.81688 35.3526 7.81642 34.8362V2.93058C7.81561 2.67444 7.86521 2.42065 7.9624 2.18369C8.0596 1.94674 8.20247 1.73127 8.38287 1.54958C8.56326 1.36789 8.77765 1.22354 9.01379 1.12477C9.24993 1.026 9.50319 0.974747 9.75912 0.973938L9.76265 0.978344Z" fill="#1464A5"/>
<path d="M28.0008 5.47363H7.81641V32.2937H28.0008V5.47363Z" fill="#49A5E6"/>
<path opacity="0.5" d="M7.84253 5.49126V32.2761L18.1285 32.2937L27.9917 14.0494V5.47363L7.84253 5.49126Z" fill="url(#paint1_linear_4082_158071)"/>
<path d="M17.8939 24.2691C20.8646 24.2691 23.2729 21.8588 23.2729 18.8857C23.2729 15.9125 20.8646 13.5023 17.8939 13.5023C14.9231 13.5023 12.5149 15.9125 12.5149 18.8857C12.5149 21.8588 14.9231 24.2691 17.8939 24.2691Z" fill="#08467F"/>
<path d="M16.1765 20.1651C16.1765 20.2465 16.2088 20.3245 16.2663 20.382C16.3237 20.4395 16.4017 20.4718 16.483 20.4718H16.9436V21.4413C16.9436 21.5227 16.9758 21.6007 17.0333 21.6582C17.0908 21.7157 17.1687 21.7481 17.25 21.7481H17.4033C17.4435 21.7482 17.4834 21.7404 17.5206 21.725C17.5578 21.7097 17.5917 21.6872 17.6202 21.6588C17.6488 21.6304 17.6714 21.5967 17.6869 21.5595C17.7024 21.5224 17.7105 21.4825 17.7106 21.4422V20.4701H18.2214V21.4396C18.2214 21.4799 18.2293 21.5197 18.2447 21.557C18.2601 21.5942 18.2827 21.628 18.3111 21.6565C18.3396 21.6849 18.3734 21.7075 18.4106 21.7229C18.4477 21.7384 18.4876 21.7463 18.5278 21.7463H18.682C18.7222 21.7464 18.7621 21.7386 18.7993 21.7233C18.8365 21.708 18.8704 21.6855 18.8989 21.6571C18.9275 21.6287 18.9501 21.5949 18.9656 21.5578C18.9811 21.5206 18.9892 21.4807 18.9893 21.4405V20.4701H19.449C19.4892 20.4702 19.5291 20.4624 19.5663 20.4471C19.6036 20.4318 19.6374 20.4093 19.666 20.3809C19.6945 20.3525 19.7172 20.3187 19.7327 20.2815C19.7482 20.2444 19.7562 20.2045 19.7563 20.1642V17.6567H16.1765V20.1651Z" fill="#2DCCCD"/>
<path d="M20.4738 17.6567H20.3196C20.2794 17.6567 20.2396 17.6647 20.2024 17.6801C20.1652 17.6955 20.1314 17.7181 20.1029 17.7466C20.0745 17.7751 20.0519 17.8089 20.0365 17.8461C20.0211 17.8833 20.0132 17.9232 20.0132 17.9635V19.6522C20.0132 19.6924 20.0211 19.7323 20.0365 19.7695C20.0519 19.8067 20.0745 19.8406 20.1029 19.869C20.1314 19.8975 20.1652 19.9201 20.2024 19.9355C20.2396 19.9509 20.2794 19.9589 20.3196 19.9589H20.4738C20.514 19.9589 20.5539 19.9509 20.591 19.9355C20.6282 19.9201 20.662 19.8975 20.6905 19.869C20.7189 19.8406 20.7415 19.8067 20.7569 19.7695C20.7723 19.7323 20.7802 19.6924 20.7802 19.6522V17.9643C20.7803 17.9241 20.7725 17.8842 20.7572 17.8469C20.7419 17.8096 20.7195 17.7758 20.6911 17.7472C20.6627 17.7186 20.629 17.6959 20.5919 17.6804C20.5547 17.6649 20.5149 17.6569 20.4746 17.6567H20.4738Z" fill="#2DCCCD"/>
<path d="M15.6146 17.6567H15.4605C15.3792 17.6567 15.3013 17.6891 15.2438 17.7466C15.1863 17.8041 15.1541 17.8821 15.1541 17.9635V19.6522C15.1541 19.6924 15.162 19.7323 15.1774 19.7695C15.1928 19.8067 15.2154 19.8406 15.2438 19.869C15.2723 19.8975 15.3061 19.9201 15.3432 19.9355C15.3804 19.9509 15.4203 19.9589 15.4605 19.9589H15.6146C15.6549 19.9589 15.6947 19.9509 15.7319 19.9355C15.7691 19.9201 15.8029 19.8975 15.8313 19.869C15.8598 19.8406 15.8824 19.8067 15.8978 19.7695C15.9132 19.7323 15.9211 19.6924 15.9211 19.6522V17.9643C15.9212 17.9241 15.9134 17.8842 15.8981 17.8469C15.8828 17.8096 15.8603 17.7758 15.832 17.7472C15.8036 17.7186 15.7699 17.6959 15.7327 17.6804C15.6956 17.6649 15.6558 17.6569 15.6155 17.6567H15.6146Z" fill="#2DCCCD"/>
<path d="M18.9915 16.2081L19.2249 15.7983C19.2386 15.7693 19.2409 15.7362 19.2314 15.7056C19.2219 15.675 19.2013 15.6491 19.1736 15.633C19.1459 15.6169 19.1131 15.6118 19.0818 15.6188C19.0506 15.6257 19.023 15.6442 19.0047 15.6705L18.7696 16.0777C18.5193 15.9529 18.2434 15.8879 17.9638 15.8879C17.6841 15.8879 17.4083 15.9529 17.158 16.0777L16.9229 15.6705C16.9034 15.6477 16.8764 15.6325 16.8468 15.6275C16.8173 15.6226 16.7869 15.6282 16.761 15.6435C16.7352 15.6587 16.7155 15.6826 16.7055 15.7109C16.6955 15.7392 16.6957 15.7701 16.7062 15.7983L16.9414 16.2055C16.739 16.3414 16.5666 16.5173 16.4347 16.7224C16.3028 16.9274 16.2142 17.1574 16.1743 17.398H19.7612C19.7202 17.1578 19.6309 16.9284 19.4986 16.7238C19.3663 16.5193 19.1937 16.3438 18.9915 16.2081ZM17.0717 16.8885C17.0464 16.8885 17.0218 16.881 17.0008 16.867C16.9798 16.853 16.9634 16.833 16.9537 16.8096C16.9441 16.7863 16.9415 16.7606 16.9465 16.7358C16.9514 16.711 16.9635 16.6882 16.9814 16.6704C16.9993 16.6525 17.022 16.6403 17.0468 16.6354C17.0716 16.6305 17.0972 16.633 17.1206 16.6427C17.1439 16.6523 17.1638 16.6687 17.1779 16.6897C17.1919 16.7108 17.1994 16.7355 17.1994 16.7607C17.1994 16.7946 17.1859 16.8271 17.162 16.8511C17.138 16.8751 17.1056 16.8885 17.0717 16.8885ZM18.8612 16.8885C18.836 16.8884 18.8114 16.8807 18.7905 16.8666C18.7696 16.8524 18.7534 16.8324 18.7438 16.809C18.7343 16.7857 18.7319 16.76 18.7369 16.7353C18.7419 16.7105 18.7542 16.6878 18.7721 16.6701C18.79 16.6523 18.8127 16.6402 18.8375 16.6353C18.8622 16.6305 18.8878 16.6331 18.9111 16.6428C18.9344 16.6525 18.9543 16.6688 18.9683 16.6898C18.9823 16.7108 18.9897 16.7355 18.9897 16.7607C18.9897 16.7776 18.9864 16.7943 18.9799 16.8098C18.9735 16.8254 18.964 16.8395 18.952 16.8514C18.9401 16.8633 18.9259 16.8727 18.9103 16.8791C18.8947 16.8854 18.878 16.8887 18.8612 16.8885Z" fill="#2DCCCD"/>
<defs>
<linearGradient id="paint0_linear_4082_158071" x1="12.7777" y1="5.58399" x2="31.4361" y2="40.6454" gradientUnits="userSpaceOnUse">
<stop stop-color="#192647" stop-opacity="0.5"/>
<stop offset="1" stop-color="#192647" stop-opacity="0"/>
</linearGradient>
<linearGradient id="paint1_linear_4082_158071" x1="10.5074" y1="11.459" x2="24.1034" y2="25.0439" gradientUnits="userSpaceOnUse">
<stop stop-color="white" stop-opacity="0.5"/>
<stop offset="1" stop-color="#ECF7F8" stop-opacity="0.1"/>
</linearGradient>
</defs>
</svg>
