<svg width="38" height="40" viewBox="0 0 38 40" fill="none" xmlns="http://www.w3.org/2000/svg">
<path d="M29.9105 4.00009H15.3089C15.2765 4.00009 15.2444 4.00647 15.2145 4.01888C15.1846 4.03128 15.1573 4.04945 15.1344 4.07237C15.1115 4.09528 15.0933 4.12249 15.0809 4.15243C15.0685 4.18237 15.0622 4.21446 15.0622 4.24687V11.6278C13.38 11.9799 11.8322 12.8018 10.5983 13.9982C9.36448 15.1945 8.49518 16.7162 8.09131 18.3867C7.68745 20.0572 7.76559 21.8079 8.31665 23.4358C8.86772 25.0636 9.86911 26.5019 11.2046 27.5835L5.75689 37.0198C5.70703 36.9923 5.6484 36.9856 5.5936 37.0009C5.5388 37.0162 5.49219 37.0524 5.46379 37.1017L4.74039 38.3552C4.72598 38.3797 4.71655 38.4068 4.71265 38.4349C4.70874 38.4631 4.71044 38.4917 4.71764 38.5192C4.72485 38.5467 4.73741 38.5725 4.75462 38.5951C4.77182 38.6177 4.79333 38.6367 4.8179 38.651L7.15468 40.0006C7.17948 40.015 7.20688 40.0244 7.2353 40.0282C7.26372 40.032 7.29262 40.0302 7.32034 40.0228C7.34805 40.0155 7.37405 40.0027 7.39683 39.9853C7.41962 39.9679 7.43875 39.9462 7.45313 39.9214L8.17652 38.6679C8.20526 38.6187 8.21343 38.5601 8.19925 38.5049C8.18508 38.4497 8.1497 38.4023 8.1008 38.373L13.5352 28.9582L13.6626 29.0089L13.7142 29.0285C13.7882 29.0562 13.863 29.0838 13.9379 29.1096L13.9735 29.1221L14.2408 29.2112L14.2586 29.2165C14.3388 29.2406 14.4189 29.2637 14.5 29.286L14.5633 29.3038C14.6345 29.3225 14.7058 29.3412 14.778 29.3582C14.7967 29.3582 14.8145 29.368 14.8332 29.3715C14.908 29.3893 14.9829 29.4063 15.0586 29.4223V33.0037C15.0586 33.0639 15.0825 33.1217 15.1251 33.1643C15.1677 33.2069 15.2255 33.2308 15.2858 33.2308H16.0733L36.7248 33.3066H37.1035C37.163 33.3066 37.2203 33.2833 37.2629 33.2417C37.3055 33.2 37.3301 33.1434 37.3315 33.0838V11.422L29.9105 4.00009Z" fill="url(#paint0_linear_10856_1560)"/>
<path d="M33.3725 7.39139L25.9487 -0.0305481H11.3472C11.2817 -0.0305481 11.219 -0.00454844 11.1727 0.0417307C11.1264 0.0880099 11.1004 0.150778 11.1004 0.216227V28.9766C11.1004 29.0368 11.1243 29.0946 11.1669 29.1372C11.2095 29.1798 11.2673 29.2038 11.3276 29.2038H33.1453C33.2055 29.2038 33.2633 29.1798 33.3059 29.1372C33.3485 29.0946 33.3725 29.0368 33.3725 28.9766V7.39139Z" fill="#D4EDFC"/>
<path d="M27.236 1.332L12.115 29.2032L32.7666 29.279H33.1452C33.2047 29.279 33.2618 29.2557 33.3043 29.214C33.3467 29.1724 33.3712 29.1157 33.3724 29.0562V7.46661L27.236 1.332Z" fill="url(#paint1_linear_10856_1560)"/>
<path d="M26.2267 7.39139H33.3725L25.9488 -0.0305481V7.117C25.9495 7.19017 25.9791 7.26009 26.0312 7.3115C26.0833 7.36291 26.1536 7.39163 26.2267 7.39139Z" fill="#49A5E6"/>
<path opacity="0.35" d="M30.1064 10.4523H15.1992C15.1363 10.4608 15.0722 10.4558 15.0114 10.4375C14.9505 10.4192 14.8943 10.3881 14.8465 10.3463C14.7986 10.3045 14.7603 10.2529 14.734 10.1951C14.7077 10.1372 14.6942 10.0744 14.6942 10.0109C14.6942 9.94737 14.7077 9.88457 14.734 9.82672C14.7603 9.76888 14.7986 9.71732 14.8465 9.67551C14.8943 9.6337 14.9505 9.60261 15.0114 9.58432C15.0722 9.56603 15.1363 9.56096 15.1992 9.56947H30.1064C30.2132 9.5839 30.3112 9.63659 30.3821 9.71777C30.4531 9.79894 30.4922 9.90309 30.4922 10.0109C30.4922 10.1187 30.4531 10.2229 30.3821 10.304C30.3112 10.3852 30.2132 10.4379 30.1064 10.4523Z" fill="#4AA3E3"/>
<path opacity="0.35" d="M30.1064 13.175H15.1992C15.0924 13.1605 14.9944 13.1079 14.9235 13.0267C14.8525 12.9455 14.8134 12.8414 14.8134 12.7335C14.8134 12.6257 14.8525 12.5216 14.9235 12.4404C14.9944 12.3592 15.0924 12.3065 15.1992 12.2921H30.1064C30.2132 12.3065 30.3112 12.3592 30.3821 12.4404C30.4531 12.5216 30.4922 12.6257 30.4922 12.7335C30.4922 12.8414 30.4531 12.9455 30.3821 13.0267C30.3112 13.1079 30.2132 13.1605 30.1064 13.175Z" fill="#4AA3E3"/>
<path opacity="0.35" d="M30.1064 15.8939H15.1992C15.0924 15.8795 14.9944 15.8268 14.9235 15.7456C14.8525 15.6645 14.8134 15.5603 14.8134 15.4525C14.8134 15.3447 14.8525 15.2406 14.9235 15.1594C14.9944 15.0782 15.0924 15.0255 15.1992 15.0111H30.1064C30.2132 15.0255 30.3112 15.0782 30.3821 15.1594C30.4531 15.2406 30.4922 15.3447 30.4922 15.4525C30.4922 15.5603 30.4531 15.6645 30.3821 15.7456C30.3112 15.8268 30.2132 15.8795 30.1064 15.8939Z" fill="#4AA3E3"/>
<path opacity="0.35" d="M30.1065 21.336H15.1993C15.1362 21.345 15.0718 21.3403 15.0106 21.3222C14.9494 21.3042 14.8928 21.2732 14.8446 21.2314C14.7964 21.1896 14.7578 21.1379 14.7313 21.0799C14.7048 21.0218 14.6911 20.9588 14.6911 20.895C14.6911 20.8312 14.7048 20.7681 14.7313 20.71C14.7578 20.652 14.7964 20.6003 14.8446 20.5585C14.8928 20.5167 14.9494 20.4857 15.0106 20.4677C15.0718 20.4497 15.1362 20.445 15.1993 20.454H30.1065C30.2232 20.4379 30.3415 20.4687 30.4356 20.5396C30.5296 20.6105 30.5917 20.7158 30.6084 20.8324C30.625 20.9491 30.5947 21.0675 30.5242 21.1619C30.4537 21.2562 30.3486 21.3188 30.2321 21.336C30.1905 21.3422 30.1481 21.3422 30.1065 21.336Z" fill="#4AA3E3"/>
<path opacity="0.35" d="M30.1066 24.056H21.7216C21.6148 24.0415 21.5168 23.9888 21.4459 23.9077C21.3749 23.8265 21.3358 23.7223 21.3358 23.6145C21.3358 23.5067 21.3749 23.4026 21.4459 23.3214C21.5168 23.2402 21.6148 23.1875 21.7216 23.1731H30.1066C30.2134 23.1875 30.3114 23.2402 30.3824 23.3214C30.4533 23.4026 30.4924 23.5067 30.4924 23.6145C30.4924 23.7223 30.4533 23.8265 30.3824 23.9077C30.3114 23.9888 30.2134 24.0415 30.1066 24.056Z" fill="#4AA3E3"/>
<path d="M1.00443 34.3593L7.64506 22.858L9.99165 24.2131L3.35101 35.7144C3.3367 35.7392 3.31763 35.7611 3.29487 35.7786C3.27212 35.7961 3.24614 35.8089 3.21842 35.8164C3.1907 35.8238 3.16178 35.8257 3.13332 35.822C3.10486 35.8182 3.07742 35.8089 3.05256 35.7945L1.08372 34.6569C1.05877 34.6427 1.03689 34.6238 1.01933 34.6011C1.00177 34.5785 0.988884 34.5525 0.981425 34.5249C0.973965 34.4972 0.972078 34.4683 0.975874 34.4399C0.97967 34.4115 0.989072 34.3841 1.00354 34.3593H1.00443Z" fill="#043263"/>
<path d="M20.0893 16.4952C20.0893 17.9048 19.6713 19.2827 18.8882 20.4547C18.1051 21.6268 16.992 22.5403 15.6897 23.0797C14.3874 23.6191 12.9544 23.7603 11.5718 23.4853C10.1893 23.2103 8.91941 22.5315 7.92268 21.5348C6.92594 20.538 6.24715 19.2681 5.97215 17.8856C5.69715 16.5031 5.83829 15.0701 6.37772 13.7678C6.91715 12.4655 7.83065 11.3524 9.00269 10.5692C10.1747 9.7861 11.5527 9.3681 12.9623 9.3681C14.8525 9.3681 16.6653 10.119 18.0019 11.4556C19.3384 12.7922 20.0893 14.6049 20.0893 16.4952Z" fill="#65A4E0"/>
<path d="M12.9624 25.5823C11.1652 25.5823 9.40828 25.0494 7.91393 24.0509C6.41958 23.0524 5.25488 21.6332 4.56711 19.9727C3.87933 18.3123 3.69938 16.4852 4.05001 14.7225C4.40063 12.9598 5.26608 11.3407 6.53692 10.0698C7.80776 8.79898 9.42691 7.93353 11.1896 7.5829C12.9523 7.23228 14.7794 7.41223 16.4398 8.10001C18.1003 8.78778 19.5195 9.95248 20.518 11.4468C21.5165 12.9412 22.0494 14.6981 22.0494 16.4953C22.0494 18.9053 21.092 21.2166 19.3879 22.9208C17.6837 24.6249 15.3724 25.5823 12.9624 25.5823ZM12.9624 9.36824C11.5528 9.36824 10.1749 9.78623 9.00282 10.5694C7.83078 11.3525 6.91729 12.4656 6.37786 13.7679C5.83843 15.0702 5.69729 16.5032 5.97229 17.8857C6.24728 19.2682 6.92607 20.5381 7.92281 21.5349C8.91955 22.5316 10.1895 23.2104 11.572 23.4854C12.9545 23.7604 14.3875 23.6193 15.6898 23.0798C16.9921 22.5404 18.1052 21.6269 18.8883 20.4549C19.6715 19.2828 20.0895 17.9049 20.0895 16.4953C20.0895 14.6051 19.3386 12.7923 18.002 11.4557C16.6654 10.1191 14.8526 9.36824 12.9624 9.36824Z" fill="#1464A5"/>
<path opacity="0.5" d="M16.5078 10.3184C14.8718 9.37434 12.9279 9.11885 11.1035 9.60812C9.27915 10.0974 7.72388 11.2913 6.77984 12.9273C5.83579 14.5633 5.58031 16.5073 6.06958 18.3317C6.55885 20.156 7.75281 21.7113 9.38879 22.6553L16.5078 10.3184Z" fill="url(#paint2_linear_10856_1560)"/>
<path d="M1.5012 33.0721L0.777804 34.325C0.717531 34.4294 0.753298 34.5629 0.857693 34.6232L3.19542 35.9729C3.29982 36.0332 3.43331 35.9974 3.49358 35.893L4.21697 34.64C4.27725 34.5356 4.24148 34.4022 4.13708 34.3419L1.79936 32.9922C1.69496 32.9319 1.56147 32.9677 1.5012 33.0721Z" fill="#2DCCCD"/>
<mask id="mask0_10856_1560" style="mask-type:luminance" maskUnits="userSpaceOnUse" x="5" y="9" width="16" height="15">
<path d="M12.9615 9.34344C11.5519 9.34344 10.1739 9.76144 9.00189 10.5446C7.82985 11.3277 6.91636 12.4408 6.37693 13.7431C5.8375 15.0454 5.69636 16.4784 5.97136 17.8609C6.24636 19.2434 6.92515 20.5134 7.92188 21.5101C8.91862 22.5068 10.1885 23.1856 11.5711 23.4606C12.9536 23.7356 14.3866 23.5945 15.6889 23.055C16.9912 22.5156 18.1043 21.6021 18.8874 20.4301C19.6705 19.258 20.0885 17.8801 20.0885 16.4705C20.0885 14.5803 19.3376 12.7675 18.0011 11.4309C16.6645 10.0943 14.8517 9.34344 12.9615 9.34344Z" fill="white"/>
</mask>
<g mask="url(#mask0_10856_1560)">
<path opacity="0.7" d="M28.3029 12.6815H9.09103C9.01633 12.6917 8.94037 12.687 8.86748 12.6677C8.7946 12.6485 8.72621 12.6151 8.66624 12.5694C8.54511 12.4772 8.46558 12.3406 8.44514 12.1898C8.4247 12.0389 8.46503 11.8861 8.55725 11.765C8.64948 11.6439 8.78604 11.5643 8.93691 11.5439C8.98803 11.5368 9.0399 11.5368 9.09103 11.5439H28.3029C28.4409 11.562 28.5676 11.6298 28.6594 11.7344C28.7512 11.8391 28.8018 11.9735 28.8018 12.1127C28.8018 12.2519 28.7512 12.3864 28.6594 12.491C28.5676 12.5957 28.4409 12.6634 28.3029 12.6815Z" fill="#1464A5"/>
<path opacity="0.7" d="M28.303 16.1896H9.09109C8.95353 16.1707 8.82746 16.1027 8.7362 15.998C8.64494 15.8934 8.59467 15.7592 8.59467 15.6204C8.59467 15.4815 8.64494 15.3474 8.7362 15.2427C8.82746 15.138 8.95353 15.07 9.09109 15.0511H28.303C28.4405 15.07 28.5666 15.138 28.6578 15.2427C28.7491 15.3474 28.7994 15.4815 28.7994 15.6204C28.7994 15.7592 28.7491 15.8934 28.6578 15.998C28.5666 16.1027 28.4405 16.1707 28.303 16.1896Z" fill="#1464A5"/>
<path opacity="0.7" d="M28.3034 19.6951H9.0915C8.95348 19.677 8.82678 19.6093 8.73499 19.5046C8.6432 19.4 8.59259 19.2655 8.59259 19.1263C8.59259 18.9871 8.6432 18.8526 8.73499 18.748C8.82678 18.6433 8.95348 18.5756 9.0915 18.5575H28.3034C28.4414 18.5756 28.5681 18.6433 28.6599 18.748C28.7517 18.8526 28.8023 18.9871 28.8023 19.1263C28.8023 19.2655 28.7517 19.4 28.6599 19.5046C28.5681 19.6093 28.4414 19.677 28.3034 19.6951Z" fill="#1464A5"/>
</g>
<path d="M20.8832 20.9108C22.0264 18.8549 22.3278 16.4358 21.7241 14.1622C21.1203 11.8886 19.6583 9.93777 17.6457 8.71997L16.6657 10.4064C18.2459 11.3814 19.3832 12.9346 19.8356 14.7355C20.2879 16.5363 20.0196 18.4426 19.0877 20.0487C18.1559 21.6547 16.634 22.8336 14.8461 23.3346C13.0581 23.8355 11.1453 23.6189 9.51461 22.7309V22.7353L8.53464 24.428C9.87511 25.1811 11.3856 25.5798 12.9231 25.5862H13.1013C14.6944 25.5575 16.2521 25.1105 17.6179 24.2899C18.9838 23.4693 20.1098 22.304 20.8832 20.9108Z" fill="url(#paint3_linear_10856_1560)"/>
<defs>
<linearGradient id="paint0_linear_10856_1560" x1="7.55202" y1="-0.36345" x2="28.6731" y2="39.3583" gradientUnits="userSpaceOnUse">
<stop stop-color="#1C2645" stop-opacity="0.5"/>
<stop offset="1" stop-color="#1C2645" stop-opacity="0"/>
</linearGradient>
<linearGradient id="paint1_linear_10856_1560" x1="33.3724" y1="15.3055" x2="12.115" y2="15.3055" gradientUnits="userSpaceOnUse">
<stop stop-color="#043263" stop-opacity="0.1"/>
<stop offset="1" stop-color="#043263" stop-opacity="0"/>
</linearGradient>
<linearGradient id="paint2_linear_10856_1560" x1="7.1402" y1="10.8529" x2="15.4753" y2="19.188" gradientUnits="userSpaceOnUse">
<stop stop-color="white" stop-opacity="0.8"/>
<stop offset="1" stop-color="white" stop-opacity="0"/>
</linearGradient>
<linearGradient id="paint3_linear_10856_1560" x1="22.1544" y1="17.1504" x2="8.52038" y2="17.1504" gradientUnits="userSpaceOnUse">
<stop stop-color="#043263" stop-opacity="0.7"/>
<stop offset="1" stop-color="#043263" stop-opacity="0"/>
</linearGradient>
</defs>
</svg>
