<svg width="120" height="120" viewBox="0 0 120 120" fill="none" xmlns="http://www.w3.org/2000/svg">
<g clip-path="url(#clip0_14534_8204)">
<path d="M66.9865 120.061C96.2772 120.061 120.022 96.3159 120.022 67.0253C120.022 37.7346 96.2772 13.9899 66.9865 13.9899C37.6959 13.9899 13.9512 37.7346 13.9512 67.0253C13.9512 96.3159 37.6959 120.061 66.9865 120.061Z" fill="url(#paint0_linear_14534_8204)"/>
<path d="M53.4868 106.955C83.0389 106.955 106.996 82.9983 106.996 53.4463C106.996 23.8942 83.0389 -0.0625 53.4868 -0.0625C23.9347 -0.0625 -0.0219727 23.8942 -0.0219727 53.4463C-0.0219727 82.9983 23.9347 106.955 53.4868 106.955Z" fill="#DA3951"/>
<path d="M73.2889 66.8802L59.8546 53.4459L73.2889 40.0116C74.1328 39.1674 74.6067 38.0225 74.6064 36.8289C74.6062 35.6352 74.1317 34.4906 73.2875 33.6467C72.4433 32.8029 71.2985 32.329 70.1048 32.3292C68.9112 32.3295 67.7665 32.8039 66.9227 33.6481L53.4884 47.0824L40.0651 33.6481C39.2212 32.8039 38.0766 32.3295 36.8829 32.3292C35.6893 32.329 34.5445 32.8029 33.7002 33.6467C32.856 34.4906 32.3816 35.6352 32.3813 36.8289C32.3811 38.0225 32.855 39.1674 33.6989 40.0116L47.1359 53.4459L33.6989 66.8829C33.281 67.301 32.9496 67.7972 32.7236 68.3433C32.4975 68.8894 32.3812 69.4746 32.3813 70.0657C32.3815 70.6567 32.498 71.2419 32.7243 71.7879C32.9506 72.3339 33.2822 72.83 33.7002 73.2478C34.5445 74.0916 35.6893 74.5656 36.8829 74.5653C37.474 74.5652 38.0592 74.4486 38.6052 74.2224C39.1512 73.9961 39.6473 73.6644 40.0651 73.2464L53.4994 59.8121L66.9337 73.2464C67.7846 74.0578 68.919 74.5042 70.0947 74.4902C71.2703 74.4762 72.3938 74.003 73.2252 73.1716C74.0565 72.3403 74.5297 71.2168 74.5437 70.0412C74.5577 68.8655 74.1113 67.7311 73.2999 66.8802H73.2889Z" fill="white"/>
</g>
<defs>
<linearGradient id="paint0_linear_14534_8204" x1="39.7409" y1="15.7817" x2="89.9385" y2="110.188" gradientUnits="userSpaceOnUse">
<stop stop-color="#072146" stop-opacity="0.5"/>
<stop offset="1" stop-color="#072146" stop-opacity="0"/>
</linearGradient>
<clipPath id="clip0_14534_8204">
<rect width="120" height="120" fill="white"/>
</clipPath>
</defs>
</svg>
