<svg width="40" height="40" viewBox="0 0 40 40" fill="none" xmlns="http://www.w3.org/2000/svg">
<g clip-path="url(#clip0_3125_173929)">
<path d="M38.4651 6.08235H30.6426C29.7935 6.08235 29.1048 6.771 29.1048 7.62011V7.96777C24.5384 5.43382 18.9891 5.45388 14.4427 8.01457L8.77973 13.6842C6.31263 18.0635 6.19897 23.3921 8.47886 27.8783H5.16935C4.32024 27.8783 3.63159 28.567 3.63159 29.4161V34.4974C3.63159 35.3465 4.32024 36.0351 5.16935 36.0351H12.7244L14.1886 37.4927C14.2688 37.5729 14.3959 37.5729 14.4694 37.4927C14.5095 37.4525 14.5296 37.4057 14.5296 37.3523V35.4067V34.143C21.7637 38.1612 30.8833 35.5537 34.9082 28.3196C37.3285 23.9604 37.4221 18.6786 35.1556 14.2324H38.4651C39.3142 14.2324 40.0028 13.5438 40.0028 12.6947V7.61342C40.0028 6.771 39.3142 6.08235 38.4651 6.08235Z" fill="url(#paint0_linear_3125_173929)"/>
<path d="M18.1829 30.3938C25.3464 30.3938 31.1535 24.5867 31.1535 17.4232C31.1535 10.2597 25.3464 4.45258 18.1829 4.45258C11.0194 4.45258 5.21228 10.2597 5.21228 17.4232C5.21228 24.5867 11.0194 30.3938 18.1829 30.3938Z" fill="#4EA5E2"/>
<path d="M18.1832 2.44707C9.9261 2.44707 3.20679 9.16639 3.20679 17.4235C3.20679 25.6805 9.9261 32.3998 18.1832 32.3998C26.4402 32.3998 33.1596 25.6805 33.1596 17.4235C33.1596 9.16639 26.4402 2.44707 18.1832 2.44707ZM18.1832 30.3941C11.0293 30.3941 5.21255 24.5774 5.21255 17.4235C5.21255 10.2696 11.0293 4.45283 18.1832 4.45283C25.3371 4.45283 31.1538 10.2696 31.1538 17.4235C31.1538 24.5774 25.3371 30.3941 18.1832 30.3941Z" fill="#1B65A2"/>
<mask id="mask0_3125_173929" style="mask-type:luminance" maskUnits="userSpaceOnUse" x="5" y="4" width="27" height="27">
<path d="M31.2133 17.4211C31.2133 24.6152 25.3765 30.4519 18.1825 30.4519C10.9885 30.4519 5.15167 24.6152 5.15167 17.4211C5.15167 10.2271 10.9885 4.39035 18.1825 4.39035C25.3765 4.39035 31.2133 10.2271 31.2133 17.4211Z" fill="white"/>
</mask>
<g mask="url(#mask0_3125_173929)">
<path opacity="0.5" d="M18.1825 4.39041C10.9885 4.39041 5.15167 10.2272 5.15167 17.4212C5.15167 22.0679 7.62545 26.3602 11.6437 28.6936L24.6678 6.11537C22.6954 4.97876 20.4557 4.38372 18.1825 4.39041Z" fill="url(#paint1_linear_3125_173929)"/>
</g>
<path d="M18.1823 7.48759C18.522 7.48759 18.7974 7.2122 18.7974 6.87249C18.7974 6.53278 18.522 6.25739 18.1823 6.25739C17.8426 6.25739 17.5672 6.53278 17.5672 6.87249C17.5672 7.2122 17.8426 7.48759 18.1823 7.48759Z" fill="white"/>
<path d="M18.1823 28.5894C18.522 28.5894 18.7974 28.314 18.7974 27.9743C18.7974 27.6346 18.522 27.3592 18.1823 27.3592C17.8426 27.3592 17.5672 27.6346 17.5672 27.9743C17.5672 28.314 17.8426 28.5894 18.1823 28.5894Z" fill="white"/>
<path d="M28.733 18.0388C29.0727 18.0388 29.3481 17.7634 29.3481 17.4237C29.3481 17.0839 29.0727 16.8085 28.733 16.8085C28.3932 16.8085 28.1179 17.0839 28.1179 17.4237C28.1179 17.7634 28.3932 18.0388 28.733 18.0388Z" fill="white"/>
<path d="M7.81316 18.0388C8.15287 18.0388 8.42826 17.7634 8.42826 17.4237C8.42826 17.0839 8.15287 16.8085 7.81316 16.8085C7.47345 16.8085 7.19806 17.0839 7.19806 17.4237C7.19806 17.7634 7.47345 18.0388 7.81316 18.0388Z" fill="white"/>
<path d="M12.9078 8.8993C13.2475 8.8993 13.5229 8.62391 13.5229 8.2842C13.5229 7.94449 13.2475 7.6691 12.9078 7.6691C12.5681 7.6691 12.2927 7.94449 12.2927 8.2842C12.2927 8.62391 12.5681 8.8993 12.9078 8.8993Z" fill="white"/>
<path d="M23.4579 27.1782C23.7976 27.1782 24.073 26.9028 24.073 26.5631C24.073 26.2234 23.7976 25.948 23.4579 25.948C23.1182 25.948 22.8428 26.2234 22.8428 26.5631C22.8428 26.9028 23.1182 27.1782 23.4579 27.1782Z" fill="white"/>
<path d="M27.3218 12.7637C27.6615 12.7637 27.9369 12.4883 27.9369 12.1486C27.9369 11.8089 27.6615 11.5335 27.3218 11.5335C26.9821 11.5335 26.7067 11.8089 26.7067 12.1486C26.7067 12.4883 26.9821 12.7637 27.3218 12.7637Z" fill="white"/>
<path d="M9.04284 23.3133C9.38255 23.3133 9.65794 23.0379 9.65794 22.6982C9.65794 22.3585 9.38255 22.0831 9.04284 22.0831C8.70312 22.0831 8.42773 22.3585 8.42773 22.6982C8.42773 23.0379 8.70312 23.3133 9.04284 23.3133Z" fill="white"/>
<path d="M9.04284 12.7637C9.38255 12.7637 9.65794 12.4883 9.65794 12.1486C9.65794 11.8089 9.38255 11.5335 9.04284 11.5335C8.70312 11.5335 8.42773 11.8089 8.42773 12.1486C8.42773 12.4883 8.70312 12.7637 9.04284 12.7637Z" fill="white"/>
<path d="M27.3218 23.3133C27.6615 23.3133 27.9369 23.0379 27.9369 22.6982C27.9369 22.3585 27.6615 22.0831 27.3218 22.0831C26.9821 22.0831 26.7067 22.3585 26.7067 22.6982C26.7067 23.0379 26.9821 23.3133 27.3218 23.3133Z" fill="white"/>
<path d="M23.4579 8.8993C23.7976 8.8993 24.073 8.62391 24.073 8.2842C24.073 7.94449 23.7976 7.6691 23.4579 7.6691C23.1182 7.6691 22.8428 7.94449 22.8428 8.2842C22.8428 8.62391 23.1182 8.8993 23.4579 8.8993Z" fill="white"/>
<path d="M12.9078 27.1782C13.2475 27.1782 13.5229 26.9028 13.5229 26.5631C13.5229 26.2234 13.2475 25.948 12.9078 25.948C12.5681 25.948 12.2927 26.2234 12.2927 26.5631C12.2927 26.9028 12.5681 27.1782 12.9078 27.1782Z" fill="white"/>
<path d="M19.2663 18.8813L17.0867 18.8011L17.0332 8.70538L19.2663 10.1362V18.8813Z" fill="#1B65A2"/>
<path d="M22.9435 19.536C23.4984 19.8034 23.7391 20.472 23.4717 21.0269C23.2176 21.5618 22.5958 21.8025 22.0476 21.5819L17.7486 19.6898C17.1936 19.4156 16.9663 18.7471 17.2404 18.1921C17.4945 17.6706 18.1096 17.4366 18.6511 17.6439L22.9435 19.536Z" fill="#083361"/>
<path d="M27.0074 2.44707H34.8299C35.679 2.44707 36.3677 3.13571 36.3677 3.98482V9.0661C36.3677 9.91521 35.679 10.6039 34.8299 10.6039H27.2749L25.8106 12.0681C25.7304 12.1483 25.6034 12.1483 25.5298 12.0681C25.4897 12.0279 25.4697 11.9811 25.4697 11.9277V9.98206V3.98482C25.4697 3.13571 26.1583 2.44707 27.0074 2.44707Z" fill="#F8CD50"/>
<path d="M34.8302 2.44707H33.5466L27.8101 10.6039H34.8302C35.6793 10.6039 36.368 9.91521 36.368 9.0661V3.98482C36.368 3.13571 35.6793 2.44707 34.8302 2.44707Z" fill="url(#paint2_linear_3125_173929)"/>
<path d="M9.35725 24.2435H1.53476C0.685656 24.2435 -0.00299072 24.9322 -0.00299072 25.7813V30.8626C-0.00299072 31.7117 0.685656 32.4003 1.53476 32.4003H9.08982L10.554 33.8579C10.6343 33.9381 10.7613 33.9381 10.8348 33.8579C10.8749 33.8177 10.895 33.7709 10.895 33.7175V25.7813C10.895 24.9322 10.2064 24.2435 9.35725 24.2435Z" fill="#2DCCCD"/>
<path d="M9.35759 24.2435H8.07389L2.3374 32.4003H9.09015L10.5544 33.8579C10.6346 33.9381 10.7616 33.9381 10.8352 33.8579C10.8753 33.8177 10.8953 33.7709 10.8953 33.7175V25.7813C10.8953 24.9322 10.2067 24.2435 9.35759 24.2435Z" fill="url(#paint3_linear_3125_173929)"/>
<path d="M34.2283 5.99003H27.6093C27.4221 5.99003 27.275 5.84294 27.275 5.65574C27.275 5.46853 27.4221 5.32144 27.6093 5.32144H34.2283C34.4155 5.32144 34.5626 5.46853 34.5626 5.65574C34.5626 5.84294 34.4155 5.99003 34.2283 5.99003Z" fill="white"/>
<path d="M31.0525 7.7288H27.6093C27.4221 7.7288 27.275 7.58171 27.275 7.39451C27.275 7.2073 27.4221 7.06021 27.6093 7.06021H31.0525C31.2397 7.06021 31.3868 7.2073 31.3868 7.39451C31.3868 7.58171 31.2397 7.7288 31.0525 7.7288Z" fill="white"/>
<path d="M8.75514 27.787H2.13611C1.94891 27.787 1.80182 27.6399 1.80182 27.4527C1.80182 27.2655 1.94891 27.1184 2.13611 27.1184H8.75514C8.94235 27.1184 9.08944 27.2655 9.08944 27.4527C9.08944 27.6399 8.94235 27.787 8.75514 27.787Z" fill="white"/>
<path d="M5.57935 29.5242H2.13611C1.94891 29.5242 1.80182 29.3772 1.80182 29.1899C1.80182 29.0027 1.94891 28.8557 2.13611 28.8557H5.57935C5.76655 28.8557 5.91364 29.0027 5.91364 29.1899C5.91364 29.3772 5.76655 29.5242 5.57935 29.5242Z" fill="white"/>
</g>
<defs>
<linearGradient id="paint0_linear_3125_173929" x1="14.7831" y1="7.82855" x2="28.8443" y2="34.2734" gradientUnits="userSpaceOnUse">
<stop stop-color="#192647" stop-opacity="0.5"/>
<stop offset="1" stop-color="#192647" stop-opacity="0"/>
</linearGradient>
<linearGradient id="paint1_linear_3125_173929" x1="7.53301" y1="7.09117" x2="22.786" y2="22.3442" gradientUnits="userSpaceOnUse">
<stop stop-color="white" stop-opacity="0.5"/>
<stop offset="1" stop-color="white" stop-opacity="0"/>
</linearGradient>
<linearGradient id="paint2_linear_3125_173929" x1="36.368" y1="6.52546" x2="27.8101" y2="6.52546" gradientUnits="userSpaceOnUse">
<stop stop-color="#C49735" stop-opacity="0.4"/>
<stop offset="1" stop-color="#C49735" stop-opacity="0"/>
</linearGradient>
<linearGradient id="paint3_linear_3125_173929" x1="10.8953" y1="29.0808" x2="2.3374" y2="29.0808" gradientUnits="userSpaceOnUse">
<stop stop-color="#028484" stop-opacity="0.4"/>
<stop offset="1" stop-color="#028484" stop-opacity="0"/>
</linearGradient>
<clipPath id="clip0_3125_173929">
<rect width="40" height="40" fill="white"/>
</clipPath>
</defs>
</svg>
