<svg width="40" height="40" viewBox="0 0 40 40" fill="none" xmlns="http://www.w3.org/2000/svg">
<path d="M32.5302 9.78817V4.29186C32.4778 4.23069 32.4079 4.19574 32.3293 4.19574H29.8039C29.6554 4.19574 29.5418 4.30934 29.5418 4.45788V7.17546C24.36 4.09962 17.6666 5.82104 14.5908 11.0028C11.8295 15.6602 12.9043 21.6371 17.1074 25.045L10.5712 36.3784C10.4489 36.3085 10.2916 36.3522 10.2217 36.4745L9.3566 37.9775C9.2867 38.0998 9.33039 38.2659 9.45272 38.3358L12.2577 39.9523C12.38 40.0222 12.546 39.9785 12.6159 39.8562L13.4898 38.3532C13.5597 38.2309 13.5247 38.0736 13.4024 37.995L19.9298 26.6878C25.5222 28.9335 31.8749 26.2247 34.1293 20.6322C35.5799 17.0059 34.9769 12.8553 32.5302 9.78817Z" fill="url(#paint0_linear_5328_156953)"/>
<path d="M5.40247 33.8395L13.3804 20.0245L16.2028 21.6498L8.2249 35.4648C8.15499 35.5872 7.98897 35.6308 7.86664 35.5609L5.49859 34.1978C5.36752 34.1279 5.33257 33.9619 5.40247 33.8395Z" fill="#004481"/>
<path d="M28.3232 12.3783C28.3232 17.1057 24.4959 20.933 19.7685 20.933C15.0412 20.933 11.2139 17.1057 11.2139 12.3783C11.2139 7.65099 15.0412 3.82367 19.7685 3.82367C24.4871 3.82367 28.3232 7.65099 28.3232 12.3783Z" fill="#49A5E6"/>
<path d="M19.7587 23.3009C13.7294 23.3009 8.84473 18.4163 8.84473 12.3869C8.84473 6.3576 13.7294 1.47296 19.7587 1.47296C25.788 1.47296 30.6727 6.3576 30.6727 12.3869C30.6727 18.4075 25.788 23.2922 19.7587 23.3009ZM19.7587 3.82353C15.0314 3.82353 11.204 7.65085 11.204 12.3782C11.204 17.1055 15.0314 20.9329 19.7587 20.9329C24.4861 20.9329 28.3134 17.1055 28.3134 12.3782C28.3134 7.65085 24.4861 3.82353 19.7587 3.82353Z" fill="#1464A5"/>
<path opacity="0.5" d="M24.0234 4.9594C19.934 2.6001 14.6998 3.9982 12.3405 8.0964C9.9812 12.1946 11.3793 17.42 15.4775 19.7793L24.0234 4.9594Z" fill="url(#paint1_linear_5328_156953)"/>
<path d="M28.1127 0.0140381H25.5873C25.4388 0.0140381 25.3252 0.127634 25.3252 0.276183V18.8797C27.2214 17.2544 28.3224 14.8777 28.3136 12.3785V0.110158C28.27 0.0489913 28.1913 0.0140381 28.1127 0.0140381Z" fill="#F8CD50"/>
<path d="M24.0502 6.76807H21.5248C21.3763 6.76807 21.2627 6.88166 21.2627 7.03021V20.8016C22.3462 20.6093 23.3861 20.2074 24.3123 19.6219V7.03021C24.3123 6.88166 24.19 6.76807 24.0502 6.76807Z" fill="#F8CD50"/>
<path d="M19.9779 12.5355H17.4526C17.304 12.5355 17.1904 12.6491 17.1904 12.7976V20.5396C18.0206 20.8018 18.8856 20.9328 19.7595 20.9328C19.9255 20.9328 20.0828 20.9241 20.2401 20.9154V12.7889C20.2401 12.6491 20.1265 12.5355 19.9779 12.5355Z" fill="#F8CD50"/>
<path d="M5.13194 33.7952L5.99702 32.2923C6.06692 32.1699 6.23295 32.1262 6.35528 32.1961L9.16023 33.8214C9.28257 33.8913 9.32626 34.0574 9.25636 34.1797L8.39128 35.6827C8.32137 35.805 8.15535 35.8487 8.03301 35.7788L5.22806 34.1622C5.09699 34.0836 5.0533 33.9176 5.13194 33.7952Z" fill="#2DCCCD"/>
<defs>
<linearGradient id="paint0_linear_5328_156953" x1="14.5347" y1="9.22084" x2="26.8314" y2="32.3469" gradientUnits="userSpaceOnUse">
<stop stop-color="#192647" stop-opacity="0.5"/>
<stop offset="1" stop-color="#192647" stop-opacity="0"/>
</linearGradient>
<linearGradient id="paint1_linear_5328_156953" x1="12.7713" y1="5.60163" x2="22.7835" y2="15.6138" gradientUnits="userSpaceOnUse">
<stop stop-color="white" stop-opacity="0.5"/>
<stop offset="1" stop-color="white" stop-opacity="0"/>
</linearGradient>
</defs>
</svg>
