<svg width="48" height="48" viewBox="0 0 48 48" fill="none" xmlns="http://www.w3.org/2000/svg">
<g clip-path="url(#clip0_10421_1364)">
<path d="M37.0924 4.80011H19.5705C19.5316 4.80011 19.4931 4.80777 19.4572 4.82265C19.4213 4.83753 19.3886 4.85935 19.3611 4.88684C19.3336 4.91434 19.3118 4.94699 19.2969 4.98291C19.2821 5.01884 19.2744 5.05735 19.2744 5.09624V13.9534C17.2558 14.3759 15.3984 15.3622 13.9178 16.7978C12.4372 18.2334 11.394 20.0594 10.9094 22.064C10.4248 24.0686 10.5185 26.1695 11.1798 28.1229C11.8411 30.0764 13.0428 31.8022 14.6454 33.1002L8.10808 44.4237C8.04825 44.3908 7.9779 44.3827 7.91214 44.4011C7.84638 44.4194 7.79045 44.4629 7.75636 44.5221L6.88829 46.0262C6.87099 46.0556 6.85968 46.0881 6.85499 46.1219C6.85031 46.1557 6.85235 46.19 6.86099 46.223C6.86963 46.256 6.88471 46.287 6.90536 46.3141C6.926 46.3412 6.95181 46.364 6.9813 46.3811L9.78544 48.0008C9.8152 48.0181 9.84807 48.0293 9.88218 48.0339C9.91629 48.0384 9.95096 48.0362 9.98422 48.0274C10.0175 48.0186 10.0487 48.0033 10.076 47.9824C10.1034 47.9615 10.1263 47.9354 10.1436 47.9056L11.0116 46.4015C11.0461 46.3424 11.0559 46.2721 11.0389 46.2059C11.0219 46.1396 10.9795 46.0827 10.9208 46.0476L17.442 34.7498L17.5949 34.8107L17.6569 34.8342C17.7456 34.8674 17.8354 34.9005 17.9252 34.9315L17.968 34.9465L18.2887 35.0534L18.3101 35.0598C18.4063 35.0887 18.5025 35.1165 18.5998 35.1432L18.6757 35.1646C18.7613 35.187 18.8468 35.2095 18.9334 35.2298C18.9558 35.2298 18.9772 35.2416 18.9997 35.2458C19.0895 35.2672 19.1793 35.2875 19.2701 35.3068V39.6044C19.2701 39.6767 19.2988 39.746 19.35 39.7971C19.4011 39.8483 19.4704 39.877 19.5427 39.877H20.4878L45.2696 39.9679H45.724C45.7955 39.9679 45.8641 39.9399 45.9153 39.89C45.9664 39.84 45.996 39.7721 45.9977 39.7006V13.7064L37.0924 4.80011Z" fill="url(#paint0_linear_10421_1364)"/>
<path d="M41.247 8.86971L32.3385 -0.0366211H14.8166C14.7381 -0.0366211 14.6628 -0.00542151 14.6072 0.0501135C14.5517 0.105649 14.5205 0.18097 14.5205 0.259509V34.7719C14.5205 34.8442 14.5492 34.9136 14.6004 34.9647C14.6515 35.0158 14.7208 35.0445 14.7931 35.0445H40.9744C41.0467 35.0445 41.116 35.0158 41.1671 34.9647C41.2182 34.9136 41.247 34.8442 41.247 34.7719V8.86971Z" fill="#D4EDFC"/>
<path d="M33.8824 1.59845L15.7373 35.0439L40.5191 35.1348H40.9735C41.0449 35.1348 41.1134 35.1068 41.1644 35.0569C41.2154 35.0069 41.2447 34.9389 41.2461 34.8675V8.95999L33.8824 1.59845Z" fill="url(#paint1_linear_10421_1364)"/>
<path d="M32.6714 8.86971H41.2464L32.3379 -0.0366211V8.54044C32.3387 8.62824 32.3743 8.71215 32.4368 8.77384C32.4993 8.83553 32.5836 8.86999 32.6714 8.86971Z" fill="#49A5E6"/>
<path opacity="0.35" d="M37.3276 12.5428H19.4391C19.3635 12.553 19.2867 12.547 19.2137 12.525C19.1407 12.5031 19.0732 12.4658 19.0158 12.4156C18.9584 12.3654 18.9124 12.3035 18.8808 12.2341C18.8493 12.1647 18.833 12.0893 18.833 12.0131C18.833 11.9369 18.8493 11.8615 18.8808 11.7921C18.9124 11.7227 18.9584 11.6608 19.0158 11.6106C19.0732 11.5605 19.1407 11.5232 19.2137 11.5012C19.2867 11.4793 19.3635 11.4732 19.4391 11.4834H37.3276C37.4559 11.5007 37.5734 11.5639 37.6586 11.6613C37.7437 11.7588 37.7906 11.8837 37.7906 12.0131C37.7906 12.1425 37.7437 12.2675 37.6586 12.3649C37.5734 12.4623 37.4559 12.5255 37.3276 12.5428Z" fill="#4AA3E3"/>
<path opacity="0.35" d="M37.3271 15.81H19.4386C19.3104 15.7927 19.1928 15.7295 19.1076 15.6321C19.0225 15.5347 18.9756 15.4097 18.9756 15.2803C18.9756 15.151 19.0225 15.026 19.1076 14.9286C19.1928 14.8312 19.3104 14.7679 19.4386 14.7506H37.3271C37.4553 14.7679 37.5729 14.8312 37.658 14.9286C37.7432 15.026 37.7901 15.151 37.7901 15.2803C37.7901 15.4097 37.7432 15.5347 37.658 15.6321C37.5729 15.7295 37.4553 15.7927 37.3271 15.81Z" fill="#4AA3E3"/>
<path opacity="0.35" d="M37.3271 19.0727H19.4386C19.3104 19.0554 19.1928 18.9922 19.1076 18.8948C19.0225 18.7974 18.9756 18.6724 18.9756 18.543C18.9756 18.4137 19.0225 18.2887 19.1076 18.1913C19.1928 18.0939 19.3104 18.0306 19.4386 18.0133H37.3271C37.4553 18.0306 37.5729 18.0939 37.658 18.1913C37.7432 18.2887 37.7901 18.4137 37.7901 18.543C37.7901 18.6724 37.7432 18.7974 37.658 18.8948C37.5729 18.9922 37.4553 19.0554 37.3271 19.0727Z" fill="#4AA3E3"/>
<path opacity="0.35" d="M37.3276 25.6031H19.439C19.3632 25.6139 19.286 25.6083 19.2126 25.5867C19.1391 25.5651 19.0712 25.5279 19.0133 25.4777C18.9555 25.4275 18.9091 25.3655 18.8773 25.2959C18.8456 25.2262 18.8291 25.1505 18.8291 25.074C18.8291 24.9974 18.8456 24.9217 18.8773 24.8521C18.9091 24.7824 18.9555 24.7204 19.0133 24.6702C19.0712 24.62 19.1391 24.5829 19.2126 24.5612C19.286 24.5396 19.3632 24.534 19.439 24.5448H37.3276C37.4676 24.5255 37.6096 24.5624 37.7225 24.6475C37.8354 24.7326 37.9099 24.859 37.9298 24.9989C37.9498 25.1389 37.9135 25.281 37.8288 25.3943C37.7442 25.5075 37.6182 25.5826 37.4783 25.6031C37.4284 25.6106 37.3776 25.6106 37.3276 25.6031Z" fill="#4AA3E3"/>
<path opacity="0.35" d="M37.3277 28.8672H27.2657C27.1375 28.8499 27.0199 28.7866 26.9348 28.6892C26.8497 28.5918 26.8027 28.4668 26.8027 28.3375C26.8027 28.2081 26.8497 28.0831 26.9348 27.9857C27.0199 27.8883 27.1375 27.8251 27.2657 27.8077H37.3277C37.4559 27.8251 37.5735 27.8883 37.6586 27.9857C37.7437 28.0831 37.7907 28.2081 37.7907 28.3375C37.7907 28.4668 37.7437 28.5918 37.6586 28.6892C37.5735 28.7866 37.4559 28.8499 37.3277 28.8672Z" fill="#4AA3E3"/>
<path d="M2.40471 41.2312L10.3735 27.4297L13.1894 29.0557L5.22061 42.8573C5.20344 42.8871 5.18055 42.9133 5.15325 42.9343C5.12595 42.9553 5.09477 42.9707 5.06151 42.9797C5.02824 42.9886 4.99354 42.9909 4.95938 42.9864C4.92523 42.9819 4.8923 42.9707 4.86248 42.9535L2.49986 41.5883C2.46993 41.5713 2.44367 41.5486 2.42259 41.5214C2.40152 41.4942 2.38606 41.4631 2.37711 41.4299C2.36816 41.3967 2.3659 41.362 2.37045 41.3279C2.37501 41.2938 2.38629 41.2609 2.40364 41.2312H2.40471Z" fill="#043263"/>
<path d="M25.3071 19.7942C25.3071 21.4857 24.8055 23.1393 23.8657 24.5457C22.926 25.9522 21.5903 27.0484 20.0275 27.6957C18.4648 28.343 16.7451 28.5124 15.0861 28.1824C13.4271 27.8524 11.9032 27.0378 10.7071 25.8417C9.51103 24.6457 8.69648 23.1217 8.36649 21.4627C8.03649 19.8037 8.20585 18.0841 8.85317 16.5213C9.50049 14.9586 10.5967 13.6229 12.0031 12.6831C13.4096 11.7434 15.0631 11.2418 16.7546 11.2418C19.0229 11.2418 21.1982 12.1428 22.8021 13.7467C24.406 15.3506 25.3071 17.526 25.3071 19.7942Z" fill="#65A4E0"/>
<path d="M16.754 30.6988C14.5973 30.6988 12.4891 30.0592 10.6959 28.861C8.90263 27.6628 7.50499 25.9598 6.67966 23.9673C5.85433 21.9748 5.63839 19.7823 6.05914 17.667C6.47989 15.5518 7.51843 13.6088 9.04344 12.0838C10.5684 10.5588 12.5114 9.52023 14.6267 9.09948C16.7419 8.67873 18.9344 8.89468 20.9269 9.72001C22.9195 10.5453 24.6225 11.943 25.8207 13.7362C27.0189 15.5294 27.6584 17.6377 27.6584 19.7944C27.6584 22.6864 26.5096 25.46 24.4646 27.5049C22.4196 29.5499 19.646 30.6988 16.754 30.6988ZM16.754 11.2419C15.0625 11.2419 13.409 11.7435 12.0025 12.6832C10.5961 13.623 9.49988 14.9587 8.85256 16.5215C8.20524 18.0842 8.03588 19.8038 8.36588 21.4629C8.69588 23.1219 9.51042 24.6458 10.7065 25.8419C11.9026 27.0379 13.4265 27.8525 15.0855 28.1825C16.7445 28.5125 18.4641 28.3431 20.0269 27.6958C21.5897 27.0485 22.9254 25.9523 23.8651 24.5459C24.8049 23.1394 25.3065 21.4859 25.3065 19.7944C25.3065 17.5261 24.4054 15.3507 22.8015 13.7468C21.1976 12.1429 19.0223 11.2419 16.754 11.2419Z" fill="#1464A5"/>
<path opacity="0.5" d="M21.009 12.3821C19.0458 11.2492 16.7131 10.9426 14.5238 11.5298C12.3346 12.1169 10.4683 13.5496 9.33544 15.5128C8.20259 17.476 7.896 19.8088 8.48313 21.998C9.07026 24.1872 10.503 26.0535 12.4662 27.1864L21.009 12.3821Z" fill="url(#paint2_linear_10421_1364)"/>
<path d="M3.00099 39.6866L2.13291 41.1901C2.06059 41.3154 2.10351 41.4756 2.22878 41.5479L5.03405 43.1675C5.15933 43.2398 5.31952 43.1969 5.39184 43.0716L6.25992 41.5681C6.33224 41.4428 6.28932 41.2826 6.16405 41.2103L3.35878 39.5907C3.2335 39.5184 3.07332 39.5613 3.00099 39.6866Z" fill="#2DCCCD"/>
<mask id="mask0_10421_1364" style="mask-type:luminance" maskUnits="userSpaceOnUse" x="8" y="11" width="18" height="18">
<path d="M16.7536 11.2122C15.0621 11.2122 13.4086 11.7138 12.0021 12.6535C10.5957 13.5933 9.49951 14.929 8.85219 16.4917C8.20488 18.0545 8.03551 19.7741 8.36551 21.4331C8.69551 23.0921 9.51005 24.6161 10.7061 25.8121C11.9022 27.0082 13.4261 27.8228 15.0851 28.1528C16.7442 28.4828 18.4638 28.3134 20.0265 27.6661C21.5893 27.0188 22.925 25.9226 23.8648 24.5161C24.8045 23.1097 25.3061 21.4561 25.3061 19.7646C25.3061 17.4964 24.4051 15.321 22.8012 13.7171C21.1973 12.1132 19.0219 11.2122 16.7536 11.2122Z" fill="white"/>
</mask>
<g mask="url(#mask0_10421_1364)">
<path opacity="0.7" d="M35.1637 15.2179H12.1094C12.0198 15.2301 11.9286 15.2244 11.8412 15.2013C11.7537 15.1783 11.6717 15.1382 11.5997 15.0834C11.4543 14.9727 11.3589 14.8088 11.3344 14.6278C11.3098 14.4468 11.3582 14.2634 11.4689 14.118C11.5796 13.9727 11.7434 13.8772 11.9245 13.8527C11.9858 13.8442 12.0481 13.8442 12.1094 13.8527H35.1637C35.3293 13.8745 35.4813 13.9558 35.5915 14.0813C35.7016 14.2069 35.7624 14.3683 35.7624 14.5353C35.7624 14.7024 35.7016 14.8637 35.5915 14.9893C35.4813 15.1149 35.3293 15.1961 35.1637 15.2179Z" fill="#1464A5"/>
<path opacity="0.7" d="M35.1636 19.4276H12.1094C11.9443 19.4049 11.793 19.3232 11.6835 19.1977C11.574 19.0721 11.5137 18.9111 11.5137 18.7445C11.5137 18.5778 11.574 18.4169 11.6835 18.2913C11.793 18.1657 11.9443 18.084 12.1094 18.0613H35.1636C35.3287 18.084 35.48 18.1657 35.5895 18.2913C35.699 18.4169 35.7593 18.5778 35.7593 18.7445C35.7593 18.9111 35.699 19.0721 35.5895 19.1977C35.48 19.3232 35.3287 19.4049 35.1636 19.4276Z" fill="#1464A5"/>
<path opacity="0.7" d="M35.1647 23.6342H12.1104C11.9448 23.6124 11.7927 23.5311 11.6826 23.4055C11.5725 23.28 11.5117 23.1186 11.5117 22.9516C11.5117 22.7845 11.5725 22.6232 11.6826 22.4976C11.7927 22.372 11.9448 22.2908 12.1104 22.269H35.1647C35.3303 22.2908 35.4823 22.372 35.5925 22.4976C35.7026 22.6232 35.7633 22.7845 35.7633 22.9516C35.7633 23.1186 35.7026 23.28 35.5925 23.4055C35.4823 23.5311 35.3303 23.6124 35.1647 23.6342Z" fill="#1464A5"/>
</g>
<path d="M26.2596 25.093C27.6315 22.6259 27.9933 19.723 27.2687 16.9947C26.5442 14.2664 24.7898 11.9253 22.3747 10.464L21.1987 12.4877C23.0949 13.6577 24.4597 15.5216 25.0025 17.6826C25.5453 19.8436 25.2234 22.1312 24.1051 24.0584C22.9869 25.9856 21.1607 27.4004 19.0151 28.0015C16.8696 28.6026 14.5742 28.3427 12.6174 27.2771V27.2824L11.4414 29.3136C13.05 30.2174 14.8625 30.6957 16.7076 30.7034H16.9214C18.8332 30.6691 20.7023 30.1326 22.3413 29.1479C23.9804 28.1632 25.3316 26.7648 26.2596 25.093Z" fill="url(#paint3_linear_10421_1364)"/>
</g>
<defs>
<linearGradient id="paint0_linear_10421_1364" x1="10.2622" y1="-0.436139" x2="35.6075" y2="47.23" gradientUnits="userSpaceOnUse">
<stop stop-color="#1C2645" stop-opacity="0.5"/>
<stop offset="1" stop-color="#1C2645" stop-opacity="0"/>
</linearGradient>
<linearGradient id="paint1_linear_10421_1364" x1="41.2461" y1="18.3666" x2="15.7373" y2="18.3666" gradientUnits="userSpaceOnUse">
<stop stop-color="#043263" stop-opacity="0.1"/>
<stop offset="1" stop-color="#043263" stop-opacity="0"/>
</linearGradient>
<linearGradient id="paint2_linear_10421_1364" x1="9.76787" y1="13.0235" x2="19.77" y2="23.0256" gradientUnits="userSpaceOnUse">
<stop stop-color="white" stop-opacity="0.8"/>
<stop offset="1" stop-color="white" stop-opacity="0"/>
</linearGradient>
<linearGradient id="paint3_linear_10421_1364" x1="27.7852" y1="20.5805" x2="11.4243" y2="20.5805" gradientUnits="userSpaceOnUse">
<stop stop-color="#043263" stop-opacity="0.7"/>
<stop offset="1" stop-color="#043263" stop-opacity="0"/>
</linearGradient>
<clipPath id="clip0_10421_1364">
<rect width="48" height="48" fill="white"/>
</clipPath>
</defs>
</svg>
