<svg width="44" height="48" viewBox="0 0 44 48" fill="none" xmlns="http://www.w3.org/2000/svg">
<path d="M35.0926 4.80011H17.5708C17.5319 4.80011 17.4934 4.80777 17.4574 4.82265C17.4215 4.83753 17.3889 4.85935 17.3614 4.88684C17.3339 4.91434 17.3121 4.94699 17.2972 4.98291C17.2823 5.01884 17.2746 5.05735 17.2746 5.09624V13.9534C15.2561 14.3759 13.3987 15.3622 11.9181 16.7978C10.4374 18.2334 9.39427 20.0594 8.90964 22.064C8.425 24.0686 8.51877 26.1695 9.18004 28.1229C9.84132 30.0764 11.043 31.8022 12.6456 33.1002L6.10833 44.4237C6.04849 44.3908 5.97814 44.3827 5.91238 44.4011C5.84662 44.4194 5.79069 44.4629 5.75661 44.5221L4.88853 46.0262C4.87124 46.0556 4.85992 46.0881 4.85524 46.1219C4.85055 46.1557 4.85259 46.19 4.86123 46.223C4.86988 46.256 4.88496 46.287 4.9056 46.3141C4.92625 46.3412 4.95206 46.364 4.98154 46.3811L7.78568 48.0008C7.81544 48.0181 7.84831 48.0293 7.88242 48.0339C7.91653 48.0384 7.9512 48.0362 7.98446 48.0274C8.01772 48.0186 8.04892 48.0033 8.07626 47.9824C8.1036 47.9615 8.12656 47.9354 8.14382 47.9056L9.01189 46.4015C9.04638 46.3424 9.05618 46.2721 9.03917 46.2059C9.02215 46.1396 8.9797 46.0827 8.92102 46.0476L15.4423 34.7498L15.5952 34.8107L15.6572 34.8342C15.7459 34.8674 15.8357 34.9005 15.9255 34.9315L15.9683 34.9465L16.289 35.0534L16.3104 35.0598C16.4066 35.0887 16.5028 35.1165 16.6001 35.1432L16.676 35.1646C16.7615 35.187 16.847 35.2095 16.9336 35.2298C16.9561 35.2298 16.9774 35.2416 16.9999 35.2458C17.0897 35.2672 17.1795 35.2875 17.2704 35.3068V39.6044C17.2704 39.6767 17.2991 39.746 17.3502 39.7971C17.4013 39.8483 17.4707 39.877 17.543 39.877H18.488L43.2699 39.9679H43.7242C43.7957 39.9679 43.8644 39.9399 43.9155 39.89C43.9667 39.84 43.9962 39.7721 43.9979 39.7006V13.7064L35.0926 4.80011Z" fill="url(#paint0_linear_10609_64602)"/>
<path d="M39.247 8.86971L30.3385 -0.0366211H12.8166C12.7381 -0.0366211 12.6628 -0.00542151 12.6072 0.0501135C12.5517 0.105649 12.5205 0.18097 12.5205 0.259509V34.7719C12.5205 34.8442 12.5492 34.9136 12.6004 34.9647C12.6515 35.0158 12.7208 35.0445 12.7931 35.0445H38.9744C39.0467 35.0445 39.116 35.0158 39.1671 34.9647C39.2182 34.9136 39.247 34.8442 39.247 34.7719V8.86971Z" fill="#D4EDFC"/>
<path d="M31.8832 1.59845L13.738 35.0439L38.5199 35.1348H38.9742C39.0456 35.1348 39.1142 35.1068 39.1651 35.0569C39.2161 35.0069 39.2454 34.9389 39.2468 34.8675V8.95999L31.8832 1.59845Z" fill="url(#paint1_linear_10609_64602)"/>
<path d="M30.6722 8.86971H39.2471L30.3386 -0.0366211V8.54044C30.3395 8.62824 30.375 8.71215 30.4375 8.77384C30.5 8.83553 30.5844 8.86999 30.6722 8.86971Z" fill="#49A5E6"/>
<path opacity="0.35" d="M35.3276 12.5428H17.4391C17.3635 12.553 17.2867 12.547 17.2137 12.525C17.1407 12.5031 17.0732 12.4658 17.0158 12.4156C16.9584 12.3654 16.9124 12.3035 16.8808 12.2341C16.8493 12.1647 16.833 12.0893 16.833 12.0131C16.833 11.9369 16.8493 11.8615 16.8808 11.7921C16.9124 11.7227 16.9584 11.6608 17.0158 11.6106C17.0732 11.5605 17.1407 11.5232 17.2137 11.5012C17.2867 11.4793 17.3635 11.4732 17.4391 11.4834H35.3276C35.4559 11.5007 35.5734 11.5639 35.6586 11.6613C35.7437 11.7588 35.7906 11.8837 35.7906 12.0131C35.7906 12.1425 35.7437 12.2675 35.6586 12.3649C35.5734 12.4623 35.4559 12.5255 35.3276 12.5428Z" fill="#4AA3E3"/>
<path opacity="0.35" d="M35.3276 15.81H17.4391C17.3108 15.7927 17.1933 15.7295 17.1081 15.6321C17.023 15.5347 16.9761 15.4097 16.9761 15.2803C16.9761 15.151 17.023 15.026 17.1081 14.9286C17.1933 14.8312 17.3108 14.7679 17.4391 14.7506H35.3276C35.4558 14.7679 35.5734 14.8312 35.6585 14.9286C35.7437 15.026 35.7906 15.151 35.7906 15.2803C35.7906 15.4097 35.7437 15.5347 35.6585 15.6321C35.5734 15.7295 35.4558 15.7927 35.3276 15.81Z" fill="#4AA3E3"/>
<path opacity="0.35" d="M35.3276 19.0727H17.4391C17.3108 19.0554 17.1933 18.9922 17.1081 18.8948C17.023 18.7974 16.9761 18.6724 16.9761 18.543C16.9761 18.4137 17.023 18.2887 17.1081 18.1913C17.1933 18.0939 17.3108 18.0306 17.4391 18.0133H35.3276C35.4558 18.0306 35.5734 18.0939 35.6585 18.1913C35.7437 18.2887 35.7906 18.4137 35.7906 18.543C35.7906 18.6724 35.7437 18.7974 35.6585 18.8948C35.5734 18.9922 35.4558 19.0554 35.3276 19.0727Z" fill="#4AA3E3"/>
<path opacity="0.35" d="M35.3278 25.6031H17.4393C17.3635 25.6139 17.2862 25.6083 17.2128 25.5867C17.1393 25.5651 17.0714 25.5279 17.0136 25.4777C16.9557 25.4275 16.9094 25.3655 16.8776 25.2959C16.8458 25.2262 16.8293 25.1505 16.8293 25.074C16.8293 24.9974 16.8458 24.9217 16.8776 24.8521C16.9094 24.7824 16.9557 24.7204 17.0136 24.6702C17.0714 24.62 17.1393 24.5829 17.2128 24.5612C17.2862 24.5396 17.3635 24.534 17.4393 24.5448H35.3278C35.4679 24.5255 35.6099 24.5624 35.7227 24.6475C35.8356 24.7326 35.9102 24.859 35.9301 24.9989C35.95 25.1389 35.9137 25.281 35.8291 25.3943C35.7445 25.5075 35.6184 25.5826 35.4786 25.6031C35.4286 25.6106 35.3778 25.6106 35.3278 25.6031Z" fill="#4AA3E3"/>
<path opacity="0.35" d="M35.3279 28.8672H25.266C25.1377 28.8499 25.0202 28.7866 24.935 28.6892C24.8499 28.5918 24.803 28.4668 24.803 28.3375C24.803 28.2081 24.8499 28.0831 24.935 27.9857C25.0202 27.8883 25.1377 27.8251 25.266 27.8077H35.3279C35.4561 27.8251 35.5737 27.8883 35.6589 27.9857C35.744 28.0831 35.7909 28.2081 35.7909 28.3375C35.7909 28.4668 35.744 28.5918 35.6589 28.6892C35.5737 28.7866 35.4561 28.8499 35.3279 28.8672Z" fill="#4AA3E3"/>
<path d="M0.405446 41.2312L8.37421 27.4297L11.1901 29.0557L3.22135 42.8573C3.20418 42.8871 3.18129 42.9133 3.15398 42.9343C3.12668 42.9553 3.09551 42.9707 3.06224 42.9797C3.02897 42.9886 2.99427 42.9909 2.96012 42.9864C2.92597 42.9819 2.89303 42.9707 2.86321 42.9535L0.500592 41.5883C0.470661 41.5713 0.444398 41.5486 0.423326 41.5214C0.402255 41.4942 0.386795 41.4631 0.377844 41.4299C0.368893 41.3967 0.366628 41.362 0.371183 41.3279C0.375738 41.2938 0.387021 41.2609 0.404377 41.2312H0.405446Z" fill="#043263"/>
<path d="M23.3073 19.7942C23.3073 21.4857 22.8057 23.1393 21.866 24.5457C20.9262 25.9522 19.5905 27.0484 18.0278 27.6957C16.465 28.343 14.7454 28.5124 13.0864 28.1824C11.4273 27.8524 9.90344 27.0378 8.70736 25.8417C7.51127 24.6457 6.69673 23.1217 6.36673 21.4627C6.03673 19.8037 6.2061 18.0841 6.85341 16.5213C7.50073 14.9586 8.59692 13.6229 10.0034 12.6831C11.4098 11.7434 13.0633 11.2418 14.7549 11.2418C17.0231 11.2418 19.1985 12.1428 20.8024 13.7467C22.4063 15.3506 23.3073 17.526 23.3073 19.7942Z" fill="#65A4E0"/>
<path d="M14.755 30.6988C12.5983 30.6988 10.49 30.0592 8.69683 28.861C6.90361 27.6628 5.50597 25.9598 4.68064 23.9673C3.85531 21.9748 3.63937 19.7823 4.06012 17.667C4.48086 15.5518 5.51941 13.6088 7.04442 12.0838C8.56942 10.5588 10.5124 9.52023 12.6276 9.09948C14.7429 8.67873 16.9354 8.89468 18.9279 9.72001C20.9204 10.5453 22.6235 11.943 23.8217 13.7362C25.0199 15.5294 25.6594 17.6377 25.6594 19.7944C25.6594 22.6864 24.5105 25.46 22.4656 27.5049C20.4206 29.5499 17.647 30.6988 14.755 30.6988ZM14.755 11.2419C13.0635 11.2419 11.4099 11.7435 10.0035 12.6832C8.59705 13.623 7.50085 14.9587 6.85354 16.5215C6.20622 18.0842 6.03685 19.8038 6.36685 21.4629C6.69685 23.1219 7.5114 24.6458 8.70748 25.8419C9.90356 27.0379 11.4275 27.8525 13.0865 28.1825C14.7455 28.5125 16.4651 28.3431 18.0279 27.6958C19.5906 27.0485 20.9264 25.9523 21.8661 24.5459C22.8059 23.1394 23.3075 21.4859 23.3075 19.7944C23.3075 17.5261 22.4064 15.3507 20.8025 13.7468C19.1986 12.1429 17.0232 11.2419 14.755 11.2419Z" fill="#1464A5"/>
<path opacity="0.5" d="M19.0095 12.3821C17.0463 11.2492 14.7135 10.9426 12.5243 11.5298C10.3351 12.1169 8.46878 13.5496 7.33593 15.5128C6.20307 17.476 5.89649 19.8088 6.48362 21.998C7.07074 24.1872 8.50349 26.0535 10.4667 27.1864L19.0095 12.3821Z" fill="url(#paint2_linear_10609_64602)"/>
<path d="M1.00148 39.6866L0.133401 41.1901C0.0610743 41.3154 0.103994 41.4756 0.229269 41.5479L3.03454 43.1675C3.15981 43.2398 3.32 43.1969 3.39233 43.0716L4.26041 41.5681C4.33273 41.4428 4.28981 41.2826 4.16454 41.2103L1.35926 39.5907C1.23399 39.5184 1.0738 39.5613 1.00148 39.6866Z" fill="#2DCCCD"/>
<mask id="mask0_10609_64602" style="mask-type:luminance" maskUnits="userSpaceOnUse" x="6" y="11" width="18" height="18">
<path d="M14.7539 11.2122C13.0624 11.2122 11.4088 11.7138 10.0024 12.6535C8.59595 13.5933 7.49975 14.929 6.85244 16.4917C6.20512 18.0545 6.03575 19.7741 6.36575 21.4331C6.69575 23.0921 7.5103 24.6161 8.70638 25.8121C9.90246 27.0082 11.4264 27.8228 13.0854 28.1528C14.7444 28.4828 16.464 28.3134 18.0268 27.6661C19.5895 27.0188 20.9253 25.9226 21.865 24.5161C22.8048 23.1097 23.3064 21.4561 23.3064 19.7646C23.3064 17.4964 22.4053 15.321 20.8014 13.7171C19.1975 12.1132 17.0221 11.2122 14.7539 11.2122Z" fill="white"/>
</mask>
<g mask="url(#mask0_10609_64602)">
<path opacity="0.7" d="M33.1637 15.2179H10.1094C10.0198 15.2301 9.92864 15.2244 9.84117 15.2013C9.75371 15.1783 9.67165 15.1382 9.59968 15.0834C9.45433 14.9727 9.35889 14.8088 9.33436 14.6278C9.30984 14.4468 9.35823 14.2634 9.4689 14.118C9.57957 13.9727 9.74345 13.8772 9.92448 13.8527C9.98584 13.8442 10.0481 13.8442 10.1094 13.8527H33.1637C33.3293 13.8745 33.4813 13.9558 33.5915 14.0813C33.7016 14.2069 33.7624 14.3683 33.7624 14.5353C33.7624 14.7024 33.7016 14.8637 33.5915 14.9893C33.4813 15.1149 33.3293 15.1961 33.1637 15.2179Z" fill="#1464A5"/>
<path opacity="0.7" d="M33.1636 19.4276H10.1094C9.94431 19.4049 9.79303 19.3232 9.68352 19.1977C9.57401 19.0721 9.51367 18.9111 9.51367 18.7445C9.51367 18.5778 9.57401 18.4169 9.68352 18.2913C9.79303 18.1657 9.94431 18.084 10.1094 18.0613H33.1636C33.3287 18.084 33.48 18.1657 33.5895 18.2913C33.699 18.4169 33.7593 18.5778 33.7593 18.7445C33.7593 18.9111 33.699 19.0721 33.5895 19.1977C33.48 19.3232 33.3287 19.4049 33.1636 19.4276Z" fill="#1464A5"/>
<path opacity="0.7" d="M33.1642 23.6342H10.1099C9.9443 23.6124 9.79226 23.5311 9.68211 23.4055C9.57196 23.28 9.51123 23.1186 9.51123 22.9516C9.51123 22.7845 9.57196 22.6232 9.68211 22.4976C9.79226 22.372 9.9443 22.2908 10.1099 22.269H33.1642C33.3298 22.2908 33.4818 22.372 33.592 22.4976C33.7021 22.6232 33.7629 22.7845 33.7629 22.9516C33.7629 23.1186 33.7021 23.28 33.592 23.4055C33.4818 23.5311 33.3298 23.6124 33.1642 23.6342Z" fill="#1464A5"/>
</g>
<path d="M24.2599 25.093C25.6318 22.6259 25.9935 19.723 25.269 16.9947C24.5444 14.2664 22.7901 11.9253 20.3749 10.464L19.1989 12.4877C21.0952 13.6577 22.4599 15.5216 23.0028 17.6826C23.5456 19.8436 23.2236 22.1312 22.1054 24.0584C20.9871 25.9856 19.1609 27.4004 17.0154 28.0015C14.8698 28.6026 12.5744 28.3427 10.6176 27.2771V27.2824L9.44165 29.3136C11.0502 30.2174 12.8628 30.6957 14.7078 30.7034H14.9216C16.8334 30.6691 18.7026 30.1326 20.3416 29.1479C21.9806 28.1632 23.3319 26.7648 24.2599 25.093Z" fill="url(#paint3_linear_10609_64602)"/>
<defs>
<linearGradient id="paint0_linear_10609_64602" x1="8.26248" y1="-0.436139" x2="33.6077" y2="47.23" gradientUnits="userSpaceOnUse">
<stop stop-color="#1C2645" stop-opacity="0.5"/>
<stop offset="1" stop-color="#1C2645" stop-opacity="0"/>
</linearGradient>
<linearGradient id="paint1_linear_10609_64602" x1="39.2468" y1="18.3666" x2="13.738" y2="18.3666" gradientUnits="userSpaceOnUse">
<stop stop-color="#043263" stop-opacity="0.1"/>
<stop offset="1" stop-color="#043263" stop-opacity="0"/>
</linearGradient>
<linearGradient id="paint2_linear_10609_64602" x1="7.76836" y1="13.0235" x2="17.7705" y2="23.0256" gradientUnits="userSpaceOnUse">
<stop stop-color="white" stop-opacity="0.8"/>
<stop offset="1" stop-color="white" stop-opacity="0"/>
</linearGradient>
<linearGradient id="paint3_linear_10609_64602" x1="25.7854" y1="20.5805" x2="9.42455" y2="20.5805" gradientUnits="userSpaceOnUse">
<stop stop-color="#043263" stop-opacity="0.7"/>
<stop offset="1" stop-color="#043263" stop-opacity="0"/>
</linearGradient>
</defs>
</svg>
