<svg width="40" height="40" viewBox="0 0 40 40" fill="none" xmlns="http://www.w3.org/2000/svg">
<path d="M36.4049 27.2177C36.3578 27.1586 36.3043 27.1051 36.2452 27.058L29.1236 21.3606C29.0974 21.3395 29.0673 21.3238 29.035 21.3143C29.0027 21.3049 28.9688 21.3019 28.9353 21.3055C28.9019 21.3092 28.8695 21.3194 28.84 21.3356C28.8104 21.3517 28.7844 21.3736 28.7633 21.3998C28.7266 21.4456 28.7067 21.5026 28.707 21.5612V24.8697H27.7021V5.48066L27.7106 5.47212L26.5836 4.35364L25.4651 5.47212L24.3381 4.35364L23.2196 5.47212L22.0926 4.35364L20.9741 5.47212L19.8556 4.35364L18.7371 5.47212L17.6186 4.35364L16.4831 5.47212H16.4233L15.3048 4.35364L14.1863 5.47212H14.1522V20.1746H9.65263C9.14334 20.1753 8.6551 20.3779 8.29498 20.738C7.93486 21.0982 7.73225 21.5864 7.73157 22.0957L7.74864 35.8761H7.76572V38.8473L7.75718 38.8559L8.87566 39.9744L9.99415 38.8559L11.1126 39.9744L12.2311 38.8559L13.3496 39.9744L14.4766 38.8559L15.5951 39.9744L16.7136 38.8559L17.8321 39.9744L18.9506 38.8559H19.0103L20.1288 39.9744L21.2473 38.8559H21.2729L21.2789 33.3915H26.0969C26.3078 33.3918 26.5166 33.3504 26.7114 33.2698C26.9063 33.1892 27.0833 33.071 27.2324 32.9219C27.3815 32.7728 27.4997 32.5958 27.5803 32.4009C27.6609 32.2061 27.7023 31.9972 27.7021 31.7864V30.8472H28.707V34.1557C28.707 34.2236 28.734 34.2888 28.782 34.3368C28.83 34.3848 28.8952 34.4118 28.9631 34.4118C29.0219 34.4118 29.0789 34.3916 29.1245 34.3546L36.2461 28.6572C36.4579 28.4873 36.5936 28.2402 36.6234 27.9703C36.6532 27.7004 36.5746 27.4297 36.4049 27.2177Z" fill="url(#paint0_linear_5129_149362)"/>
<path d="M12.1226 1.14314H12.0629L10.9444 0.0246582L9.8259 1.14314H9.79175V29.0625H21.7365C21.9473 29.0628 22.1562 29.0214 22.351 28.9408C22.5459 28.8602 22.7229 28.742 22.872 28.5929C23.0211 28.4438 23.1393 28.2668 23.2199 28.0719C23.3005 27.8771 23.3419 27.6683 23.3416 27.4574V1.15168L23.3502 1.14314L22.2231 0.0246582L21.1047 1.14314L19.9776 0.0246582L18.8592 1.14314L17.7321 0.0246582L16.6136 1.14314L15.4952 0.0246582L14.3767 1.14314L13.2582 0.0246582L12.1226 1.14314Z" fill="#BAE6E8"/>
<path d="M23.3335 13.0447H9.80066V29.0621H21.7368C21.9477 29.0623 22.1565 29.021 22.3514 28.9404C22.5462 28.8598 22.7233 28.7416 22.8724 28.5925C23.0215 28.4434 23.1397 28.2663 23.2203 28.0715C23.3009 27.8766 23.3422 27.6678 23.342 27.457V27.4313" fill="url(#paint1_linear_5129_149362)"/>
<path d="M16.9181 29.063H21.7361C21.5253 29.0633 21.3164 29.0219 21.1216 28.9413C20.9267 28.8607 20.7497 28.7425 20.6006 28.5934C20.4515 28.4443 20.3333 28.2673 20.2527 28.0724C20.1721 27.8776 20.1307 27.6687 20.131 27.4579V17.4598C20.131 17.0353 19.9623 16.6281 19.6621 16.3278C19.3618 16.0276 18.9547 15.8589 18.5301 15.8589C18.1055 15.8589 17.6983 16.0276 17.3981 16.3278C17.0979 16.6281 16.9292 17.0353 16.9292 17.4598L16.9181 29.063Z" fill="#02A5A5"/>
<path d="M18.5256 15.8455H5.29167C4.78238 15.8461 4.29414 16.0488 3.93402 16.4089C3.5739 16.769 3.37128 17.2572 3.37061 17.7665L3.38768 31.5469H3.40476V34.5182L3.39622 34.5267L4.5147 35.6452L5.63319 34.5267L6.75167 35.6452L7.87016 34.5267L8.98864 35.6452L10.1157 34.5267L11.2341 35.6452L12.3526 34.5267L13.4711 35.6452L14.5896 34.5267H14.6494L15.7678 35.6452L16.8863 34.5267H16.9119L16.9299 17.4182C16.9632 16.5387 17.6462 15.8455 18.5256 15.8455Z" fill="#BAE6E8"/>
<path d="M20.7971 4.70345H12.0371C11.9103 4.70345 11.7887 4.65308 11.699 4.56341C11.6093 4.47375 11.559 4.35213 11.559 4.22532C11.559 4.09851 11.6093 3.9769 11.699 3.88723C11.7887 3.79757 11.9103 3.74719 12.0371 3.74719H20.7971C20.9239 3.74719 21.0455 3.79757 21.1352 3.88723C21.2249 3.9769 21.2753 4.09851 21.2753 4.22532C21.2753 4.35213 21.2249 4.47375 21.1352 4.56341C21.0455 4.65308 20.9239 4.70345 20.7971 4.70345Z" fill="#5AC4C4"/>
<path d="M20.7971 6.84719H12.0371C11.9103 6.84719 11.7887 6.79682 11.699 6.70715C11.6093 6.61748 11.559 6.49587 11.559 6.36906C11.559 6.24225 11.6093 6.12064 11.699 6.03097C11.7887 5.9413 11.9103 5.89093 12.0371 5.89093H20.7971C20.9239 5.89093 21.0455 5.9413 21.1352 6.03097C21.2249 6.12064 21.2753 6.24225 21.2753 6.36906C21.2753 6.49587 21.2249 6.61748 21.1352 6.70715C21.0455 6.79682 20.9239 6.84719 20.7971 6.84719Z" fill="#5AC4C4"/>
<path d="M20.8318 8.99819H12.0803C11.9535 8.99819 11.8319 8.94782 11.7422 8.85815C11.6525 8.76848 11.6022 8.64687 11.6022 8.52006C11.6022 8.39325 11.6525 8.27164 11.7422 8.18197C11.8319 8.09231 11.9535 8.04193 12.0803 8.04193H20.8318C20.9586 8.04193 21.0802 8.09231 21.1699 8.18197C21.2596 8.27164 21.3099 8.39325 21.3099 8.52006C21.3099 8.64687 21.2596 8.76848 21.1699 8.85815C21.0802 8.94782 20.9586 8.99819 20.8318 8.99819Z" fill="#5AC4C4"/>
<path d="M20.7971 11.1498H12.0371C11.9103 11.1498 11.7887 11.0994 11.699 11.0098C11.6093 10.9201 11.559 10.7985 11.559 10.6717C11.559 10.5449 11.6093 10.4233 11.699 10.3336C11.7887 10.2439 11.9103 10.1935 12.0371 10.1935H20.7971C20.9239 10.1935 21.0455 10.2439 21.1352 10.3336C21.2249 10.4233 21.2753 10.5449 21.2753 10.6717C21.2753 10.7985 21.2249 10.9201 21.1352 11.0098C21.0455 11.0994 20.9239 11.1498 20.7971 11.1498Z" fill="#5AC4C4"/>
<path d="M16.9635 13.3014H12.0371C11.9103 13.3014 11.7887 13.251 11.699 13.1614C11.6093 13.0717 11.559 12.9501 11.559 12.8233C11.559 12.6965 11.6093 12.5749 11.699 12.4852C11.7887 12.3955 11.9103 12.3452 12.0371 12.3452H16.9635C17.0263 12.3452 17.0885 12.3575 17.1465 12.3815C17.2045 12.4056 17.2572 12.4408 17.3016 12.4852C17.346 12.5296 17.3812 12.5823 17.4053 12.6403C17.4293 12.6983 17.4417 12.7605 17.4417 12.8233C17.4417 12.8861 17.4293 12.9482 17.4053 13.0063C17.3812 13.0643 17.346 13.117 17.3016 13.1614C17.2572 13.2058 17.2045 13.241 17.1465 13.265C17.0885 13.289 17.0263 13.3014 16.9635 13.3014Z" fill="#5AC4C4"/>
<path d="M14.4961 20.4474H5.73607C5.67328 20.4474 5.6111 20.435 5.55309 20.411C5.49508 20.3869 5.44238 20.3517 5.39798 20.3073C5.35358 20.2629 5.31836 20.2102 5.29433 20.1522C5.2703 20.0942 5.25793 20.032 5.25793 19.9692C5.25793 19.9064 5.2703 19.8443 5.29433 19.7862C5.31836 19.7282 5.35358 19.6755 5.39798 19.6311C5.44238 19.5867 5.49508 19.5515 5.55309 19.5275C5.6111 19.5035 5.67328 19.4911 5.73607 19.4911H14.4961C14.6229 19.4911 14.7445 19.5415 14.8342 19.6311C14.9239 19.7208 14.9742 19.8424 14.9742 19.9692C14.9742 20.096 14.9239 20.2176 14.8342 20.3073C14.7445 20.397 14.6229 20.4474 14.4961 20.4474Z" fill="#5AC4C4"/>
<path d="M10.9528 22.5911H5.73607C5.67328 22.5911 5.6111 22.5787 5.55309 22.5547C5.49508 22.5307 5.44238 22.4954 5.39798 22.451C5.35358 22.4066 5.31836 22.3539 5.29433 22.2959C5.2703 22.2379 5.25793 22.1757 5.25793 22.113C5.25793 22.0502 5.2703 21.988 5.29433 21.93C5.31836 21.872 5.35358 21.8193 5.39798 21.7749C5.44238 21.7305 5.49508 21.6953 5.55309 21.6712C5.6111 21.6472 5.67328 21.6348 5.73607 21.6348H10.9528C11.0156 21.6348 11.0778 21.6472 11.1358 21.6712C11.1938 21.6953 11.2465 21.7305 11.2909 21.7749C11.3353 21.8193 11.3705 21.872 11.3945 21.93C11.4186 21.988 11.4309 22.0502 11.4309 22.113C11.4309 22.1757 11.4186 22.2379 11.3945 22.2959C11.3705 22.3539 11.3353 22.4066 11.2909 22.451C11.2465 22.4954 11.1938 22.5307 11.1358 22.5547C11.0778 22.5787 11.0156 22.5911 10.9528 22.5911Z" fill="#5AC4C4"/>
<path d="M10.9528 26.8943H5.73607C5.60926 26.8943 5.48764 26.8439 5.39798 26.7543C5.30831 26.6646 5.25793 26.543 5.25793 26.4162C5.25793 26.2894 5.30831 26.1678 5.39798 26.0781C5.48764 25.9884 5.60926 25.938 5.73607 25.938H10.9528C11.0796 25.938 11.2012 25.9884 11.2909 26.0781C11.3806 26.1678 11.4309 26.2894 11.4309 26.4162C11.4309 26.543 11.3806 26.6646 11.2909 26.7543C11.2012 26.8439 11.0796 26.8943 10.9528 26.8943Z" fill="#5AC4C4"/>
<path d="M10.6711 29.0543H5.73607C5.60926 29.0543 5.48764 29.0039 5.39798 28.9142C5.30831 28.8246 5.25793 28.703 5.25793 28.5762C5.25793 28.4493 5.30831 28.3277 5.39798 28.2381C5.48764 28.1484 5.60926 28.098 5.73607 28.098H10.6711C10.7979 28.098 10.9195 28.1484 11.0091 28.2381C11.0988 28.3277 11.1492 28.4493 11.1492 28.5762C11.1492 28.703 11.0988 28.8246 11.0091 28.9142C10.9195 29.0039 10.7979 29.0543 10.6711 29.0543Z" fill="#5AC4C4"/>
<path d="M31.8844 22.7283L24.7628 17.0309C24.7366 17.0098 24.7065 16.994 24.6742 16.9846C24.6419 16.9751 24.608 16.9722 24.5746 16.9758C24.5411 16.9795 24.5087 16.9897 24.4792 17.0059C24.4496 17.022 24.4236 17.0439 24.4025 17.0701C24.3655 17.1157 24.3455 17.1728 24.3462 17.2315V20.54H17.1742C17.1063 20.54 17.0411 20.567 16.9931 20.615C16.9451 20.6631 16.9181 20.7282 16.9181 20.7961V26.2605C16.9181 26.3284 16.9451 26.3936 16.9931 26.4416C17.0411 26.4896 17.1063 26.5166 17.1742 26.5166H24.3462V29.8251C24.3462 29.8931 24.3732 29.9582 24.4212 30.0062C24.4692 30.0543 24.5344 30.0813 24.6023 30.0813C24.6613 30.0817 24.7186 30.0618 24.7646 30.0249L31.8861 24.3275C31.9912 24.2434 32.0787 24.1394 32.1436 24.0215C32.2085 23.9036 32.2495 23.7741 32.2643 23.6404C32.2792 23.5066 32.2675 23.3712 32.23 23.242C32.1925 23.1127 32.1299 22.9922 32.0458 22.8871C31.9979 22.8285 31.9438 22.7752 31.8844 22.7283Z" fill="#1464A5"/>
<path d="M19.7997 20.5397H17.1742C17.1063 20.5397 17.0411 20.5667 16.9931 20.6147C16.9451 20.6627 16.9181 20.7279 16.9181 20.7958V26.2602C16.9181 26.3281 16.9451 26.3932 16.9931 26.4413C17.0411 26.4893 17.1063 26.5163 17.1742 26.5163H20.2428L23.4232 20.5397H19.7997Z" fill="url(#paint2_linear_5129_149362)"/>
<defs>
<linearGradient id="paint0_linear_5129_149362" x1="9.25475" y1="6.21664" x2="27.0907" y2="39.7618" gradientUnits="userSpaceOnUse">
<stop stop-color="#192647" stop-opacity="0.5"/>
<stop offset="1" stop-color="#192647" stop-opacity="0"/>
</linearGradient>
<linearGradient id="paint1_linear_5129_149362" x1="16.5713" y1="28.6335" x2="16.5713" y2="13.405" gradientUnits="userSpaceOnUse">
<stop stop-color="#028484"/>
<stop offset="1" stop-color="#028484" stop-opacity="0"/>
</linearGradient>
<linearGradient id="paint2_linear_5129_149362" x1="23.4232" y1="23.528" x2="16.9181" y2="23.528" gradientUnits="userSpaceOnUse">
<stop stop-color="#043263" stop-opacity="0"/>
<stop offset="1" stop-color="#043263" stop-opacity="0.5"/>
</linearGradient>
</defs>
</svg>
