<svg width="40" height="40" viewBox="0 0 40 40" fill="none" xmlns="http://www.w3.org/2000/svg">
<path d="M10.6947 14.4656H4.76431C4.69282 14.4656 4.62426 14.494 4.5737 14.5445C4.52315 14.5951 4.49475 14.6636 4.49475 14.7351V39.0227C4.49475 39.0942 4.52315 39.1628 4.5737 39.2133C4.62426 39.2639 4.69282 39.2923 4.76431 39.2923H10.6947C10.7662 39.2923 10.8348 39.2639 10.8853 39.2133C10.9359 39.1628 10.9643 39.0942 10.9643 39.0227V14.7351C10.9643 14.6636 10.9359 14.5951 10.8853 14.5445C10.8348 14.494 10.7662 14.4656 10.6947 14.4656Z" fill="url(#paint0_linear_2451_3731)"/>
<path d="M21.2975 10.494H15.3671C15.2182 10.494 15.0976 10.6147 15.0976 10.7636V39.0227C15.0976 39.1716 15.2182 39.2923 15.3671 39.2923H21.2975C21.4464 39.2923 21.5671 39.1716 21.5671 39.0227V10.7636C21.5671 10.6147 21.4464 10.494 21.2975 10.494Z" fill="url(#paint1_linear_2451_3731)"/>
<path d="M36.6716 9.46067C36.6087 9.42473 36.5458 9.39777 36.4829 9.36183L36.3661 9.30792L36.2313 9.24502L36.0696 9.17314C36.0246 9.15517 35.9707 9.1372 35.9168 9.11024L35.809 9.06531C35.7359 9.036 35.6608 9.01198 35.5843 8.99343L35.4855 8.96647L35.2968 8.91256L35.2159 8.89459L34.9643 8.84068L34.8835 8.82271C34.7936 8.80474 34.7038 8.78676 34.6229 8.77778L34.569 8.76879C34.4881 8.75981 34.4073 8.75082 34.3174 8.73285L34.2545 8.72387C34.1646 8.71488 34.0658 8.7059 33.976 8.7059H33.9131C33.8142 8.69691 33.7154 8.69691 33.6165 8.69691C33.0867 8.69651 32.5588 8.75987 32.0441 8.8856V5.3723C32.0441 5.30081 32.0157 5.23224 31.9651 5.18169C31.9146 5.13114 31.846 5.10274 31.7745 5.10274H25.8352C25.7637 5.10274 25.6951 5.13114 25.6445 5.18169C25.594 5.23224 25.5656 5.30081 25.5656 5.3723V39.0138C25.5656 39.0852 25.594 39.1538 25.6445 39.2044C25.6951 39.2549 25.7637 39.2833 25.8352 39.2833H31.7745C31.846 39.2833 31.9146 39.2549 31.9651 39.2044C32.0157 39.1538 32.0441 39.0852 32.0441 39.0138V21.5101C33.5826 21.8893 35.2067 21.6937 36.6113 20.9602C38.0159 20.2267 39.1044 19.0057 39.6725 17.5265C40.2406 16.0472 40.2492 14.4115 39.6966 12.9263C39.1441 11.4412 38.0684 10.2089 36.6716 9.46067Z" fill="url(#paint2_linear_2451_3731)"/>
<path d="M0.269563 10.0614H6.19995C6.27144 10.0614 6.34 10.0898 6.39056 10.1403C6.44111 10.1909 6.46951 10.2595 6.46951 10.3309V34.6186C6.46951 34.6901 6.44111 34.7586 6.39056 34.8092C6.34 34.8597 6.27144 34.8881 6.19995 34.8881H0.269563C0.19807 34.8881 0.129506 34.8597 0.0789536 34.8092C0.0284008 34.7586 0 34.6901 0 34.6186V10.3309C0 10.2955 0.0069726 10.2605 0.0205194 10.2278C0.0340662 10.1951 0.0539224 10.1654 0.0789536 10.1403C0.103985 10.1153 0.133701 10.0955 0.166406 10.0819C0.199111 10.0684 0.234163 10.0614 0.269563 10.0614Z" fill="#1464A5"/>
<path d="M10.8727 6.08887H16.803C16.8745 6.08887 16.9431 6.11727 16.9936 6.16782C17.0442 6.21837 17.0726 6.28694 17.0726 6.35843V34.6176C17.0726 34.6891 17.0442 34.7577 16.9936 34.8082C16.9431 34.8588 16.8745 34.8872 16.803 34.8872H10.8727C10.8012 34.8872 10.7326 34.8588 10.682 34.8082C10.6315 34.7577 10.6031 34.6891 10.6031 34.6176V6.35843C10.6031 6.28694 10.6315 6.21837 10.682 6.16782C10.7326 6.11727 10.8012 6.08887 10.8727 6.08887Z" fill="#2DCCCD"/>
<path d="M21.3487 0.707062H27.2791C27.3506 0.707062 27.4192 0.735462 27.4697 0.786015C27.5203 0.836568 27.5487 0.905132 27.5487 0.976625V34.6181C27.5487 34.6896 27.5203 34.7581 27.4697 34.8087C27.4192 34.8592 27.3506 34.8876 27.2791 34.8876H21.3487C21.2772 34.8876 21.2087 34.8592 21.1581 34.8087C21.1076 34.7581 21.0792 34.6896 21.0792 34.6181V0.976625C21.0792 0.905132 21.1076 0.836568 21.1581 0.786015C21.2087 0.735462 21.2772 0.707062 21.3487 0.707062Z" fill="#1464A5"/>
<path d="M35.6984 10.8036C35.6982 12.0964 35.3148 13.3601 34.5965 14.435C33.8783 15.5099 32.8575 16.3478 31.6631 16.8426C30.4688 17.3375 29.1546 17.4671 27.8866 17.2152C26.6186 16.9633 25.4537 16.3411 24.5393 15.4272C23.6248 14.5134 23.0018 13.349 22.749 12.0812C22.4962 10.8133 22.625 9.49903 23.119 8.30436C23.613 7.10969 24.4502 6.08831 25.5246 5.36932C26.599 4.65032 27.8624 4.26601 29.1552 4.26494C30.014 4.26447 30.8645 4.43315 31.6581 4.76136C32.4517 5.08957 33.1729 5.57088 33.7805 6.1778C34.3881 6.78473 34.8702 7.50538 35.1992 8.29862C35.5283 9.09186 35.6979 9.94215 35.6984 10.8009" fill="#FFDF8A"/>
<path d="M29.1668 15.9455C28.1495 15.9463 27.1547 15.6452 26.3085 15.0806C25.4622 14.5159 24.8024 13.7129 24.4126 12.7732C24.0227 11.8335 23.9203 10.7993 24.1183 9.80142C24.3163 8.80352 24.8057 7.88674 25.5248 7.16705C26.2439 6.44735 27.1602 5.95708 28.1579 5.75823C29.1557 5.55938 30.19 5.6609 31.13 6.04993C32.07 6.43897 32.8736 7.09806 33.439 7.94382C34.0044 8.78958 34.3063 9.78403 34.3065 10.8014C34.3046 12.1643 33.7626 13.471 32.7993 14.4352C31.8359 15.3994 30.5298 15.9425 29.1668 15.9455Z" fill="#FFCE44"/>
<path d="M29.1605 5.96334C30.1174 5.96298 31.0529 6.24639 31.8486 6.77771C32.6444 7.30903 33.2648 8.06441 33.6312 8.94831C33.9977 9.83221 34.0938 10.8049 33.9074 11.7435C33.721 12.682 33.2605 13.5442 32.5841 14.2209C31.9077 14.8977 31.0458 15.3587 30.1073 15.5457C29.1689 15.7326 28.1962 15.637 27.312 15.271C26.4279 14.9051 25.6722 14.2851 25.1405 13.4896C24.6087 12.6942 24.3248 11.7588 24.3246 10.802C24.3262 9.51968 24.8362 8.29032 25.7427 7.38333C26.6492 6.47635 27.8782 5.96571 29.1605 5.96334ZM29.1605 5.35323C28.0833 5.35411 27.0305 5.67436 26.1352 6.27348C25.2399 6.8726 24.5423 7.72369 24.1307 8.71919C23.719 9.71468 23.6117 10.8099 23.8223 11.8663C24.033 12.9228 24.5521 13.8931 25.3141 14.6546C26.0761 15.4161 27.0467 15.9346 28.1033 16.1445C29.1599 16.3544 30.255 16.2464 31.2503 15.8341C32.2455 15.4218 33.0961 14.7236 33.6946 13.828C34.2932 12.9323 34.6127 11.8792 34.6129 10.802C34.6122 9.35712 34.0377 7.97167 33.0158 6.95024C31.9938 5.92881 30.6081 5.35502 29.1632 5.35502L29.1605 5.35323Z" fill="#C49735"/>
<path d="M29.1575 4.26494C27.6982 4.26422 26.2806 4.75195 25.1307 5.6504C23.9808 6.54885 23.1647 7.80633 22.8124 9.22246C22.4601 10.6386 22.592 12.1319 23.1869 13.4644C23.7819 14.7969 24.8057 15.8919 26.0952 16.575L32.2323 5.03409C31.2863 4.52848 30.2301 4.26427 29.1575 4.26494Z" fill="url(#paint3_linear_2451_3731)"/>
<defs>
<linearGradient id="paint0_linear_2451_3731" x1="-64.2032" y1="-18.5058" x2="-50.8444" y2="81.9137" gradientUnits="userSpaceOnUse">
<stop stop-color="#192647" stop-opacity="0.5"/>
<stop offset="1" stop-color="#192647" stop-opacity="0"/>
</linearGradient>
<linearGradient id="paint1_linear_2451_3731" x1="-81.2565" y1="-19.8103" x2="-71.1879" y2="67.9853" gradientUnits="userSpaceOnUse">
<stop stop-color="#192647" stop-opacity="0.5"/>
<stop offset="1" stop-color="#192647" stop-opacity="0"/>
</linearGradient>
<linearGradient id="paint2_linear_2451_3731" x1="8.58132" y1="-19.2846" x2="39.9441" y2="39.7011" gradientUnits="userSpaceOnUse">
<stop stop-color="#192647" stop-opacity="0.5"/>
<stop offset="1" stop-color="#192647" stop-opacity="0"/>
</linearGradient>
<linearGradient id="paint3_linear_2451_3731" x1="24.4428" y1="6.28037" x2="30.4145" y2="12.2521" gradientUnits="userSpaceOnUse">
<stop stop-color="white" stop-opacity="0.4"/>
<stop offset="1" stop-color="white" stop-opacity="0.1"/>
</linearGradient>
</defs>
</svg>
