<svg width="32" height="32" viewBox="0 0 32 32" fill="none" xmlns="http://www.w3.org/2000/svg">
<g clip-path="url(#clip0_1319_87288)">
<path d="M26.9083 23.715V9.95445L23.4166 6.46274L20.2264 3.28052H6.85477C6.80004 3.28052 6.74756 3.30226 6.70887 3.34095C6.67018 3.37964 6.64844 3.43212 6.64844 3.48685V29.6667C6.64844 29.6938 6.65378 29.7207 6.66414 29.7457C6.67451 29.7707 6.68971 29.7935 6.70887 29.8126C6.72803 29.8318 6.75077 29.847 6.77581 29.8574C6.80084 29.8677 6.82767 29.8731 6.85477 29.8731H20.8772C21.4907 30.8802 22.4791 31.6023 23.6251 31.8806C24.1925 32.0184 24.7815 32.0431 25.3584 31.9533C25.9354 31.8634 26.489 31.6608 26.9877 31.3571C27.4863 31.0533 27.9203 30.6542 28.2647 30.1828C28.6092 29.7113 28.8574 29.1766 28.9952 28.6091C29.133 28.0417 29.1577 27.4527 29.0678 26.8758C28.978 26.2988 28.7754 25.7452 28.4716 25.2466C28.082 24.6172 27.5456 24.0916 26.9083 23.715Z" fill="url(#paint0_linear_1319_87288)"/>
<path d="M22.9523 6.68346L16.2625 -0.00634766H3.0972C3.0389 -0.00436963 2.98352 0.0196758 2.94227 0.0609253C2.90102 0.102175 2.87698 0.15755 2.875 0.215852V26.1498C2.87496 26.2031 2.89561 26.2544 2.9326 26.2929C2.9696 26.3314 3.02006 26.354 3.07339 26.3561H22.746C22.7994 26.3561 22.8507 26.3355 22.8892 26.2985C22.9277 26.2615 22.9503 26.211 22.9523 26.1577V6.68346Z" fill="#CDEEFE"/>
<path d="M17.4226 1.22388L3.78906 26.3563L22.4062 26.4277H22.7475C22.8008 26.4277 22.8522 26.4071 22.8906 26.3701C22.9291 26.3331 22.9517 26.2826 22.9538 26.2293V6.75507L17.4226 1.22388Z" fill="url(#paint1_linear_1319_87288)"/>
<path d="M12.3023 3.4775H5.54106C5.49589 3.47654 5.45138 3.46641 5.41024 3.44771C5.36911 3.42902 5.3322 3.40215 5.30177 3.36875C5.27134 3.33535 5.24802 3.29611 5.23322 3.25342C5.21842 3.21072 5.21246 3.16546 5.2157 3.12039C5.21957 3.03535 5.2551 2.95482 5.31529 2.89462C5.37549 2.83442 5.45602 2.7989 5.54106 2.79503H12.3023C12.3923 2.79278 12.4797 2.82536 12.5462 2.88599C12.6127 2.94661 12.6533 3.03059 12.6594 3.12039C12.6615 3.16522 12.6548 3.21002 12.6396 3.25224C12.6244 3.29446 12.601 3.33327 12.5708 3.36644C12.5406 3.39961 12.5041 3.42649 12.4635 3.44555C12.4228 3.46461 12.3789 3.47547 12.334 3.4775H12.3023Z" fill="#49A5E6"/>
<path d="M12.3023 5.38986H5.54106C5.49589 5.3889 5.45138 5.37876 5.41024 5.36007C5.36911 5.34137 5.3322 5.31451 5.30177 5.28111C5.27134 5.24771 5.24802 5.20847 5.23322 5.16577C5.21842 5.12308 5.21246 5.07782 5.2157 5.03275C5.21957 4.9477 5.2551 4.86718 5.31529 4.80698C5.37549 4.74678 5.45602 4.71126 5.54106 4.70738H12.3023C12.3923 4.70513 12.4797 4.73772 12.5462 4.79834C12.6127 4.85896 12.6533 4.94294 12.6594 5.03275C12.6615 5.07757 12.6548 5.12238 12.6396 5.1646C12.6244 5.20681 12.601 5.24562 12.5708 5.27879C12.5406 5.31196 12.5041 5.33885 12.4635 5.3579C12.4228 5.37696 12.3789 5.38782 12.334 5.38986H12.3023Z" fill="#49A5E6"/>
<path d="M10.1594 23.1419H5.51702C5.42652 23.1419 5.33972 23.106 5.27573 23.042C5.21173 22.978 5.17578 22.8912 5.17578 22.8007C5.17578 22.7102 5.21173 22.6234 5.27573 22.5594C5.33972 22.4954 5.42652 22.4595 5.51702 22.4595H10.1594C10.2042 22.4595 10.2486 22.4683 10.29 22.4854C10.3314 22.5026 10.369 22.5277 10.4007 22.5594C10.4324 22.5911 10.4575 22.6287 10.4747 22.6701C10.4918 22.7115 10.5006 22.7559 10.5006 22.8007C10.5006 22.8455 10.4918 22.8899 10.4747 22.9313C10.4575 22.9727 10.4324 23.0103 10.4007 23.042C10.369 23.0737 10.3314 23.0988 10.29 23.116C10.2486 23.1331 10.2042 23.1419 10.1594 23.1419Z" fill="#49A5E6"/>
<path d="M16.5158 6.68345H22.9517L16.2619 -0.00634766V6.43745C16.2608 6.46937 16.2662 6.50119 16.2776 6.53099C16.2891 6.5608 16.3065 6.58799 16.3287 6.61094C16.3509 6.6339 16.3775 6.65215 16.4069 6.6646C16.4364 6.67706 16.468 6.68347 16.4999 6.68345H16.5158Z" fill="#1973B8"/>
<path d="M12.9134 12.4923H7.51716C7.47233 12.4902 7.42834 12.4794 7.38772 12.4603C7.34709 12.4413 7.31062 12.4144 7.2804 12.3812C7.25018 12.348 7.2268 12.3092 7.21159 12.267C7.19639 12.2248 7.18966 12.18 7.19179 12.1352C7.19566 12.0501 7.23119 11.9696 7.29138 11.9094C7.35158 11.8492 7.43211 11.8137 7.51716 11.8098H12.9134C12.9583 11.8119 13.0023 11.8227 13.0429 11.8418C13.0835 11.8608 13.12 11.8877 13.1502 11.9209C13.1804 11.9541 13.2038 11.9929 13.219 12.0351C13.2342 12.0773 13.2409 12.1221 13.2388 12.1669C13.2349 12.252 13.1994 12.3325 13.1392 12.3927C13.079 12.4529 12.9985 12.4884 12.9134 12.4923Z" fill="#49A5E6"/>
<path d="M12.9134 14.4049H7.51716C7.47233 14.4028 7.42834 14.392 7.38772 14.3729C7.34709 14.3539 7.31062 14.327 7.2804 14.2938C7.25018 14.2606 7.2268 14.2218 7.21159 14.1796C7.19639 14.1374 7.18966 14.0926 7.19179 14.0478C7.19566 13.9627 7.23119 13.8822 7.29138 13.822C7.35158 13.7618 7.43211 13.7263 7.51716 13.7224H12.9134C12.9583 13.7244 13.0023 13.7353 13.0429 13.7544C13.0835 13.7734 13.12 13.8003 13.1502 13.8335C13.1804 13.8666 13.2038 13.9055 13.219 13.9477C13.2342 13.9899 13.2409 14.0347 13.2388 14.0795C13.2349 14.1646 13.1994 14.2451 13.1392 14.3053C13.079 14.3655 12.9985 14.401 12.9134 14.4049Z" fill="#49A5E6"/>
<path d="M12.9133 16.3177H7.51702C7.42651 16.3177 7.33972 16.2818 7.27573 16.2178C7.21173 16.1538 7.17578 16.067 7.17578 15.9765C7.17578 15.886 7.21173 15.7992 7.27573 15.7352C7.33972 15.6712 7.42651 15.6353 7.51702 15.6353H12.9133C13.0038 15.6353 13.0906 15.6712 13.1546 15.7352C13.2186 15.7992 13.2545 15.886 13.2545 15.9765C13.2545 16.067 13.2186 16.1538 13.1546 16.2178C13.0906 16.2818 13.0038 16.3177 12.9133 16.3177Z" fill="#49A5E6"/>
<path d="M12.9133 18.2301H7.51702C7.42651 18.2301 7.33972 18.1941 7.27573 18.1301C7.21173 18.0661 7.17578 17.9793 7.17578 17.8888C7.17578 17.7983 7.21173 17.7115 7.27573 17.6476C7.33972 17.5836 7.42651 17.5476 7.51702 17.5476H12.9133C12.9581 17.5496 13.0021 17.5605 13.0427 17.5796C13.0834 17.5986 13.1198 17.6255 13.1501 17.6587C13.1803 17.6918 13.2037 17.7306 13.2189 17.7729C13.2341 17.8151 13.2408 17.8599 13.2387 17.9047C13.2348 17.9898 13.1993 18.0703 13.1391 18.1305C13.0789 18.1907 12.9983 18.2262 12.9133 18.2301Z" fill="#49A5E6"/>
<path d="M19.6029 9.82593H5.54085C5.49604 9.82593 5.45166 9.83476 5.41026 9.8519C5.36886 9.86905 5.33124 9.89419 5.29956 9.92587C5.26787 9.95756 5.24273 9.99518 5.22559 10.0366C5.20844 10.078 5.19961 10.1224 5.19961 10.1672V19.7297C5.19741 19.7744 5.20447 19.8191 5.22033 19.861C5.2362 19.9028 5.26054 19.941 5.29183 19.973C5.32311 20.005 5.36067 20.0303 5.40215 20.0471C5.44364 20.064 5.48815 20.0721 5.53291 20.0709H19.6029C19.6474 20.072 19.6915 20.0641 19.7329 20.0479C19.7743 20.0316 19.812 20.0072 19.8437 19.9762C19.8755 19.9451 19.9008 19.908 19.918 19.867C19.9353 19.8261 19.9442 19.7821 19.9442 19.7376V10.1672C19.9452 10.1227 19.9374 10.0785 19.9211 10.0372C19.9048 9.99582 19.8804 9.95813 19.8494 9.92634C19.8183 9.89454 19.7812 9.86928 19.7403 9.85204C19.6993 9.83479 19.6553 9.82592 19.6109 9.82593H19.6029ZM5.87415 10.5084H14.5558V19.3885H5.88208L5.87415 10.5084ZM19.2617 19.3885H15.2383V10.5084H19.2617V19.3885Z" fill="#49A5E6"/>
<path d="M25.9058 24.2848C25.9074 25.1782 25.6439 26.052 25.1487 26.7956C24.6535 27.5392 23.9488 28.1192 23.1239 28.4622C22.2989 28.8052 21.3908 28.8957 20.5144 28.7224C19.6379 28.5491 18.8326 28.1196 18.2003 27.4885C17.5681 26.8573 17.1372 26.0527 16.9623 25.1766C16.7875 24.3005 16.8764 23.3922 17.218 22.5666C17.5595 21.7411 18.1382 21.0354 18.881 20.5389C19.6237 20.0424 20.497 19.7773 21.3904 19.7773C22.5866 19.7773 23.7339 20.252 24.5805 21.0971C25.4271 21.9422 25.9037 23.0886 25.9058 24.2848Z" fill="#28AD68"/>
<path d="M20.4587 26.2608C20.3688 26.2591 20.2833 26.222 20.2206 26.1576L18.8318 24.7689C18.7669 24.7035 18.7305 24.615 18.7305 24.5229C18.7305 24.4307 18.7669 24.3423 18.8318 24.2768H18.8398C18.8708 24.2452 18.9079 24.22 18.9487 24.2028C18.9896 24.1857 19.0335 24.1768 19.0779 24.1768C19.1222 24.1768 19.1661 24.1857 19.207 24.2028C19.2479 24.22 19.2849 24.2452 19.3159 24.2768L20.4587 25.4196L23.4663 22.412C23.5285 22.3438 23.6152 22.303 23.7074 22.2985C23.7996 22.294 23.8898 22.3263 23.9583 22.3881C24.027 22.4517 24.068 22.5397 24.0725 22.6333C24.0769 22.7268 24.0445 22.8183 23.9821 22.8881L23.9583 22.904L20.7047 26.1576C20.6396 26.2232 20.5511 26.2603 20.4587 26.2608Z" fill="white"/>
</g>
<defs>
<linearGradient id="paint0_linear_1319_87288" x1="6.41513" y1="0.351447" x2="24.0784" y2="33.5719" gradientUnits="userSpaceOnUse">
<stop stop-color="#192647" stop-opacity="0.5"/>
<stop offset="1" stop-color="#192647" stop-opacity="0"/>
</linearGradient>
<linearGradient id="paint1_linear_1319_87288" x1="22.9546" y1="13.8226" x2="3.79065" y2="13.8226" gradientUnits="userSpaceOnUse">
<stop stop-color="#043263" stop-opacity="0.1"/>
<stop offset="1" stop-color="#043263" stop-opacity="0"/>
</linearGradient>
<clipPath id="clip0_1319_87288">
<rect width="32" height="32" fill="white"/>
</clipPath>
</defs>
</svg>
