<svg width="24" height="24" viewBox="0 0 80 80" fill="none" xmlns="http://www.w3.org/2000/svg">
<g clip-path="url(#clip0_3801_22864)">
<path d="M44.7375 79.9341C64.2957 79.9341 80.1507 64.1198 80.1507 44.6119C80.1507 25.104 64.2957 9.28967 44.7375 9.28967C25.1793 9.28967 9.32422 25.104 9.32422 44.6119C9.32422 64.1198 25.1793 79.9341 44.7375 79.9341Z" fill="url(#paint0_linear_3801_22864)"/>
<path d="M35.7257 71.2677C55.4564 71.2677 71.4514 55.3139 71.4514 35.6338C71.4514 15.9538 55.4564 0 35.7257 0C15.9949 0 0 15.9538 0 35.6338C0 55.3139 15.9949 71.2677 35.7257 71.2677Z" fill="#9C6C01"/>
<path d="M35.7271 44.2485C34.2569 44.2485 33.0624 43.057 33.0624 41.5906V19.4111C33.0256 17.9447 34.1834 16.7349 35.6536 16.6799C37.1238 16.6433 38.3367 17.7981 38.3918 19.2645C38.3918 19.3195 38.3918 19.3561 38.3918 19.4111V41.5906C38.3918 43.057 37.1973 44.2485 35.7271 44.2485Z" fill="white"/>
<path d="M35.7269 54.5886C37.4422 54.5886 38.8327 53.2017 38.8327 51.4908C38.8327 49.7799 37.4422 48.393 35.7269 48.393C34.0116 48.393 32.6211 49.7799 32.6211 51.4908C32.6211 53.2017 34.0116 54.5886 35.7269 54.5886Z" fill="white"/>
</g>
<defs>
<linearGradient id="paint0_linear_3801_22864" x1="26.5467" y1="10.4779" x2="59.9291" y2="73.4216" gradientUnits="userSpaceOnUse">
<stop stop-color="#072146" stop-opacity="0.5"/>
<stop offset="1" stop-color="#072146" stop-opacity="0"/>
</linearGradient>
<clipPath id="clip0_3801_22864">
<rect width="80" height="80" fill="white"/>
</clipPath>
</defs>
</svg>
